<svg width="112" height="112" viewBox="0 0 112 112" fill="none" xmlns="http://www.w3.org/2000/svg">
<path d="M68 27C68 27.1777 67.9273 27.4975 67.4903 27.9567C67.0435 28.4262 66.3024 28.94 65.2337 29.415C63.1012 30.3628 60.0151 31 56.5 31C52.9849 31 49.8988 30.3628 47.7663 29.415C46.6976 28.94 45.9565 28.4262 45.5097 27.9567C45.0727 27.4975 45 27.1777 45 27C45 26.8223 45.0727 26.5025 45.5097 26.0433C45.9565 25.5738 46.6976 25.06 47.7663 24.585C49.8988 23.6372 52.9849 23 56.5 23C60.0151 23 63.1012 23.6372 65.2337 24.585C66.3024 25.06 67.0435 25.5738 67.4903 26.0433C67.9273 26.5025 68 26.8223 68 27Z" stroke="#7C7D88" stroke-width="4"/>
<circle cx="56.5" cy="46.5" r="8.5" stroke="#7C7D88" stroke-width="4"/>
<path d="M65.5 43L73.7653 38.1381C73.919 38.0477 74.094 38 74.2723 38H106C106.552 38 107 38.4477 107 39V41.5316C107 41.8284 106.868 42.1099 106.64 42.2998L101.278 46.7682C101.098 46.918 100.872 47 100.638 47H94.5M84.5 47H94.5M94.5 47L92.1236 53.1786C92.0435 53.3869 91.8961 53.5624 91.7048 53.6771L87.2375 56.3575C87.0821 56.4507 86.9043 56.5 86.723 56.5H82M71.5 56.5H82M82 56.5V60.4793C82 60.8057 81.8408 61.1114 81.5735 61.2986L77.2582 64.3192C77.0902 64.4369 76.8899 64.5 76.6848 64.5H72.5" stroke="#7C7D88" stroke-width="4" stroke-linecap="round" stroke-linejoin="round"/>
<path d="M47.5 43.5L38.2324 38.1346C38.0802 38.0464 37.9074 38 37.7314 38H6C5.44771 38 5 38.4477 5 39V41.5316C5 41.8284 5.13182 42.1099 5.35982 42.2998L10.7219 46.7682C10.9016 46.918 11.1281 47 11.362 47H17.5M27.5 47H17.5M17.5 47L19.8764 53.1786C19.9565 53.3869 20.1039 53.5624 20.2952 53.6771L24.7625 56.3575C24.9179 56.4507 25.0957 56.5 25.277 56.5H30M40.5 56.5H30M30 56.5V60.4793C30 60.8057 30.1592 61.1114 30.4265 61.2986L34.7418 64.3192C34.9098 64.4369 35.1101 64.5 35.3152 64.5H39.5" stroke="#7C7D88" stroke-width="4" stroke-linecap="round" stroke-linejoin="round"/>
<path d="M49 53L42.6902 87.9466C42.5873 88.5164 42.9884 89.0543 43.5638 89.1182L48.6248 89.6805C53.527 90.2252 58.474 90.2349 63.3784 89.7095L68.9315 89.1145C69.5088 89.0526 69.9122 88.5138 69.8091 87.9425L63.5 53" stroke="#7C7D88" stroke-width="4" stroke-linecap="round" stroke-linejoin="round"/>
<path d="M47.5 58.5L41.201 64.3145C41.0694 64.4359 40.9729 64.5905 40.9214 64.762L38.3862 73.2127C38.1937 73.8543 38.6742 74.5 39.344 74.5H43" stroke="#7C7D88" stroke-width="4" stroke-linecap="round" stroke-linejoin="round"/>
<path d="M66 58L72.299 63.8145C72.4306 63.9359 72.5271 64.0905 72.5786 64.262L75.1138 72.7127C75.3063 73.3543 74.8258 74 74.156 74H70.5" stroke="#7C7D88" stroke-width="4" stroke-linecap="round" stroke-linejoin="round"/>
<path d="M39 74.5L43.5 81" stroke="#7C7D88" stroke-width="4" stroke-linecap="round" stroke-linejoin="round"/>
<path d="M74 74L69 81" stroke="#7C7D88" stroke-width="4" stroke-linecap="round" stroke-linejoin="round"/>
</svg>
