<svg width="112" height="112" viewBox="0 0 112 112" fill="none" xmlns="http://www.w3.org/2000/svg">
<rect width="112" height="112" fill="white"/>
<circle cx="56" cy="34" r="21" stroke="#7C7D88" stroke-width="2"/>
<path d="M50.5 79.5L44 60C35.4867 62.9469 27.863 68.1599 22 75V99.5H91V75L90.646 74.587C84.9792 67.9758 77.6928 62.9494 69.5 60L62.5 79L60.083 73.8639C59.0709 71.7131 58.9708 69.2446 59.8054 67.0189L61.0312 63.7502C61.3232 62.9714 61.198 62.0973 60.6988 61.4318C58.8108 58.9144 55.0679 58.8185 53.0534 61.2359L52.9348 61.3782C52.3569 62.0717 52.1958 63.022 52.5127 63.8673L53.7145 67.0719C54.5342 69.2579 54.4067 71.6865 53.3627 73.7747L50.5 79.5Z" fill="#7C7D88"/>
</svg>
