<svg width="112" height="112" viewBox="0 0 112 112" fill="none" xmlns="http://www.w3.org/2000/svg">
<rect width="112" height="112" fill="white"/>
<circle cx="22.4565" cy="46.848" r="4.84802" stroke="#7C7D88" stroke-width="2"/>
<path fill-rule="evenodd" clip-rule="evenodd" d="M28.9528 60.1747L30.9133 71.43H28.6011L28.9372 73.43H30.9133C32.1551 73.43 33.0968 72.3102 32.8837 71.0868L30.9231 59.8314C30.1925 55.6371 26.703 52.477 22.4569 52.1644C18.2109 52.477 14.7214 55.6371 13.9908 59.8314L12.0302 71.0868C11.8171 72.3102 12.7587 73.43 14.0005 73.43H16.6351L16.9358 71.43H14.0005L15.9611 60.1747C16.5259 56.9322 19.1921 54.4775 22.4569 54.1713C25.7218 54.4775 28.388 56.9322 28.9528 60.1747Z" fill="#7C7D88"/>
<path d="M17.4059 60.6706L15.2186 84.0026C15.1086 85.1758 16.0315 86.1893 17.2098 86.1893H27.4373C28.6156 86.1893 29.5386 85.1758 29.4286 84.0026L27.2412 60.6706" stroke="#7C7D88" stroke-width="2" stroke-linecap="round"/>
<line x1="16.6084" y1="66.5819" x2="28.3044" y2="66.5819" stroke="#7C7D88" stroke-width="2"/>
<line x1="22.9248" y1="74.9616" x2="22.9248" y2="85.1893" stroke="#7C7D88" stroke-width="2" stroke-linecap="round"/>
<circle cx="48.4564" cy="50.848" r="4.84802" stroke="#7C7D88" stroke-width="2"/>
<path fill-rule="evenodd" clip-rule="evenodd" d="M54.9528 64.1747L56.9133 75.43H54.6011L54.9372 77.43H56.9133C58.1551 77.43 59.0968 76.3102 58.8837 75.0868L56.9231 63.8314C56.1925 59.6371 52.703 56.477 48.4569 56.1644C44.2109 56.477 40.7214 59.6371 39.9908 63.8314L38.0302 75.0868C37.8171 76.3102 38.7587 77.43 40.0005 77.43H42.6351L42.9358 75.43H40.0005L41.9611 64.1747C42.5259 60.9322 45.1921 58.4775 48.4569 58.1713C51.7218 58.4775 54.388 60.9322 54.9528 64.1747Z" fill="#7C7D88"/>
<path d="M43.406 64.6706L41.2187 88.0026C41.1087 89.1758 42.0316 90.1893 43.2099 90.1893H53.4375C54.6158 90.1893 55.5387 89.1758 55.4287 88.0026L53.2414 64.6706" stroke="#7C7D88" stroke-width="2" stroke-linecap="round"/>
<line x1="42.6086" y1="70.5819" x2="54.3047" y2="70.5819" stroke="#7C7D88" stroke-width="2"/>
<line x1="48.925" y1="78.9616" x2="48.925" y2="89.1893" stroke="#7C7D88" stroke-width="2" stroke-linecap="round"/>
<circle cx="75.4564" cy="46.848" r="4.84802" stroke="#7C7D88" stroke-width="2"/>
<path fill-rule="evenodd" clip-rule="evenodd" d="M81.9528 60.1747L83.9133 71.43H81.6011L81.9372 73.43H83.9133C85.1551 73.43 86.0968 72.3102 85.8837 71.0868L83.9231 59.8314C83.1925 55.6371 79.703 52.477 75.4569 52.1644C71.2109 52.477 67.7214 55.6371 66.9908 59.8314L65.0302 71.0868C64.8171 72.3102 65.7587 73.43 67.0005 73.43H69.6351L69.9358 71.43H67.0005L68.9611 60.1747C69.5259 56.9322 72.1921 54.4775 75.4569 54.1713C78.7218 54.4775 81.388 56.9322 81.9528 60.1747Z" fill="#7C7D88"/>
<path d="M70.406 60.6706L68.2187 84.0026C68.1087 85.1758 69.0316 86.1893 70.2099 86.1893H80.4375C81.6158 86.1893 82.5387 85.1758 82.4287 84.0026L80.2414 60.6706" stroke="#7C7D88" stroke-width="2" stroke-linecap="round"/>
<line x1="69.6086" y1="66.5819" x2="81.3047" y2="66.5819" stroke="#7C7D88" stroke-width="2"/>
<line x1="75.925" y1="74.9616" x2="75.925" y2="85.1893" stroke="#7C7D88" stroke-width="2" stroke-linecap="round"/>
<path d="M40.3384 33.8219L39.4395 33.7368L39.2633 34.6224C39.1123 35.3816 38.4017 36 37.5 36C36.7852 36 36.1837 35.6084 35.8942 35.0634L35.4683 34.2612L34.6289 34.6083C34.1405 34.8103 33.6003 34.9231 33.0294 34.9231C30.7687 34.9231 29 33.1664 29 31.0769C29 28.9874 30.7687 27.2308 33.0294 27.2308C33.6471 27.2308 34.229 27.3628 34.7483 27.5972L35.6811 28.018L36.0803 27.0758C36.8386 25.2862 38.6781 24 40.8529 24C43.7309 24 46 26.2388 46 28.9231C46 31.6074 43.7309 33.8462 40.8529 33.8462C40.679 33.8462 40.5074 33.8379 40.3384 33.8219Z" stroke="#7C7D88" stroke-width="2"/>
<circle cx="35" cy="39" r="1.5" stroke="#7C7D88"/>
<circle cx="31.5" cy="42.5" r="1" stroke="#7C7D88"/>
<path d="M66.3384 36.8219L65.4395 36.7368L65.2633 37.6224C65.1123 38.3816 64.4017 39 63.5 39C62.7852 39 62.1837 38.6084 61.8942 38.0634L61.4683 37.2612L60.6289 37.6083C60.1405 37.8103 59.6003 37.9231 59.0294 37.9231C56.7687 37.9231 55 36.1664 55 34.0769C55 31.9874 56.7687 30.2308 59.0294 30.2308C59.6471 30.2308 60.229 30.3628 60.7483 30.5972L61.6811 31.018L62.0803 30.0758C62.8386 28.2862 64.6781 27 66.8529 27C69.7309 27 72 29.2388 72 31.9231C72 34.6074 69.7309 36.8462 66.8529 36.8462C66.679 36.8462 66.5074 36.8379 66.3384 36.8219Z" stroke="#7C7D88" stroke-width="2"/>
<circle cx="61" cy="42" r="1.5" stroke="#7C7D88"/>
<circle cx="57.5" cy="45.5" r="1" stroke="#7C7D88"/>
<path d="M94.3384 32.8219L93.4395 32.7368L93.2633 33.6224C93.1123 34.3816 92.4017 35 91.5 35C90.7852 35 90.1837 34.6084 89.8942 34.0634L89.4683 33.2612L88.6289 33.6083C88.1405 33.8103 87.6003 33.9231 87.0294 33.9231C84.7687 33.9231 83 32.1664 83 30.0769C83 27.9874 84.7687 26.2308 87.0294 26.2308C87.6471 26.2308 88.229 26.3628 88.7483 26.5972L89.6811 27.018L90.0803 26.0758C90.8386 24.2862 92.6781 23 94.8529 23C97.7309 23 100 25.2388 100 27.9231C100 30.6074 97.7309 32.8462 94.8529 32.8462C94.679 32.8462 94.5074 32.8379 94.3384 32.8219Z" stroke="#7C7D88" stroke-width="2"/>
<circle cx="89" cy="38" r="1.5" stroke="#7C7D88"/>
<circle cx="85.5" cy="41.5" r="1" stroke="#7C7D88"/>
</svg>
