<svg width="112" height="112" viewBox="0 0 112 112" fill="none" xmlns="http://www.w3.org/2000/svg">
<rect width="112" height="112" fill="white"/>
<path d="M65.982 59.4326L65.0831 59.3475L64.9069 60.2331C64.1573 64.0021 60.6998 66.8947 56.5 66.8947C53.1573 66.8947 50.2779 65.0593 48.8684 62.405L48.4424 61.6028L47.6031 61.9499C45.6424 62.7606 43.4803 63.2105 41.2059 63.2105C32.2203 63.2105 25 56.2009 25 47.6316C25 39.0622 32.2203 32.0526 41.2059 32.0526C43.667 32.0526 45.9966 32.5794 48.0821 33.5203L49.0148 33.9411L49.4141 32.9989C52.3902 25.9749 59.5657 21 67.9706 21C79.0678 21 88 29.6591 88 40.2632C88 50.8672 79.0678 59.5263 67.9706 59.5263C67.2992 59.5263 66.6359 59.4946 65.982 59.4326Z" stroke="#7C7D88" stroke-width="2"/>
<circle cx="47.9475" cy="74.7368" r="5.8421" stroke="#7C7D88" stroke-width="2"/>
<circle cx="35.9736" cy="86.7105" r="4.13158" stroke="#7C7D88" stroke-width="2"/>
</svg>
