<svg width="112" height="112" viewBox="0 0 112 112" fill="none" xmlns="http://www.w3.org/2000/svg">
<rect width="112" height="112" fill="white"/>
<path fill-rule="evenodd" clip-rule="evenodd" d="M96.8349 53C96.9442 53.4941 97 53.9944 97 54.5C97 63.6127 78.8675 71 56.5 71C34.1325 71 16 63.6127 16 54.5C16 53.9944 16.0558 53.494 16.1651 53C16.0558 52.506 16 52.0056 16 51.5C16 42.3873 34.1325 35 56.5 35C78.8675 35 97 42.3873 97 51.5C97 52.0056 96.9442 52.506 96.8349 53ZM96 51.5C96 53.4215 95.0483 55.3484 93.1236 57.2023C91.196 59.059 88.3542 60.7771 84.7605 62.2412C77.5783 65.1673 67.5872 67 56.5 67C45.4128 67 35.4217 65.1673 28.2395 62.2412C24.6458 60.7771 21.804 59.059 19.8764 57.2023C17.9517 55.3484 17 53.4215 17 51.5C17 49.5785 17.9517 47.6516 19.8764 45.7977C21.804 43.941 24.6458 42.2229 28.2395 40.7588C35.4217 37.8327 45.4128 36 56.5 36C67.5872 36 77.5783 37.8327 84.7605 40.7588C88.3542 42.2229 91.196 43.941 93.1236 45.7977C95.0483 47.6516 96 49.5785 96 51.5ZM95.9523 55.2451C91.789 62.5536 75.7057 68 56.5 68C37.2943 68 21.211 62.5536 17.0477 55.245C17.2622 56.9183 18.2004 58.5879 19.8764 60.2023C21.804 62.059 24.6458 63.7771 28.2395 65.2412C35.4217 68.1673 45.4128 70 56.5 70C67.5872 70 77.5783 68.1673 84.7605 65.2412C88.3542 63.7771 91.196 62.059 93.1236 60.2023C94.7996 58.5879 95.7378 56.9183 95.9523 55.2451Z" fill="#7C7D88"/>
<path d="M27.6046 43.9112C27.7944 43.8874 28.1002 43.637 28.2777 43.5578C28.5558 43.4337 29.3093 43.2759 29.4977 43.0404C29.7514 42.7232 30.6444 42.7244 30.9659 42.6617C32.0842 42.4439 33.2424 42.3494 34.3776 42.321C35.8506 42.2842 37.289 42.0938 38.7737 42.0938C39.1839 42.0938 39.5126 42.0523 39.8969 41.9003C40.2637 41.7553 40.6317 41.6086 41.0075 41.488C41.5299 41.3205 42.0802 41.3111 42.5977 41.1263C42.7718 41.0641 42.9965 41.084 43.1825 41.0337C43.664 40.9036 44.1878 40.8164 44.6801 40.7308C45.2679 40.6286 45.8489 40.4698 46.4512 40.4321C47.5856 40.3612 48.6863 40.42 49.825 40.4279C50.0964 40.4298 51.6209 40.2731 51.8191 40.5794C51.9066 40.7147 51.8299 41.107 51.7181 41.2188C51.2205 41.7164 50.4972 42.0327 49.9134 42.422C48.6902 43.2374 47.6851 44.2141 46.1567 44.2141C45.1729 44.2141 45.1299 43.5029 45.513 42.8132C45.6389 42.5865 45.6266 42.2718 45.6266 42.0181C45.6266 41.689 44.2737 41.8667 44.0533 41.8667C43.5249 41.8667 43.0179 41.8922 42.5094 42.056C42.3595 42.1042 41.7648 42.2192 41.7648 42.4388C41.7648 43.1139 42.4846 43.3209 42.9385 43.684C43.7244 44.3128 42.9393 45.4278 42.3537 45.8042C41.7562 46.1883 41.1225 46.4736 40.4564 46.7087C39.9228 46.897 39.3002 47.3888 38.8494 47.7394C38.3371 48.1378 37.7649 48.5151 37.1793 48.7995C36.909 48.9308 36.5173 48.9369 36.2286 48.9846C35.9889 49.0242 35.4696 48.9928 35.2694 49.1529C34.9118 49.439 34.7983 49.5603 34.7983 49.9984C34.7983 50.337 34.7207 50.7147 34.7688 51.0417C34.8603 51.6637 35.1361 52.3108 35.7658 52.5267C36.5025 52.7793 37.2109 52.9077 37.9786 52.7118C38.3791 52.6097 38.9735 52.5949 39.3248 52.3753C39.774 52.0945 40.297 52.023 40.7215 52.3332C41.8266 53.1408 42.8911 53.7955 44.1921 54.2095C45.2371 54.542 45.5006 54.7391 45.4752 55.8585C45.4393 57.4359 44.3257 58.375 43.1656 59.2829C42.8294 59.546 42.4512 59.8315 42.2948 60.242C42.138 60.6537 41.8558 61.2596 41.8405 61.6892C41.8228 62.1849 41.6796 62.6983 41.5039 63.1616C41.4405 63.3287 41.0589 63.8143 40.9318 63.4014C40.7055 62.6658 41.0143 61.9865 40.4017 61.4031C40.0019 61.0223 39.4017 60.859 39.2238 60.3093C38.9924 59.5939 38.963 58.9262 38.963 58.1891C38.963 57.1966 37.921 56.4381 37.4149 55.7071C37.1594 55.338 37.0615 54.9204 36.9564 54.4787C36.875 54.1368 36.7626 53.5319 36.4978 53.2671C36.2433 53.0126 35.8027 52.8918 35.4966 52.695C35.0166 52.3865 34.6084 52.0322 34.1336 51.7106C33.2732 51.1278 32.3847 50.6127 31.5801 49.969C31.0167 49.5183 30.6039 48.8682 30.2549 48.2442C29.8832 47.5795 30.203 46.7649 30.7092 46.2586C31.0114 45.9564 31.8712 45.3364 31.4833 44.803C31.2346 44.4611 31.2206 44.3596 30.7008 44.2141C30.2269 44.0814 29.7267 43.9112 29.2326 43.9112C28.5821 43.9112 28.0082 44.1383 27.3774 44.1383" stroke="#7C7D88" stroke-linecap="round"/>
<path d="M39.1145 43.2297C38.7264 43.5531 38.2944 43.6753 38.3741 44.273C38.4997 45.2146 40.2636 45.0178 40.9234 44.9671C41.212 44.9449 41.5376 44.7214 41.5376 44.4034C41.5376 43.8706 41.2414 43.6013 40.7215 43.44C40.3144 43.3137 39.4016 43.2511 39.207 43.7765C38.882 44.6541 40.3191 44.2425 40.7215 44.172C41.3735 44.0577 41.8207 43.9079 41.6512 43.196C41.5813 42.9022 41.5676 42.6365 41.2179 42.565C40.9947 42.5193 40.747 42.5482 40.5196 42.5482C40.1304 42.5482 40.178 42.4955 40.4607 42.2453C40.6597 42.0691 40.8381 41.8686 41.0496 41.7068C41.05 41.7065 41.3604 41.5166 41.3525 41.5049C41.3437 41.4916 40.9624 41.8631 40.9487 41.8751C40.7482 42.0495 40.5151 42.1891 40.3008 42.3462C39.9901 42.5741 39.6001 42.726 39.2659 42.8931C39.0143 43.019 38.2874 43.1587 38.1469 43.3811C37.4201 44.5319 39.4345 44.8742 39.9937 45.1227C40.6496 45.4142 41.8655 46.0901 42.2906 45.169C42.4948 44.7267 42.1908 44.127 42.4968 43.7261C42.8877 43.2139 43.4195 42.7554 43.9608 42.4135C44.3338 42.1779 44.0283 42.4315 43.8135 42.5818C43.5942 42.7353 43.1697 42.7574 42.9133 42.8174C42.5969 42.8914 42.278 42.9419 41.9583 42.9983C41.9038 43.0079 41.7531 43.0605 41.7942 43.0235C42.5128 42.3769 43.6555 42.1002 44.5497 41.8498C44.7256 41.8006 44.2955 42.2369 44.1879 42.3042C44.0038 42.4193 43.8947 42.6232 43.7041 42.7291C43.1672 43.0274 44.4368 41.7066 44.9536 41.3745C45.2927 41.1564 45.9557 40.9139 46.3671 40.8823C47.1955 40.8185 48.016 40.7992 48.8449 40.8865C49.3305 40.9376 49.8339 41.0337 50.3215 41.0337C50.5189 41.0337 50.9884 41.0804 50.923 41.3745C50.9074 41.445 50.785 41.6002 50.8683 41.6731C51.0381 41.8217 51.1544 41.6689 51.1544 41.9424" stroke="#7C7D88" stroke-linecap="round"/>
<path d="M52.0737 44.4641C52.0737 45.1104 51.4661 45.6855 51.4416 46.3603C51.4283 46.7269 51.6144 47.3266 51.3777 47.6308C50.972 48.1525 50.5629 48.6264 50.12 49.1185C49.9474 49.3102 49.8208 49.6527 49.6986 49.8719C49.5223 50.188 49.4304 50.4935 49.4304 50.8487C49.4304 51.9922 49.768 53.2318 50.9691 53.575C51.4693 53.7179 52.025 53.6482 52.5334 53.6133C53.2288 53.5655 53.749 53.5714 54.4232 53.7697C54.9584 53.9271 55.0516 54.2887 55.1319 54.8008C55.2284 55.4159 55.1391 56.0576 55.2468 56.6715C55.3671 57.3567 55.6025 57.8994 55.8949 58.5167C56.0804 58.9084 56.717 60.392 57.3634 60.0394C57.5567 59.934 57.7087 59.8858 57.8837 59.7425C58.1321 59.5393 58.4888 59.4403 58.701 59.1999C58.931 58.9391 59.1356 58.6427 59.3426 58.3667C59.5966 58.028 59.9742 57.7854 60.2397 57.4441C60.8375 56.6754 61.628 55.9969 62.5477 55.6723C63.0016 55.5121 62.9976 56.6022 62.9787 56.8439C62.9404 57.3315 62.7352 57.9684 62.2891 58.2422C61.9843 58.4292 61.7184 58.5431 61.3634 58.5997C60.842 58.6827 60.309 58.8785 60.4152 58.1528C60.5133 57.4824 60.9907 56.9453 61.5613 56.6173C61.7427 56.513 61.9373 56.4396 62.1295 56.3587C62.2914 56.2905 62.2765 56.535 62.2891 56.646C62.3624 57.2868 62.1185 57.6313 61.5294 57.9006C61.3837 57.9672 61.2416 58.0015 61.0952 58.0538C60.8504 58.1412 61.0745 57.6727 61.0984 57.5877C61.169 57.3362 61.255 57.1218 61.4144 56.9141C61.5416 56.7484 61.2095 56.9173 61.1207 56.9365C60.7354 57.0198 60.3433 57.0979 59.9523 57.1504C59.8051 57.1702 59.8103 57.0763 59.7608 56.9525C59.5329 56.3827 59.8386 55.9923 60.0864 55.4967C60.3452 54.9793 60.5736 54.7734 61.0377 54.3922C61.3241 54.157 61.5853 53.9165 61.8294 53.6452C61.9933 53.4631 62.0936 53.2277 62.2317 53.0259C62.3971 52.7841 62.3425 52.6743 62.1231 52.5055C61.597 52.1008 61.0289 51.7166 60.4631 51.3723C60.2468 51.2406 60.1261 50.8603 59.9715 50.6636C59.6163 50.2115 59.2474 49.9336 58.784 49.6005C57.9486 49.0001 56.8783 48.9974 55.9236 48.8439C54.9858 48.6932 54.0145 48.7451 53.0952 48.5215C52.8204 48.4546 52.4785 48.4767 52.2237 48.3395C51.9888 48.213 51.892 47.6021 51.9141 47.3691C51.9764 46.7101 51.797 45.3941 52.6164 45.0961C52.9613 44.9707 53.2842 44.6842 53.5805 44.4768C53.7296 44.3724 53.839 44.9491 53.8422 44.9876C53.8791 45.4305 53.7897 45.9215 53.7113 46.3603C53.6518 46.6935 53.4586 47.5084 53.1048 47.6532C53.0303 47.6837 52.9333 47.765 52.9356 47.6436C52.9426 47.2814 53.0114 46.9098 53.0793 46.555C53.1442 46.2154 53.268 45.9812 53.3825 45.6835C53.4487 45.5115 53.4023 45.6099 53.2804 45.7282C52.8731 46.1235 52.5799 46.6019 52.2876 47.085C52.0831 47.4227 52.1975 47.22 52.3163 46.9988C52.4609 46.7292 52.6015 46.4586 52.7313 46.1815C52.9242 45.7695 52.8621 46.1544 52.9037 46.3922C52.9778 46.8162 53.3905 47.3624 53.8422 47.4393C54.0808 47.4799 54.3671 47.2253 54.5573 47.1073C55.0794 46.7832 55.2416 47.8637 55.1734 48.1703C55.1283 48.3732 54.7089 48.1892 54.6275 48.1001C54.4946 47.9545 54.4134 47.7677 54.3275 47.5925C54.2111 47.3554 54.0721 47.4393 53.8231 47.5095C53.4774 47.607 52.762 48.0242 52.4057 47.8288C52.0247 47.6198 52.0918 47.2981 52.195 46.9413C52.3322 46.4668 52.5507 45.9237 52.5876 45.4249C52.6036 45.2089 52.6291 44.9686 52.677 44.7577C52.7097 44.6139 52.7529 44.4273 52.6196 44.3236C52.4114 44.1617 52.7136 44.0768 52.8909 44.049C53.2972 43.9856 53.6863 43.9469 54.0976 43.9469C54.329 43.9469 54.4621 43.9513 54.6403 43.7969C54.9682 43.5127 55.4054 43.1706 55.5661 42.753C55.825 42.0797 56.7367 42.5663 57.175 42.7083C58.0444 42.9899 58.9307 43.2519 59.8566 43.1871C60.2838 43.1572 60.7158 43.0958 61.1431 43.0562C61.4188 43.0307 61.6516 42.9701 61.9029 42.8519C62.281 42.674 62.6771 42.5813 63.0489 42.3954C63.544 42.1479 64.049 41.9241 64.5429 41.6771C65.3171 41.29 66.3603 41.3423 67.1894 41.393C67.6534 41.4214 68.1108 41.7192 68.5589 41.8463C69.0174 41.9765 69.3674 42.0461 69.8358 42.0506C71.4487 42.0662 73.0521 42.2142 74.6594 42.3348C75.9504 42.4316 77.2753 42.4704 78.5509 42.6955C79.1172 42.7954 79.9364 42.8581 80.3897 43.2701C80.4796 43.3519 80.5748 43.357 80.5748 43.4872C80.5748 43.7677 80.4538 44.0013 80.4056 44.2661C80.1859 45.4745 78.6735 44.2779 78.1295 44.1225C77.5959 43.97 77.2431 43.8151 76.6738 43.9852C76.4921 44.0395 75.5436 44.3984 75.7001 44.7897C75.9621 45.4446 76.8263 45.6815 77.1462 46.3092C77.3822 46.772 77.4969 47.1369 77.9571 47.3946C78.2482 47.5577 78.4756 47.8849 78.1901 48.1703C77.9421 48.4183 77.7446 48.5471 77.4559 48.3268C77.2429 48.1642 77.0472 47.9312 76.7951 47.8288C76.3542 47.6497 75.842 47.6033 75.3713 47.5798C74.8296 47.5527 74.5205 47.4854 74.1199 47.8288C73.8822 48.0325 74.091 48.3114 74.2795 48.4513C74.5252 48.6335 74.6261 48.7197 74.7711 49.0099C74.9726 49.4128 75.0603 49.4943 74.7775 49.8591C74.48 50.2429 74.2193 50.7043 73.8965 51.0594C73.7202 51.2533 73.4388 51.3612 73.3346 51.6276C73.1997 51.9724 73.2147 52.4369 73.2197 52.8024C73.2254 53.2231 73.2105 53.4409 73.6283 53.5686C74.1139 53.7169 74.5645 53.5521 75.0393 53.4888C75.2009 53.4672 75.6956 53.391 75.8055 53.5558C75.9936 53.838 76.1687 54.3219 76.08 54.6667C76.0225 54.8904 75.5184 55.1132 75.3394 55.2126C74.9597 55.4236 74.5761 55.6033 74.1582 55.7266C73.8803 55.8086 73.5875 55.8565 73.3154 55.9564C73.2519 55.9798 73.2013 56.0236 73.1303 56.0107C72.4398 55.8852 71.9619 55.1159 71.9619 54.4656C71.9619 53.8502 72.2119 53.2855 72.345 52.6939C72.3996 52.4512 72.4602 51.8646 72.2364 51.6787C71.6067 51.1556 70.7175 50.9323 70.0018 50.5454C69.6926 50.3783 69.3521 50.2919 69.0313 50.1528C68.9399 50.1131 68.8625 50.0379 68.76 50.0379C68.0247 50.0379 67.5493 50.9667 67.1734 51.4936C67.0258 51.7005 66.8337 51.8623 66.9436 52.1065C67.1754 52.6218 66.7516 52.2266 66.5796 52.0171C65.9723 51.2772 65.7238 50.5025 64.6834 50.3539C63.6298 50.2034 62.5978 50.2743 62.2125 51.3659C62.1522 51.5369 62.011 51.6739 61.8422 51.749C61.7876 51.7732 61.7783 51.7083 61.7528 51.6755C61.6291 51.5165 61.4072 51.457 61.2293 51.3882C60.903 51.2621 60.5516 51.1702 60.2524 50.9828C59.9898 50.8183 59.7984 50.5412 59.5916 50.3156C58.891 49.5513 58.1364 48.854 57.4049 48.1225C57.1347 47.8523 56.9287 47.6071 56.61 47.3946C56.3142 47.1974 55.9535 47.1189 55.6235 47.0051C55.4459 46.9439 55.2817 46.8737 55.1064 46.8072C54.9757 46.7577 54.433 46.4839 54.8829 46.6827C55.3519 46.8899 55.8938 46.9613 56.345 47.2031C56.8504 47.4738 57.476 47.5968 58.0369 47.7266C58.4547 47.8233 59.0961 47.8755 59.4416 48.1288C59.699 48.3176 59.908 48.5918 60.1758 48.7609C60.655 49.0635 60.9515 49.8686 61.1814 50.3539C61.2744 50.5503 61.3308 50.7262 61.4112 50.9317C61.441 51.0078 61.5475 51.3179 61.3634 51.1424C61.0319 50.8264 60.745 50.4427 60.4312 50.1081C59.9375 49.5817 59.5502 48.9332 58.8574 48.6907C58.3378 48.5088 57.8067 48.3798 57.2963 48.1672C56.5827 47.8698 55.8802 47.5115 55.1926 47.1584C54.9745 47.0464 54.939 46.791 54.7169 46.6604C54.6519 46.6221 54.5877 46.5902 54.5318 46.5455C54.4041 46.4433 54.2666 46.8502 54.2891 46.9253C54.3255 47.0465 54.5797 47.1606 54.6722 47.2318C54.9214 47.4234 55.2219 47.5483 55.4192 47.7968C55.6313 48.0639 55.8667 48.3128 56.0832 48.5758C56.0954 48.5905 56.2481 48.7344 56.246 48.7354C56.0928 48.812 55.4785 48.5289 55.3298 48.4864C54.8664 48.354 53.4928 47.9862 53.9061 48.2342C54.3046 48.4733 54.8463 48.5921 55.2788 48.7418C56.2287 49.0705 57.1939 49.3431 58.1551 49.6356C58.8995 49.8622 59.6386 50.099 60.361 50.389C60.7032 50.5264 61.2711 50.6444 61.5549 50.8998C62.0459 51.3417 61.9533 51.7889 61.9029 52.3938C61.8867 52.5883 61.7524 52.7983 61.7879 52.994C61.8284 53.2165 62.1957 52.8882 62.2732 52.828C62.5236 52.6331 62.7874 52.3603 62.9212 52.0618C63.0099 51.8639 63.338 51.4417 63.5373 51.3531C63.7582 51.2549 64.0387 51.1225 64.2556 51.0019C64.6963 50.7571 64.6201 50.4917 64.2748 50.1464C63.8992 49.7708 63.1413 49.7855 62.6531 49.6484C62.3659 49.5678 61.9626 49.4751 61.7337 49.2653C61.6872 49.2227 61.4402 49.1088 61.6411 49.0642C61.8174 49.025 61.9771 49.0906 62.1295 49.1632C62.3179 49.2529 62.5278 49.2151 62.3849 49.4505C62.2918 49.6038 62.187 49.8861 62.187 50.0666C62.187 50.3235 61.9878 50.7832 61.8103 50.3475C61.6455 49.9431 61.5704 49.588 62.0018 49.3164C62.1444 49.2266 62.4283 49.22 62.5892 49.2334C62.7198 49.2443 62.838 49.3429 62.9563 49.3898C63.4905 49.6015 64.0546 49.6798 64.6036 49.8336C64.8946 49.915 65.1966 49.8852 65.4942 49.9804C65.8338 50.0891 66.1146 50.2961 66.4009 50.4976C66.7248 50.7255 67.0724 51.0194 67.3298 51.3339C67.5737 51.632 67.7997 51.8848 67.9779 52.2214C68.259 52.7525 68.5893 51.8855 68.7025 51.6213C68.7748 51.4525 69.0165 51.2294 68.9643 51.0466C68.9273 50.9171 68.7045 50.9506 68.6131 50.9636C68.2459 51.0161 67.9396 51.1993 67.9332 51.5766C67.9285 51.8504 67.9872 52.1716 67.8757 52.4225C67.8228 52.5415 67.6217 52.9367 67.8757 52.9684C68.1134 52.9981 67.7342 53.0186 67.6714 53.0131C67.4622 52.9948 66.4276 52.9817 66.4392 52.6683C66.4475 52.442 66.6015 52.3616 66.7648 52.2406C67.1109 51.984 67.3415 51.6191 67.7065 51.3818C68.2834 51.0069 68.9269 50.8027 69.6443 51.0019C70.2121 51.1597 70.8102 51.224 71.3873 51.3403C71.7158 51.4066 71.9959 51.3687 72.0704 51.7043C72.1968 52.2731 72.1944 52.8847 72.0672 53.4568C72.0062 53.7315 72.1426 54.4437 72.4727 54.5199C73.0923 54.6629 73.5903 55.0817 74.254 54.9285C74.6908 54.8277 75.1008 54.6194 75.5341 54.5231C75.8159 54.4605 74.9576 54.5565 74.669 54.5646C74.0637 54.5816 73.458 54.5774 72.8526 54.5774C72.4637 54.5774 72.4407 54.2981 72.4407 53.907C72.4407 53.5597 72.8634 53.4492 72.8749 53.8176C72.8828 54.0696 72.8562 54.4333 72.9419 54.6763C73.097 55.1156 73.4134 54.9681 73.8071 54.9189C74.1841 54.8718 74.559 54.8293 74.9371 54.7944C75.2459 54.766 74.8082 54.9388 74.7265 54.9668C74.4215 55.0711 74.1618 54.938 74.4008 54.5837C74.6582 54.2024 75.0448 54.1182 75.4128 53.8942C75.4433 53.8757 75.5158 53.835 75.4192 53.8559C75.102 53.9245 74.7908 54.0477 74.4838 54.1496C73.9166 54.3379 73.3471 54.4949 72.7568 54.5933C72.4128 54.6507 72.8341 54.371 72.9068 54.322C73.149 54.1585 73.4093 53.9958 73.6794 53.8878" stroke="#7C7D88" stroke-linecap="round"/>
<path d="M77.8741 54.1177C77.8908 54.3349 78.0069 55.2543 78.1997 55.3244C79.0035 55.6167 79.8804 55.4569 80.7088 55.4393C81.0415 55.4322 81.0839 54.8142 80.7344 54.8072C80.2801 54.7981 79.7061 54.9153 79.2787 54.721C79.1809 54.6766 79.1324 54.7554 79.0488 54.7402C78.9133 54.7155 78.7523 54.5241 78.6466 54.4433C78.3708 54.2324 78.8103 54.1969 78.9626 54.1751C79.4457 54.1061 79.7851 54.1444 80.2523 54.2326C80.4416 54.2683 80.7669 54.2184 80.8748 54.405C81.0523 54.7115 81.2148 55.0101 81.3537 55.3276C81.5383 55.7495 81.8596 56.1268 82.0113 56.5566C82.1628 56.9858 82.2764 57.4215 82.3689 57.8655C82.5059 58.5232 82.6198 59.2149 82.0241 59.6915C81.7267 59.9294 81.3935 60.1887 81.0313 60.3204C80.7112 60.4368 80.4044 60.5417 80.1151 60.7258C79.4685 61.1373 78.424 60.5876 77.7783 60.4097C76.9916 60.1931 76.1552 60.2661 75.3457 60.2661C74.9103 60.2661 74.8788 60.0765 74.6179 59.6851C74.2737 59.1688 74.7377 58.343 75.0457 57.9357C75.1891 57.7459 75.4546 57.6119 75.6522 57.4951C76.4784 57.0069 77.3625 56.6102 78.3274 56.5183C79.1159 56.4432 79.9416 56.4234 80.7312 56.5023C81.0075 56.53 81.9554 56.5475 82.0241 56.8567C82.1178 57.2784 82.2091 57.8337 81.9539 58.2166C81.8429 58.3831 81.1763 57.7242 80.9483 57.6228C80.6109 57.4729 80.1895 57.4808 79.8278 57.4185C79.2737 57.3232 80.2879 57.5306 80.3737 57.5973C80.5556 57.7389 82.1207 58.6368 81.8389 59.0594" stroke="#7C7D88" stroke-linecap="round"/>
<path d="M81.8964 61.7026C81.9786 61.6316 83.4887 60.7801 83.633 61.1408C83.7822 61.5137 83.6828 61.6563 83.3904 61.9325C83.0659 62.2389 82.3753 62.5795 82.3561 61.8495C82.3475 61.5237 82.4003 61.4383 82.7455 61.3706C83.0776 61.3055 83.4203 61.3004 83.7575 61.3004C83.9877 61.3004 84.2017 61.4101 84.2491 61.6707C84.2731 61.8025 84.336 61.882 84.1342 61.9325C83.9452 61.9797 83.8067 62.1178 83.6266 62.1879C83.5037 62.2357 83.3738 62.3033 83.2467 62.3315C83.1324 62.3569 83.0091 62.3039 82.9019 62.3634C82.5508 62.5586 82.3131 61.911 82.1262 61.8176" stroke="#7C7D88" stroke-linecap="round"/>
</svg>
