<svg width="112" height="112" viewBox="0 0 112 112" fill="none" xmlns="http://www.w3.org/2000/svg">
<rect width="112" height="112" fill="white"/>
<path d="M65.3249 62.8333L64.426 62.7481L64.2498 63.6337C63.5336 67.2345 60.2297 70 56.2143 70C53.0185 70 50.2664 68.2453 48.9195 65.7089L48.4935 64.9067L47.6542 65.2538C45.7758 66.0305 43.7044 66.4615 41.5252 66.4615C32.9156 66.4615 26 59.7456 26 51.5385C26 43.3313 32.9156 36.6154 41.5252 36.6154C43.8833 36.6154 46.1152 37.1201 48.1131 38.0215L49.0459 38.4423L49.4451 37.5001C52.2972 30.7687 59.1745 26 67.2311 26C77.8689 26 86.4286 34.3002 86.4286 44.4615C86.4286 54.6229 77.8689 62.9231 67.2311 62.9231C66.5876 62.9231 65.9517 62.8927 65.3249 62.8333Z" stroke="#7C7D88" stroke-width="2"/>
<circle cx="47.9999" cy="77.5714" r="5.57143" stroke="#7C7D88" stroke-width="2"/>
<circle cx="36.5001" cy="89.0714" r="3.92857" stroke="#7C7D88" stroke-width="2"/>
<path d="M58.7869 40.5455L58.4545 52.767H55.3352L54.9943 40.5455H58.7869ZM56.8949 58.2216C56.3324 58.2216 55.8494 58.0227 55.446 57.625C55.0426 57.2216 54.8438 56.7386 54.8494 56.1761C54.8438 55.6193 55.0426 55.142 55.446 54.7443C55.8494 54.3466 56.3324 54.1477 56.8949 54.1477C57.4347 54.1477 57.9091 54.3466 58.3182 54.7443C58.7273 55.142 58.9347 55.6193 58.9403 56.1761C58.9347 56.5511 58.8352 56.8949 58.642 57.2074C58.4545 57.5142 58.2074 57.7614 57.9006 57.9489C57.5938 58.1307 57.2585 58.2216 56.8949 58.2216Z" fill="#7C7D88"/>
</svg>
