<svg width="112" height="112" viewBox="0 0 112 112" fill="none" xmlns="http://www.w3.org/2000/svg">
<rect width="112" height="112" fill="white"/>
<path fill-rule="evenodd" clip-rule="evenodd" d="M41 55C41 57.2091 39.2091 59 37 59C34.7909 59 33 57.2091 33 55C33 52.7909 34.7909 51 37 51C39.2091 51 41 52.7909 41 55ZM40 55C40 56.6569 38.6569 58 37 58C35.3431 58 34 56.6569 34 55C34 53.3431 35.3431 52 37 52C38.6569 52 40 53.3431 40 55Z" fill="#7C7D88"/>
<path fill-rule="evenodd" clip-rule="evenodd" d="M37 61C40.3137 61 43 58.3137 43 55C43 51.6863 40.3137 49 37 49C33.6863 49 31 51.6863 31 55C31 58.3137 33.6863 61 37 61ZM37 60C39.7614 60 42 57.7614 42 55C42 52.2386 39.7614 50 37 50C34.2386 50 32 52.2386 32 55C32 57.7614 34.2386 60 37 60Z" fill="#7C7D88"/>
<path d="M30 63V62H44V63H30Z" fill="#7C7D88"/>
<path d="M35 65H44V64H35V65Z" fill="#7C7D88"/>
<path fill-rule="evenodd" clip-rule="evenodd" d="M85 55C85 57.2091 83.2091 59 81 59C78.7909 59 77 57.2091 77 55C77 52.7909 78.7909 51 81 51C83.2091 51 85 52.7909 85 55ZM84 55C84 56.6569 82.6569 58 81 58C79.3431 58 78 56.6569 78 55C78 53.3431 79.3431 52 81 52C82.6569 52 84 53.3431 84 55Z" fill="#7C7D88"/>
<path fill-rule="evenodd" clip-rule="evenodd" d="M81 61C84.3137 61 87 58.3137 87 55C87 51.6863 84.3137 49 81 49C77.6863 49 75 51.6863 75 55C75 58.3137 77.6863 61 81 61ZM81 60C83.7614 60 86 57.7614 86 55C86 52.2386 83.7614 50 81 50C78.2386 50 76 52.2386 76 55C76 57.7614 78.2386 60 81 60Z" fill="#7C7D88"/>
<path d="M74 63V62H88V63H74Z" fill="#7C7D88"/>
<path d="M74 65H83V64H74V65Z" fill="#7C7D88"/>
<path fill-rule="evenodd" clip-rule="evenodd" d="M53.9491 46.9559C53.3384 47.6278 53 48.5031 53 49.411V56.1612C53 57.325 53.5224 58.4274 54.4232 59.1644L54.7261 59.4123C56.8685 61.1651 59.9906 61.0094 61.9479 59.0521C62.6216 58.3784 63 57.4648 63 56.5121V49.411C63 48.5031 62.6616 47.6278 62.0509 46.9559C59.8788 44.5666 56.1212 44.5666 53.9491 46.9559ZM62 56.5121V49.411C62 48.7518 61.7543 48.1164 61.3109 47.6286C59.5356 45.6757 56.4644 45.6757 54.6891 47.6286C54.2457 48.1164 54 48.7518 54 49.411V56.1612C54 57.0251 54.3878 57.8434 55.0564 58.3905L55.3593 58.6383C57.1041 60.0659 59.6467 59.939 61.2408 58.345C61.7269 57.8589 62 57.1996 62 56.5121Z" fill="#7C7D88"/>
<path d="M53.3574 45.482C54.2073 44.8446 55.2409 44.5 56.3033 44.5H60.1716C60.5694 44.5 60.9509 44.658 61.2322 44.9393L61.2951 45.0022C63.3911 47.0982 64.739 49.8258 65.1308 52.764L65.5 55.5332V58.3333C65.5 58.6579 65.3947 58.9737 65.2 59.2333L64.1562 60.625C63.9665 60.878 64.0057 61.2348 64.2457 61.4406L66.9762 63.781C67.3087 64.066 67.5 64.482 67.5 64.9199V69H68.5V64.9199C68.5 64.1901 68.1811 63.4967 67.627 63.0217L65.1811 60.9252L66 59.8333C66.3246 59.4006 66.5 58.8743 66.5 58.3333V55.4668L66.122 52.6318C65.7012 49.476 64.2535 46.5464 62.0022 44.2951L61.9393 44.2322C61.4705 43.7634 60.8346 43.5 60.1716 43.5H56.3033C55.0246 43.5 53.7803 43.9147 52.7574 44.682C51.0116 45.9913 49.6483 47.7442 48.809 49.7585L48.2817 51.024C47.77 52.2521 47.4426 53.5491 47.3102 54.873L47.1081 56.8942C47.0255 57.7197 47.3579 58.5324 47.9952 59.0635L49.7301 60.5093L46.7557 63.1119C46.2854 63.5234 45.9862 64.0962 45.9172 64.7173L45.4478 68.9417L46.4417 69.0522L46.9111 64.8277C46.9525 64.455 47.132 64.1114 47.4142 63.8645L50.7411 60.9534C51.0187 60.7105 51.0135 60.277 50.7301 60.0409L48.6354 58.2953C48.253 57.9766 48.0536 57.489 48.1031 56.9937L48.3052 54.9725C48.4278 53.7467 48.7309 52.5458 49.2047 51.4086L49.732 50.1431C50.5027 48.2936 51.7545 46.6842 53.3574 45.482Z" fill="#7C7D88"/>
<path fill-rule="evenodd" clip-rule="evenodd" d="M69 47V51H74V47H69ZM73 48H70V50H73V48Z" fill="#7C7D88"/>
<path fill-rule="evenodd" clip-rule="evenodd" d="M70 53H73V65H70V53ZM71 54H72V64H71V54Z" fill="#7C7D88"/>
<path fill-rule="evenodd" clip-rule="evenodd" d="M87 73C87 68.5817 90.5817 65 95 65V47C90.5817 47 87 43.4183 87 39H29C29 43.4183 25.4183 47 21 47V65C25.4183 65 29 68.5817 29 73H87ZM94 47.9451V64.0549C89.8284 64.5161 86.5161 67.8284 86.0549 72H29.9451C29.4839 67.8284 26.1716 64.5161 22 64.0549V47.9451C26.1716 47.4839 29.4839 44.1716 29.9451 40H86.0549C86.5161 44.1716 89.8284 47.4839 94 47.9451Z" fill="#7C7D88"/>
<path d="M19.5014 40.0909V43H18.8864V40.6747H18.8693L18.2031 41.0923V40.5469L18.9233 40.0909H19.5014Z" fill="#7C7D88"/>
<path fill-rule="evenodd" clip-rule="evenodd" d="M21.3335 43.0639C21.0891 43.063 20.8789 43.0028 20.7028 42.8835C20.5276 42.7642 20.3926 42.5914 20.2979 42.3651C20.2042 42.1387 20.1578 41.8665 20.1587 41.5483C20.1587 41.2311 20.2056 40.9607 20.2994 40.7372C20.3941 40.5137 20.529 40.3438 20.7042 40.2273C20.8803 40.1098 21.0901 40.0511 21.3335 40.0511C21.5768 40.0511 21.7861 40.1098 21.9613 40.2273C22.1374 40.3447 22.2728 40.5152 22.3675 40.7386C22.4622 40.9612 22.5091 41.2311 22.5082 41.5483C22.5082 41.8674 22.4608 42.1402 22.3661 42.3665C22.2724 42.5928 22.1379 42.7656 21.9627 42.8849C21.7875 43.0043 21.5778 43.0639 21.3335 43.0639ZM21.3335 42.554C21.5001 42.554 21.6332 42.4702 21.7326 42.3026C21.832 42.1349 21.8813 41.8835 21.8803 41.5483C21.8803 41.3277 21.8576 41.1439 21.8121 40.9972C21.7676 40.8504 21.7042 40.7401 21.6218 40.6662C21.5404 40.5923 21.4442 40.5554 21.3335 40.5554C21.1677 40.5554 21.0352 40.6383 20.9357 40.804C20.8363 40.9697 20.7861 41.2178 20.7852 41.5483C20.7852 41.7718 20.8074 41.9583 20.8519 42.108C20.8974 42.2566 20.9613 42.3684 21.0437 42.4432C21.1261 42.517 21.2227 42.554 21.3335 42.554Z" fill="#7C7D88"/>
<path fill-rule="evenodd" clip-rule="evenodd" d="M24.0874 43.0639C23.843 43.063 23.6328 43.0028 23.4567 42.8835C23.2815 42.7642 23.1465 42.5914 23.0518 42.3651C22.9581 42.1387 22.9117 41.8665 22.9126 41.5483C22.9126 41.2311 22.9595 40.9607 23.0533 40.7372C23.148 40.5137 23.2829 40.3438 23.4581 40.2273C23.6342 40.1098 23.844 40.0511 24.0874 40.0511C24.3307 40.0511 24.54 40.1098 24.7152 40.2273C24.8913 40.3447 25.0268 40.5152 25.1214 40.7386C25.2161 40.9612 25.263 41.2311 25.2621 41.5483C25.2621 41.8674 25.2147 42.1402 25.12 42.3665C25.0263 42.5928 24.8918 42.7656 24.7166 42.8849C24.5414 43.0043 24.3317 43.0639 24.0874 43.0639ZM24.0874 42.554C24.254 42.554 24.3871 42.4702 24.4865 42.3026C24.5859 42.1349 24.6352 41.8835 24.6342 41.5483C24.6342 41.3277 24.6115 41.1439 24.5661 40.9972C24.5215 40.8504 24.4581 40.7401 24.3757 40.6662C24.2943 40.5923 24.1982 40.5554 24.0874 40.5554C23.9216 40.5554 23.7891 40.6383 23.6896 40.804C23.5902 40.9697 23.54 41.2178 23.5391 41.5483C23.5391 41.7718 23.5613 41.9583 23.6058 42.108C23.6513 42.2566 23.7152 42.3684 23.7976 42.4432C23.88 42.517 23.9766 42.554 24.0874 42.554Z" fill="#7C7D88"/>
<path d="M19.5014 72V69.0909H18.9233L18.2031 69.5469V70.0923L18.8693 69.6747H18.8864V72H19.5014Z" fill="#7C7D88"/>
<path fill-rule="evenodd" clip-rule="evenodd" d="M20.7028 71.8835C20.8789 72.0028 21.0891 72.063 21.3335 72.0639C21.5778 72.0639 21.7875 72.0043 21.9627 71.8849C22.1379 71.7656 22.2724 71.5928 22.3661 71.3665C22.4608 71.1402 22.5082 70.8674 22.5082 70.5483C22.5091 70.2311 22.4622 69.9612 22.3675 69.7386C22.2728 69.5152 22.1374 69.3447 21.9613 69.2273C21.7861 69.1098 21.5768 69.0511 21.3335 69.0511C21.0901 69.0511 20.8803 69.1098 20.7042 69.2273C20.529 69.3438 20.3941 69.5137 20.2994 69.7372C20.2056 69.9607 20.1587 70.2311 20.1587 70.5483C20.1578 70.8665 20.2042 71.1387 20.2979 71.3651C20.3926 71.5914 20.5276 71.7642 20.7028 71.8835ZM21.7326 71.3026C21.6332 71.4702 21.5001 71.554 21.3335 71.554C21.2227 71.554 21.1261 71.517 21.0437 71.4432C20.9613 71.3684 20.8974 71.2566 20.8519 71.108C20.8074 70.9583 20.7852 70.7718 20.7852 70.5483C20.7861 70.2178 20.8363 69.9697 20.9357 69.804C21.0352 69.6383 21.1677 69.5554 21.3335 69.5554C21.4442 69.5554 21.5404 69.5923 21.6218 69.6662C21.7042 69.7401 21.7676 69.8504 21.8121 69.9972C21.8576 70.1439 21.8803 70.3277 21.8803 70.5483C21.8813 70.8835 21.832 71.1349 21.7326 71.3026Z" fill="#7C7D88"/>
<path fill-rule="evenodd" clip-rule="evenodd" d="M23.4567 71.8835C23.6328 72.0028 23.843 72.063 24.0874 72.0639C24.3317 72.0639 24.5414 72.0043 24.7166 71.8849C24.8918 71.7656 25.0263 71.5928 25.12 71.3665C25.2147 71.1402 25.2621 70.8674 25.2621 70.5483C25.263 70.2311 25.2161 69.9612 25.1214 69.7386C25.0268 69.5152 24.8913 69.3447 24.7152 69.2273C24.54 69.1098 24.3307 69.0511 24.0874 69.0511C23.844 69.0511 23.6342 69.1098 23.4581 69.2273C23.2829 69.3438 23.148 69.5137 23.0533 69.7372C22.9595 69.9607 22.9126 70.2311 22.9126 70.5483C22.9117 70.8665 22.9581 71.1387 23.0518 71.3651C23.1465 71.5914 23.2815 71.7642 23.4567 71.8835ZM24.4865 71.3026C24.3871 71.4702 24.254 71.554 24.0874 71.554C23.9766 71.554 23.88 71.517 23.7976 71.4432C23.7152 71.3684 23.6513 71.2566 23.6058 71.108C23.5613 70.9583 23.5391 70.7718 23.5391 70.5483C23.54 70.2178 23.5902 69.9697 23.6896 69.804C23.7891 69.6383 23.9216 69.5554 24.0874 69.5554C24.1982 69.5554 24.2943 69.5923 24.3757 69.6662C24.4581 69.7401 24.5215 69.8504 24.5661 69.9972C24.6115 70.1439 24.6342 70.3277 24.6342 70.5483C24.6352 70.8835 24.5859 71.1349 24.4865 71.3026Z" fill="#7C7D88"/>
<path d="M92.5014 69.0909V72H91.8864V69.6747H91.8693L91.2031 70.0923V69.5469L91.9233 69.0909H92.5014Z" fill="#7C7D88"/>
<path fill-rule="evenodd" clip-rule="evenodd" d="M94.3335 72.0639C94.0891 72.063 93.8789 72.0028 93.7028 71.8835C93.5276 71.7642 93.3926 71.5914 93.2979 71.3651C93.2042 71.1387 93.1578 70.8665 93.1587 70.5483C93.1587 70.2311 93.2056 69.9607 93.2994 69.7372C93.3941 69.5137 93.529 69.3438 93.7042 69.2273C93.8803 69.1098 94.0901 69.0511 94.3335 69.0511C94.5768 69.0511 94.7861 69.1098 94.9613 69.2273C95.1374 69.3447 95.2728 69.5152 95.3675 69.7386C95.4622 69.9612 95.5091 70.2311 95.5082 70.5483C95.5082 70.8674 95.4608 71.1402 95.3661 71.3665C95.2724 71.5928 95.1379 71.7656 94.9627 71.8849C94.7875 72.0043 94.5778 72.0639 94.3335 72.0639ZM94.3335 71.554C94.5001 71.554 94.6332 71.4702 94.7326 71.3026C94.832 71.1349 94.8813 70.8835 94.8803 70.5483C94.8803 70.3277 94.8576 70.1439 94.8121 69.9972C94.7676 69.8504 94.7042 69.7401 94.6218 69.6662C94.5404 69.5923 94.4442 69.5554 94.3335 69.5554C94.1677 69.5554 94.0352 69.6383 93.9357 69.804C93.8363 69.9697 93.7861 70.2178 93.7852 70.5483C93.7852 70.7718 93.8074 70.9583 93.8519 71.108C93.8974 71.2566 93.9613 71.3684 94.0437 71.4432C94.1261 71.517 94.2227 71.554 94.3335 71.554Z" fill="#7C7D88"/>
<path fill-rule="evenodd" clip-rule="evenodd" d="M97.0874 72.0639C96.843 72.063 96.6328 72.0028 96.4567 71.8835C96.2815 71.7642 96.1465 71.5914 96.0518 71.3651C95.9581 71.1387 95.9117 70.8665 95.9126 70.5483C95.9126 70.2311 95.9595 69.9607 96.0533 69.7372C96.148 69.5137 96.2829 69.3438 96.4581 69.2273C96.6342 69.1098 96.844 69.0511 97.0874 69.0511C97.3307 69.0511 97.54 69.1098 97.7152 69.2273C97.8913 69.3447 98.0267 69.5152 98.1215 69.7386C98.2161 69.9612 98.263 70.2311 98.2621 70.5483C98.2621 70.8674 98.2147 71.1402 98.12 71.3665C98.0263 71.5928 97.8918 71.7656 97.7166 71.8849C97.5414 72.0043 97.3317 72.0639 97.0874 72.0639ZM97.0874 71.554C97.254 71.554 97.3871 71.4702 97.4865 71.3026C97.5859 71.1349 97.6352 70.8835 97.6342 70.5483C97.6342 70.3277 97.6115 70.1439 97.566 69.9972C97.5215 69.8504 97.4581 69.7401 97.3757 69.6662C97.2943 69.5923 97.1982 69.5554 97.0874 69.5554C96.9216 69.5554 96.7891 69.6383 96.6896 69.804C96.5902 69.9697 96.54 70.2178 96.5391 70.5483C96.5391 70.7718 96.5613 70.9583 96.6058 71.108C96.6513 71.2566 96.7152 71.3684 96.7976 71.4432C96.88 71.517 96.9766 71.554 97.0874 71.554Z" fill="#7C7D88"/>
<path d="M92.5014 43V40.0909H91.9233L91.2031 40.5469V41.0923L91.8693 40.6747H91.8864V43H92.5014Z" fill="#7C7D88"/>
<path fill-rule="evenodd" clip-rule="evenodd" d="M93.7028 42.8835C93.8789 43.0028 94.0891 43.063 94.3335 43.0639C94.5778 43.0639 94.7875 43.0043 94.9627 42.8849C95.1379 42.7656 95.2724 42.5928 95.3661 42.3665C95.4608 42.1402 95.5082 41.8674 95.5082 41.5483C95.5091 41.2311 95.4622 40.9612 95.3675 40.7386C95.2728 40.5152 95.1374 40.3447 94.9613 40.2273C94.7861 40.1098 94.5768 40.0511 94.3335 40.0511C94.0901 40.0511 93.8803 40.1098 93.7042 40.2273C93.529 40.3438 93.3941 40.5137 93.2994 40.7372C93.2056 40.9607 93.1587 41.2311 93.1587 41.5483C93.1578 41.8665 93.2042 42.1387 93.2979 42.3651C93.3926 42.5914 93.5276 42.7642 93.7028 42.8835ZM94.7326 42.3026C94.6332 42.4702 94.5001 42.554 94.3335 42.554C94.2227 42.554 94.1261 42.517 94.0437 42.4432C93.9613 42.3684 93.8974 42.2566 93.8519 42.108C93.8074 41.9583 93.7852 41.7718 93.7852 41.5483C93.7861 41.2178 93.8363 40.9697 93.9357 40.804C94.0352 40.6383 94.1677 40.5554 94.3335 40.5554C94.4442 40.5554 94.5404 40.5923 94.6218 40.6662C94.7042 40.7401 94.7676 40.8504 94.8121 40.9972C94.8576 41.1439 94.8803 41.3277 94.8803 41.5483C94.8813 41.8835 94.832 42.1349 94.7326 42.3026Z" fill="#7C7D88"/>
<path fill-rule="evenodd" clip-rule="evenodd" d="M96.4567 42.8835C96.6328 43.0028 96.843 43.063 97.0874 43.0639C97.3317 43.0639 97.5414 43.0043 97.7166 42.8849C97.8918 42.7656 98.0263 42.5928 98.12 42.3665C98.2147 42.1402 98.2621 41.8674 98.2621 41.5483C98.263 41.2311 98.2161 40.9612 98.1215 40.7386C98.0267 40.5152 97.8913 40.3447 97.7152 40.2273C97.54 40.1098 97.3307 40.0511 97.0874 40.0511C96.844 40.0511 96.6342 40.1098 96.4581 40.2273C96.2829 40.3438 96.148 40.5137 96.0533 40.7372C95.9595 40.9607 95.9126 41.2311 95.9126 41.5483C95.9117 41.8665 95.9581 42.1387 96.0518 42.3651C96.1465 42.5914 96.2815 42.7642 96.4567 42.8835ZM97.4865 42.3026C97.3871 42.4702 97.254 42.554 97.0874 42.554C96.9766 42.554 96.88 42.517 96.7976 42.4432C96.7152 42.3684 96.6513 42.2566 96.6058 42.108C96.5613 41.9583 96.5391 41.7718 96.5391 41.5483C96.54 41.2178 96.5902 40.9697 96.6896 40.804C96.7891 40.6383 96.9216 40.5554 97.0874 40.5554C97.1982 40.5554 97.2943 40.5923 97.3757 40.6662C97.4581 40.7401 97.5215 40.8504 97.566 40.9972C97.6115 41.1439 97.6342 41.3277 97.6342 41.5483C97.6352 41.8835 97.5859 42.1349 97.4865 42.3026Z" fill="#7C7D88"/>
<path fill-rule="evenodd" clip-rule="evenodd" d="M16 34V78H100V34H16ZM99 35H17V77H99V35Z" fill="#7C7D88"/>
<path fill-rule="evenodd" clip-rule="evenodd" d="M14 32V80H102V32H14ZM101 33H15V79H101V33Z" fill="#7C7D88"/>
</svg>
