<svg width="112" height="112" viewBox="0 0 112 112" fill="none" xmlns="http://www.w3.org/2000/svg">
<path d="M56 34C57.8658 34 59.3784 32.4874 59.3784 30.6216C59.3784 28.7558 57.8658 27.2432 56 27.2432C54.1342 27.2432 52.6216 28.7558 52.6216 30.6216H49.9189C49.9189 27.2631 52.6415 24.5405 56 24.5405C59.3585 24.5405 62.0811 27.2631 62.0811 30.6216C62.0811 33.7517 59.7162 36.3295 56.6757 36.6656V40.0811H53.973V36.027C53.973 34.9075 54.8805 34 56 34Z" fill="#7C7D88"/>
<path d="M53.973 43.7973V41.4324H56.6757V43.7973H53.973Z" fill="#7C7D88"/>
<path fill-rule="evenodd" clip-rule="evenodd" d="M56 48.8649C64.2096 48.8649 70.8649 42.2096 70.8649 34C70.8649 25.7904 64.2096 19.1351 56 19.1351C47.7904 19.1351 41.1351 25.7904 41.1351 34C41.1351 42.2096 47.7904 48.8649 56 48.8649ZM56 46.1622C62.717 46.1622 68.1622 40.717 68.1622 34C68.1622 27.283 62.717 21.8378 56 21.8378C49.283 21.8378 43.8378 27.283 43.8378 34C43.8378 40.717 49.283 46.1622 56 46.1622Z" fill="#7C7D88"/>
<path fill-rule="evenodd" clip-rule="evenodd" d="M79.75 39H76.6584C76.3025 40.476 75.7925 41.8919 75.1463 43.2297C74.6468 44.2642 74.7863 45.5192 75.5987 46.3315L76.2925 47.0254C76.7807 47.5135 76.7807 48.305 76.2925 48.7932L70.9892 54.0965C70.5011 54.5846 69.7096 54.5846 69.2215 54.0965L68.5941 53.4691C67.7729 52.6479 66.5009 52.5149 65.4614 53.0327C64.6334 53.4451 63.7747 53.8051 62.8896 54.1083C61.797 54.4825 61 55.4722 61 56.6272V57.75C61 58.4404 60.4404 59 59.75 59H52.25C51.5596 59 51 58.4404 51 57.75V56.6272C51 55.4722 50.203 54.4825 49.1104 54.1083C48.3076 53.8333 47.5265 53.5115 46.7703 53.1463C45.7358 52.6468 44.4808 52.7863 43.6685 53.5987L42.9746 54.2925C42.4865 54.7807 41.695 54.7807 41.2068 54.2925L35.9035 48.9892C35.4154 48.5011 35.4154 47.7096 35.9035 47.2215L36.5309 46.5941C37.3521 45.7729 37.485 44.5009 36.9673 43.4614C36.5549 42.6334 36.1949 41.7747 35.8918 40.8896C35.5175 39.797 34.5278 39 33.3728 39H32.25C31.5596 39 31 38.4404 31 37.75V30.25C31 29.5596 31.5596 29 32.25 29H33.3728C34.5278 29 35.5175 28.203 35.8918 27.1104C36.1949 26.2253 36.5549 25.3666 36.9673 24.5386C37.485 23.4991 37.3521 22.2271 36.5309 21.4059L35.6339 20.5089C35.1457 20.0207 35.1457 19.2293 35.6339 18.7411L40.9372 13.4378C41.4253 12.9497 42.2168 12.9497 42.705 13.4378L43.6685 14.4014C44.4808 15.2137 45.7358 15.3533 46.7703 14.8537C47.5265 14.4885 48.3076 14.1667 49.1104 13.8918C50.203 13.5175 51 12.5278 51 11.3728V10.25C51 9.55964 51.5596 9 52.25 9H59.75C60.4404 9 61 9.55964 61 10.25V11.3728C61 12.5278 61.797 13.5175 62.8896 13.8917C63.7747 14.1949 64.6334 14.5549 65.4614 14.9673C66.5009 15.485 67.7729 15.3521 68.5941 14.5309L69.4911 13.6339C69.9793 13.1457 70.7707 13.1457 71.2589 13.6339L76.5622 18.9372C77.0503 19.4253 77.0503 20.2168 76.5622 20.705L75.5987 21.6685C74.7863 22.4808 74.6468 23.7358 75.1463 24.7703C75.5115 25.5265 75.8333 26.3076 76.1083 27.1104C76.4825 28.203 77.4722 29 78.6272 29H79.75C80.4404 29 81 29.5596 81 30.25V37.75C81 38.4404 80.4404 39 79.75 39ZM78.2973 36.2973H74.53L74.0311 38.3664C73.7207 39.6531 73.2761 40.8875 72.7126 42.0544C71.8385 43.8643 71.943 46.1898 73.369 47.8945L70.0841 51.1794C68.3665 49.7944 66.0501 49.7201 64.2564 50.6135C63.5342 50.9732 62.7854 51.2871 62.0138 51.5514C60.0627 52.2197 58.4495 54.0024 58.3075 56.2973H53.6925C53.5505 54.0024 51.9373 52.2197 49.9862 51.5514C49.2864 51.3117 48.6052 51.0311 47.9456 50.7126C46.1357 49.8385 43.8102 49.943 42.1055 51.369L38.8206 48.0841C40.2056 46.3665 40.2799 44.0501 39.3865 42.2564C39.0268 41.5342 38.7129 40.7854 38.4486 40.0138C37.7803 38.0627 35.9976 36.4495 33.7027 36.3075V31.6925C35.9976 31.5505 37.7803 29.9373 38.4486 27.9862C38.7129 27.2146 39.0268 26.4658 39.3865 25.7436C40.331 23.8473 40.194 21.3667 38.57 19.6272L41.8216 16.3756C43.5448 18.042 46.033 18.2111 47.9457 17.2874C48.6052 16.9689 49.2864 16.6883 49.9862 16.4486C51.9373 15.7803 53.5505 13.9976 53.6925 11.7027H58.3075C58.4495 13.9976 60.0627 15.7803 62.0138 16.4486C62.7854 16.7129 63.5342 17.0268 64.2564 17.3865C66.1527 18.331 68.6333 18.194 70.3728 16.57L73.6244 19.8216C71.958 21.5448 71.7889 24.033 72.7126 25.9456C73.0311 26.6052 73.3117 27.2864 73.5514 27.9862C74.2197 29.9373 76.0024 31.5505 78.2973 31.6925V36.2973Z" fill="#7C7D88"/>
<path fill-rule="evenodd" clip-rule="evenodd" d="M88.0299 68.8746C89.433 67.1962 90.2768 65.0383 90.2768 62.6842C90.2768 57.3358 85.921 53 80.5477 53C75.1745 53 70.8186 57.3358 70.8186 62.6842C70.8186 66.2517 72.7565 69.3686 75.6417 71.0489L65.0829 72.9021V68.4947C65.0829 66.6228 63.5584 65.1053 61.6777 65.1053H52.7405C50.8599 65.1053 49.3353 66.6228 49.3353 68.4947V75.666L37.0206 77.8274C38.0881 76.2731 38.7125 74.3933 38.7125 72.3684C38.7125 67.02 34.3566 62.6842 28.9833 62.6842C23.6101 62.6842 19.2542 67.02 19.2542 72.3684C19.2542 75.6081 20.8524 78.4763 23.3069 80.2343L15.1431 81.6672C14.2758 81.8194 13.6194 82.5325 13.5426 83.4058L13.0076 89.4923C12.8966 90.756 14.0155 91.7831 15.2719 91.5707L48.7363 85.913L46.6154 94.8296C46.1091 96.9584 47.7312 99 49.929 99H65.2735C67.5603 99 69.1971 96.801 68.5311 94.6235L65.0829 83.3481V83.1493L94.799 78.1253C95.6718 77.9778 96.3345 77.2625 96.4116 76.3847L96.9924 69.7773C97.1039 68.5086 95.9761 67.4799 94.7161 67.7011L88.0299 68.8746ZM80.5477 69.4632C84.309 69.4632 87.3581 66.4281 87.3581 62.6842C87.3581 58.9403 84.309 55.9053 80.5477 55.9053C76.7864 55.9053 73.7373 58.9403 73.7373 62.6842C73.7373 66.4281 76.7864 69.4632 80.5477 69.4632ZM65.0829 80.2024V75.8521L93.9742 70.7814L93.5695 75.3863L65.0829 80.2024ZM31.2193 81.7957L49.3353 78.6161V82.8648L16.025 88.4964L16.3852 84.3992L30.1432 81.9845C30.5085 81.9413 30.8676 81.878 31.2193 81.7957ZM30.614 78.9518C33.5878 78.2245 35.7937 75.5529 35.7937 72.3684C35.7937 68.6245 32.7446 65.5895 28.9833 65.5895C25.2221 65.5895 22.173 68.6245 22.173 72.3684C22.173 76.1123 25.2221 79.1474 28.9833 79.1474C29.235 79.1474 29.4835 79.1338 29.7281 79.1073L30.614 78.9518ZM52.7405 68.0105C52.4718 68.0105 52.2541 68.2273 52.2541 68.4947V83.7339L49.4556 95.499C49.3833 95.8031 49.615 96.0947 49.929 96.0947H65.2735C65.6002 96.0947 65.834 95.7806 65.7389 95.4695L62.1642 83.7805V68.4947C62.1642 68.2273 61.9464 68.0105 61.6777 68.0105H52.7405Z" fill="#7C7D88"/>
</svg>
