<svg width="112" height="112" viewBox="0 0 112 112" fill="none" xmlns="http://www.w3.org/2000/svg">
<rect width="112" height="112" fill="white"/>
<path fill-rule="evenodd" clip-rule="evenodd" d="M48.0015 28C48.0015 32.7005 45.0532 36.7123 40.905 38.2873L41.2541 38.3129C46.7414 38.7168 51.2511 42.8008 52.1953 48.2213L56.9743 75.6568C57.1874 76.8802 56.2457 78 55.0039 78H49.2558L51.292 99.72C51.457 101.48 50.0726 103 48.3051 103H25.1977C23.4302 103 22.0458 101.48 22.2108 99.72L24.247 78H19.0005C17.7587 78 16.8171 76.8802 17.0302 75.6568L21.8092 48.2213C22.7534 42.8008 27.263 38.7168 32.7503 38.3129L33.0981 38.2873C28.9498 36.7125 26.0015 32.7006 26.0015 28C26.0015 21.9249 30.9263 17 37.0015 17C43.0766 17 48.0015 21.9249 48.0015 28ZM37.0015 37C41.972 37 46.0015 32.9706 46.0015 28C46.0015 23.0294 41.972 19 37.0015 19C32.0309 19 28.0015 23.0294 28.0015 28C28.0015 32.9706 32.0309 37 37.0015 37ZM24.4345 76L26.5058 53.9067C26.5573 53.3568 27.0449 52.9528 27.5947 53.0044C28.1446 53.0559 28.5486 53.5435 28.497 54.0933L27.4745 65H46.0283L45.0058 54.0933C44.9542 53.5435 45.3582 53.0559 45.9081 53.0044C46.4579 52.9528 46.9455 53.3568 46.997 53.9067L49.0683 76H55.0039L50.225 48.5645C49.4381 44.0474 45.6801 40.6441 41.1073 40.3075L37.0022 40.0054L32.8971 40.3075C28.3244 40.6441 24.5664 44.0474 23.7795 48.5645L19.0005 76H24.4345ZM24.202 99.9067L27.287 67H46.2158L49.3008 99.9067C49.3558 100.493 48.8943 101 48.3051 101H38.0014V80C38.0014 79.4477 37.5537 79 37.0014 79C36.4491 79 36.0014 79.4477 36.0014 80V101H25.1977C24.6085 101 24.147 100.493 24.202 99.9067Z" fill="#7C7D88"/>
<path fill-rule="evenodd" clip-rule="evenodd" d="M77.0015 28C77.0015 32.7005 74.0532 36.7123 69.905 38.2873L70.2541 38.3129C75.7414 38.7168 80.2511 42.8008 81.1953 48.2213L85.9743 75.6568C86.1874 76.8802 85.2457 78 84.0039 78H78.2558L80.037 97H78.0283L75.2158 67H59.9399L59.6205 65H75.0283L74.0058 54.0933C73.9542 53.5435 74.3582 53.0559 74.9081 53.0044C75.4579 52.9528 75.9455 53.3568 75.997 53.9067L78.0683 76H84.0039L79.225 48.5645C78.4381 44.0474 74.6801 40.6441 70.1073 40.3075L66.0022 40.0054L61.8971 40.3075C59.6798 40.4707 57.654 41.3551 56.0656 42.7378L55.7052 40.4807C57.4413 39.2529 59.5147 38.4775 61.7503 38.3129L62.0981 38.2873C57.9498 36.7125 55.0015 32.7006 55.0015 28C55.0015 21.9249 59.9263 17 66.0015 17C72.0766 17 77.0015 21.9249 77.0015 28ZM67.0014 97V80C67.0014 79.4477 66.5537 79 66.0014 79C65.4491 79 65.0014 79.4477 65.0014 80V97H67.0014ZM66.0015 37C70.972 37 75.0015 32.9706 75.0015 28C75.0015 23.0294 70.972 19 66.0015 19C61.0309 19 57.0015 23.0294 57.0015 28C57.0015 32.9706 61.0309 37 66.0015 37Z" fill="#7C7D88"/>
<path fill-rule="evenodd" clip-rule="evenodd" d="M52 10H93V102H62V104H93H95V102V10V8H93H52H50V10V15H52V10Z" fill="#7C7D88"/>
<path d="M87.4057 13.1562L90.5001 17" stroke="#7C7D88" stroke-width="2" stroke-linecap="round"/>
<path d="M82.4057 17.1562L85.5001 21" stroke="#7C7D88" stroke-width="2" stroke-linecap="round"/>
<line x1="83.4056" y1="13.1562" x2="90.1562" y2="21.5944" stroke="#7C7D88" stroke-width="2" stroke-linecap="round"/>
</svg>
