<svg width="112" height="112" viewBox="0 0 112 112" fill="none" xmlns="http://www.w3.org/2000/svg">
<rect width="112" height="112" fill="white"/>
<path d="M55.9415 21.5C55.5111 21.5 55.1289 21.7754 54.9928 22.1838L52.9487 28.3162C52.774 28.8402 52.2077 29.1233 51.6838 28.9487C51.1598 28.774 50.8767 28.2077 51.0513 27.6838L53.0955 21.5513C53.5038 20.3263 54.6502 19.5 55.9415 19.5H59.1459C60.3726 19.5 61.4758 20.2469 61.9314 21.3858L64.4285 27.6286C64.6336 28.1414 64.3842 28.7234 63.8714 28.9285C63.3586 29.1336 62.7766 28.8842 62.5715 28.3714L60.0744 22.1286C59.9225 21.749 59.5548 21.5 59.1459 21.5H55.9415Z" fill="#7C7D88"/>
<path d="M30 53C29.4477 53 29 53.4477 29 54C29 54.5523 29.4477 55 30 55H40V64C40 64.5523 40.4477 65 41 65C41.5523 65 42 64.5523 42 64V55H50C50.5523 55 51 54.5523 51 54C51 53.4477 50.5523 53 50 53H42V44C42 43.4477 41.5523 43 41 43C40.4477 43 40 43.4477 40 44V53H30Z" fill="#7C7D88"/>
<path d="M68 42C66.3431 42 65 43.3431 65 45V57C65 58.6569 66.3431 60 68 60H88.5C89.0523 60 89.5 59.5523 89.5 59C89.5 58.4477 89.0523 58 88.5 58H68C67.4477 58 67 57.5523 67 57V45C67 44.4477 67.4477 44 68 44H73.5C74.0523 44 74.5 43.5523 74.5 43C74.5 42.4477 74.0523 42 73.5 42H68Z" fill="#7C7D88"/>
<path fill-rule="evenodd" clip-rule="evenodd" d="M91.9109 82H102C103.105 82 104 81.1046 104 80V61.8284C104 61.298 103.789 60.7893 103.414 60.4142L96 53L79.7132 37.7003C79.5718 37.5675 79.4118 37.4559 79.2383 37.3692L70.9223 33.2111C70.6446 33.0723 70.3384 33 70.0279 33H15C13.8954 33 13 33.8954 13 35V80C13 81.1046 13.8954 82 15 82H24.0098C24.2723 88.6718 29.7639 94 36.5 94C43.2361 94 48.7277 88.6718 48.9902 82H67.0891C67.8301 88.1963 73.1041 93 79.5 93C85.8959 93 91.1699 88.1963 91.9109 82ZM70.0279 35H15L15 80H24.0891C24.8301 73.8037 30.1041 69 36.5 69C42.8959 69 48.1699 73.8037 48.9109 80H67.0098C67.2723 73.3282 72.7639 68 79.5 68C86.2361 68 91.7277 73.3282 91.9902 80H102V61.8284L94.6079 54.4364L78.3439 39.158L70.0279 35ZM89.8937 82C89.9637 81.5101 90 81.0093 90 80.5C90 80.3324 89.9961 80.1657 89.9883 80C89.7273 74.4332 85.1314 70 79.5 70C73.8686 70 69.2727 74.4332 69.0117 80C69.0039 80.1657 69 80.3324 69 80.5C69 81.0093 69.0363 81.5101 69.1063 82C69.8342 87.0884 74.2103 91 79.5 91C84.7897 91 89.1658 87.0884 89.8937 82ZM36.5 92C30.8686 92 26.2727 87.5668 26.0117 82C26.0039 81.8343 26 81.6676 26 81.5C26 81.3324 26.0039 81.1657 26.0117 81C26.2727 75.4332 30.8686 71 36.5 71C42.1314 71 46.7273 75.4332 46.9883 81C46.9961 81.1657 47 81.3324 47 81.5C47 81.6676 46.9961 81.8343 46.9883 82C46.7273 87.5668 42.1314 92 36.5 92Z" fill="#7C7D88"/>
</svg>
