<svg width="112" height="112" viewBox="0 0 112 112" fill="none" xmlns="http://www.w3.org/2000/svg">
<rect width="112" height="112" fill="white"/>
<path d="M16.5 17.5V96H89.5" stroke="#7C7D88" stroke-width="2" stroke-linecap="round"/>
<line x1="17" y1="25" x2="23" y2="25" stroke="#7C7D88" stroke-width="2" stroke-linecap="round"/>
<line x1="17" y1="34" x2="23" y2="34" stroke="#7C7D88" stroke-width="2" stroke-linecap="round"/>
<line x1="17" y1="43" x2="23" y2="43" stroke="#7C7D88" stroke-width="2" stroke-linecap="round"/>
<line x1="17" y1="52" x2="23" y2="52" stroke="#7C7D88" stroke-width="2" stroke-linecap="round"/>
<line x1="17" y1="61" x2="23" y2="61" stroke="#7C7D88" stroke-width="2" stroke-linecap="round"/>
<line x1="17" y1="70" x2="23" y2="70" stroke="#7C7D88" stroke-width="2" stroke-linecap="round"/>
<line x1="17" y1="79" x2="23" y2="79" stroke="#7C7D88" stroke-width="2" stroke-linecap="round"/>
<line x1="17" y1="88" x2="23" y2="88" stroke="#7C7D88" stroke-width="2" stroke-linecap="round"/>
<circle cx="33" cy="78" r="2" fill="#7C7D88"/>
<circle cx="40" cy="73" r="2" fill="#7C7D88"/>
<circle cx="71" cy="51" r="2" fill="#7C7D88"/>
<circle cx="77" cy="46" r="2" fill="#7C7D88"/>
<circle cx="83" cy="41" r="2" fill="#7C7D88"/>
<circle cx="63" cy="55" r="2" fill="#7C7D88"/>
<circle cx="55" cy="61" r="2" fill="#7C7D88"/>
<circle cx="47" cy="69" r="2" fill="#7C7D88"/>
</svg>
