<svg width="112" height="112" viewBox="0 0 112 112" fill="none" xmlns="http://www.w3.org/2000/svg">
<rect width="112" height="112" fill="white"/>
<path fill-rule="evenodd" clip-rule="evenodd" d="M58.0288 61.2653C52.8857 67.4359 47.3028 72.1311 42.4994 74.766C40.0919 76.0866 37.9745 76.8376 36.269 77.0564C34.5671 77.2747 33.482 76.9461 32.8116 76.3873C32.1412 75.8285 31.6225 74.8204 31.5307 73.107C31.4387 71.39 31.796 69.1719 32.6613 66.566C32.8437 66.0166 33.0472 65.4545 33.2714 64.8812C32.7728 64.2585 32.317 63.6107 31.9046 62.9421C28.9738 69.7933 28.6149 75.493 31.5311 77.9237C36.49 82.0569 49.0413 75.172 59.5652 62.5459C70.0891 49.9197 74.6004 36.3335 69.6415 32.2003C66.8847 29.9025 61.7815 31.0099 55.9846 34.6159C48.2551 31.4267 39.0389 33.4775 33.45 40.271C26.5951 48.6034 27.7928 60.9153 36.1252 67.7703C47.5491 60.7799 56.2918 50.1528 60.9493 37.5958C60.0526 36.8581 59.1097 36.2136 58.1326 35.6613C58.3138 35.5573 58.4941 35.4562 58.6732 35.3579C61.0806 34.0373 63.1981 33.2863 64.9035 33.0675C66.6054 32.8492 67.6905 33.1778 68.361 33.7366C69.0314 34.2954 69.5501 35.3036 69.6419 37.0169C69.7339 38.7339 69.3766 40.952 68.5113 43.558C66.7848 48.7574 63.172 55.0948 58.0288 61.2653ZM34.9945 41.5416C29.146 48.6507 29.8277 58.9869 36.3321 65.2768C46.3477 58.7901 54.1078 49.3575 58.5424 38.2794C51.1169 33.1093 40.8431 34.4325 34.9945 41.5416ZM75.692 50.319C75.2608 49.9738 74.6315 50.0435 74.2863 50.4746C73.9412 50.9057 74.0108 51.535 74.442 51.8802L81.3403 57.4034C81.7715 57.7485 82.4008 57.6789 82.746 57.2477C83.0911 56.8166 83.0215 56.1873 82.5903 55.8421L75.692 50.319ZM66.7911 68.524C67.1468 68.1014 67.7776 68.0472 68.2001 68.4028L74.9613 74.0931C75.3838 74.4488 75.4381 75.0796 75.0825 75.5021C74.7268 75.9247 74.096 75.9789 73.6735 75.6233L66.9123 69.933C66.4898 69.5774 66.4355 68.9465 66.7911 68.524ZM53.2409 79.1035C52.8507 78.7126 52.2175 78.7121 51.8267 79.1023C51.4358 79.4925 51.4353 80.1257 51.8255 80.5165L58.069 86.7704C58.4592 87.1613 59.0924 87.1618 59.4833 86.7716C59.8741 86.3814 59.8746 85.7482 59.4844 85.3574L53.2409 79.1035Z" fill="#7C7D88"/>
</svg>
