<svg width="112" height="112" viewBox="0 0 112 112" fill="none" xmlns="http://www.w3.org/2000/svg">
<rect width="112" height="112" fill="white"/>
<path d="M71.0001 49.4249H70.0001V50.4249H69.0001V49.4249H68.0001V48.4249H69.0001V47.4249H70.0001V48.4249H71.0001V49.4249Z" fill="#7C7D88"/>
<path fill-rule="evenodd" clip-rule="evenodd" d="M69.5001 52.4249C67.5671 52.4249 66.0001 50.8579 66.0001 48.9249C66.0001 46.992 67.5671 45.4249 69.5001 45.4249C71.4331 45.4249 73.0001 46.992 73.0001 48.9249C73.0001 50.8579 71.4331 52.4249 69.5001 52.4249ZM69.5001 51.4249C68.1194 51.4249 67.0001 50.3057 67.0001 48.9249C67.0001 47.5442 68.1194 46.4249 69.5001 46.4249C70.8808 46.4249 72.0001 47.5442 72.0001 48.9249C72.0001 50.3057 70.8808 51.4249 69.5001 51.4249Z" fill="#7C7D88"/>
<path fill-rule="evenodd" clip-rule="evenodd" d="M61.0558 48.6956L60.7931 49.0973L61.2429 49.3537L62.5001 49.925L63.669 50.8093L63.7379 50.8931C67.3748 55.3093 74.2427 54.9624 77.4162 50.2023L77.5001 49.925L77.4553 49.718L77.1732 49.0973C74.0767 42.2851 64.4878 42.0461 61.0558 48.6956ZM76.2628 49.5112C73.5772 43.6029 65.4819 43.2118 62.2581 48.6956L63.1702 49.0973L64.3313 50.0406L64.5099 50.2574C67.6617 54.0846 73.5626 53.8593 76.4276 49.8737L76.2628 49.5112Z" fill="#7C7D88"/>
<path d="M62.0311 42.4219C67.5953 37.785 75.8295 38.3758 80.6748 43.7594L81.418 43.0905C76.2132 37.3073 67.368 36.6727 61.3909 41.6536L60.5059 42.3912C57.997 44.4819 56.5464 47.579 56.5464 50.8449V59.7583L55.5464 63.4249L54.0464 66.4249H55.0255C56.8769 66.4249 58.5694 65.3789 59.3974 63.7229C59.4916 63.5344 59.4957 63.3135 59.4085 63.1217L57.5464 59.025V50.8449C57.5464 47.8758 58.8652 45.0602 61.1461 43.1594L62.0311 42.4219Z" fill="#7C7D88"/>
<path d="M29.1055 50.7319C28.9359 50.5139 28.9752 50.1998 29.1932 50.0303C29.4111 49.8607 29.7253 49.9 29.8948 50.118L30.1891 50.4964C33.3366 54.5431 39.4881 54.4338 42.4897 50.2777C42.6497 50.0562 42.9063 49.9249 43.1796 49.9249H45.0001C45.2763 49.9249 45.5001 50.1488 45.5001 50.4249C45.5001 50.7011 45.2763 50.9249 45.0001 50.9249H43.2554C39.8472 55.5609 32.941 55.6633 29.3998 51.1103L29.1055 50.7319Z" fill="#7C7D88"/>
<path d="M45.0154 42.4219C39.4512 37.785 31.217 38.3758 26.3718 43.7594L25.6285 43.0905C30.8333 37.3073 39.6785 36.6727 45.6556 41.6536L46.5407 42.3912C49.0495 44.4819 50.5001 47.579 50.5001 50.8449V59.7583L51.5001 63.4249L53.0001 66.4249H52.0211C50.1696 66.4249 48.4771 65.3789 47.6491 63.7229C47.5549 63.5344 47.5508 63.3135 47.638 63.1217L49.5001 59.025V50.8449C49.5001 47.8758 48.1814 45.0602 45.9005 43.1594L45.0154 42.4219Z" fill="#7C7D88"/>
<path fill-rule="evenodd" clip-rule="evenodd" d="M55.4481 12L52.9731 19.425C32.551 19.4396 16.0001 35.9994 16.0001 56.4249C16.0001 76.8178 32.498 93.3573 52.875 93.4247L58.1111 100.406L60.2445 95.6062L66.5001 98.734V91.7865L73.7443 95.9261L72.2843 89.5995L79.1207 94.4827L78.0511 84.8559L85.7607 83.828L83.2261 78.7588L91.5488 76.6782L87.5205 73.1534L94.506 71.1576L89.3799 66.5441L96.4143 63.0269L90.7705 58.4092L95.5019 54.2035L90.3688 52.6635L95.4047 46.6205L88.6655 45.0653L92.2172 35.4249H85.5001V27.2964L79.1832 28.7542L80.6405 22.925H75.5001V20.8421L68.8651 21.8629L67.2558 15.9622L63.6052 19.6128L59.9161 13.2886L57.9907 18.1023L55.4481 12ZM55.5522 14.8499L54.0226 19.4388C55.2219 19.4713 56.4069 19.561 57.5752 19.705L55.5522 14.8499ZM58.3831 19.8137C60.013 20.0513 61.6085 20.3951 63.1622 20.8379L60.0841 15.5613L58.3831 19.8137ZM63.6512 20.981C65.1536 21.4318 66.6158 21.9756 68.0311 22.6055L66.7444 17.8877L63.6512 20.981ZM74.5001 22.0078L68.682 22.9029C72.125 24.5163 75.2786 26.6445 78.0439 29.1885L79.3597 23.925H74.5001V22.0078ZM84.5001 28.5535L78.7709 29.8756C82.843 33.829 86.0086 38.7111 87.9259 44.1801L90.7831 36.4249H84.5001V28.5535ZM87.4069 45.8012C88.1136 48.0927 88.5977 50.4818 88.8339 52.9434L88.8625 53.2557C88.9536 54.3 89.0001 55.357 89.0001 56.4249C89.0001 59.85 88.5218 63.1633 87.6284 66.3018L87.6203 66.3058L87.6258 66.3107C85.0548 75.333 79.0526 82.9094 71.1201 87.5391L70.8222 87.711C69.1722 88.653 67.4404 89.4682 65.6402 90.1434L65.5001 90.1956C61.9027 91.5276 58.0342 92.3013 54.0001 92.4113V91.4109C72.8677 90.8816 88.0001 75.4205 88.0001 56.4249C88.0001 37.4294 72.8677 21.9683 54.0001 21.439V20.4386C69.7042 20.8669 82.9331 31.4674 87.4069 45.8012ZM93.5956 47.2294L88.5287 46.0601C89.0766 47.9412 89.4791 49.8842 89.7233 51.8761L93.5956 47.2294ZM93.4984 54.6464L89.8912 53.5643C89.9634 54.5084 90.0001 55.4624 90.0001 56.4249C90.0001 56.8778 89.992 57.3287 89.9759 57.7775L93.4984 54.6464ZM94.586 62.823L89.912 58.9989C89.7541 61.2974 89.3862 63.5382 88.8274 65.7023L94.586 62.823ZM92.4943 70.6923L88.4509 67.0533C87.8932 68.9163 87.1926 70.7176 86.3619 72.4444L92.4943 70.6923ZM86.0085 73.1592C85.2011 74.7487 84.2822 76.2721 83.2621 77.7191L89.4514 76.1717L86.0085 73.1592ZM84.2396 83.0219L82.2635 79.0697C80.921 80.8021 79.428 82.4121 77.8042 83.88L84.2396 83.0219ZM77.8795 92.3672L77.0137 84.5746C75.4526 85.9076 73.7793 87.113 72.0099 88.1746L77.8795 92.3672ZM72.256 93.9238L71.0568 88.7274C69.6763 89.5008 68.2411 90.1882 66.7585 90.7824L72.256 93.9238ZM65.5001 97.1159V91.2602C63.8826 91.8407 62.213 92.3117 60.5001 92.6644V94.6159L65.5001 97.1159ZM59.5001 94.8188V92.8559C57.744 93.1671 55.9452 93.3544 54.1128 93.4085L57.8891 98.4436L59.5001 94.8188ZM53.0001 92.4249C33.1179 92.4249 17.0001 76.3072 17.0001 56.4249C17.0001 36.5427 33.1179 20.425 53.0001 20.425V21.425C33.6702 21.425 18.0001 37.095 18.0001 56.4249C18.0001 75.7549 33.6702 91.4249 53.0001 91.4249V92.4249ZM54.0001 22.4394C72.3153 22.9684 87.0001 37.9818 87.0001 56.4249C87.0001 74.8681 72.3153 89.8815 54.0001 90.4105V82.9843C55.5492 83.1166 57.054 83.8651 58.1038 85.2298L58.8964 84.6201C57.6465 82.9952 55.8461 82.1155 54.0001 81.9811V79.7741C57.5116 78.4581 60.8664 75.9263 63.1702 72.9642L62.0001 72.425C59.6333 71.0725 57.1518 70.5573 54.4393 70.8285L54.0001 70.8725V22.4394ZM53.0001 81.9811V79.7741C49.4887 78.4581 45.804 75.8871 43.5001 72.925L44.7521 72.4908C47.1189 71.1383 49.8485 70.5573 52.561 70.8285L53.0001 70.8725V22.425C34.2225 22.425 19.0001 37.6473 19.0001 56.4249C19.0001 75.2026 34.2225 90.4249 53.0001 90.4249V82.9843C51.4511 83.1166 49.9462 83.8651 48.8964 85.2298L48.1038 84.6201C49.3538 82.9952 51.1542 82.1155 53.0001 81.9811ZM54.0001 78.7023V76.3422L55.5422 76.0619C57.3099 75.7405 59.0156 75.1557 60.6033 74.3303C58.7327 76.2242 56.4855 77.7151 54.0001 78.7023ZM54.0001 75.3258V71.8774L54.5388 71.8236C56.7622 71.6012 58.998 71.9988 61.0011 72.9642C59.2653 73.999 57.3561 74.7157 55.3633 75.078L54.0001 75.3258ZM53.0001 71.8774V75.3258L51.637 75.078C49.6442 74.7157 47.735 73.999 45.9991 72.9642C48.0023 71.9988 50.2381 71.6012 52.4615 71.8236L53.0001 71.8774ZM53.0001 76.3422V78.7023C50.5148 77.7151 48.2676 76.2242 46.397 74.3303C47.9847 75.1557 49.6903 75.7405 51.4581 76.0619L53.0001 76.3422Z" fill="#7C7D88"/>
</svg>
