<svg width="112" height="112" viewBox="0 0 112 112" fill="none" xmlns="http://www.w3.org/2000/svg">
<rect width="112" height="112" fill="white"/>
<path fill-rule="evenodd" clip-rule="evenodd" d="M31.2081 17.5C30.5209 17.5 29.8546 17.7359 29.3205 18.1683L28.5812 18.7667C25.3769 21.3606 24.4108 25.4726 25.5501 29H25.5V50.0826C21.5282 48.7119 17.2857 48.3062 13.1236 48.9008L12.8109 48.9454C11.9314 49.0711 11.4109 49.9973 11.7608 50.8139L13.2685 54.3318C14.2174 56.5458 16.1125 58.215 18.4286 58.8768C18.6548 58.9414 18.8825 58.9978 19.1111 59.046C18.0368 59.1402 16.972 59.4005 15.9555 59.8284L15.8288 59.8818C12.2577 61.3854 9.63645 64.5262 8.79588 68.3088C8.25562 70.7399 8.25562 73.2601 8.79588 75.6912L9.5243 78.9691C9.87379 80.5418 10.4148 82.0658 11.1354 83.5068L11.192 83.6202C12.5262 86.2884 14.5793 88.5307 17.12 90.0941C19.1448 91.3402 21.4758 92 23.8534 92H26.134C27.5231 94.4297 29.4216 96.53 31.699 98.1568L32.1835 98.5029L87.5179 98.0088C88.6154 97.999 89.5 97.1065 89.5 96.0089V32.2695L85.9098 32.2373C83.3402 30.3724 82.1 28.5522 82.2341 25.8355C82.2948 24.606 82.8035 23.4537 83.4014 22.3776L85 19.5H86C86.5523 19.5 87 19.0523 87 18.5V18.5C87 17.9477 86.5523 17.5 86 17.5H31.2081ZM87.5 34.2373H85.5463C85.2939 34.2373 85.5463 34.2373 85.2939 34.2373L30 34C29.2145 33.5137 28.0802 33.0253 27.5 32.3831V51.1795L28.5567 52.659L28.5806 51.9206C28.6068 51.1063 28.7406 50.293 29.0796 49.5522C30.5603 46.3165 33.2823 43.7878 36.6583 42.5602L37.3417 44.4398C34.1423 45.6032 31.6338 48.141 30.5076 51.3536L30.5068 51.3561L30.903 61.3706L33.0479 60.2317C35.8339 58.7525 39.1373 58.6044 42.0445 59.8284L42.1712 59.8818C45.7423 61.3854 48.3636 64.5262 49.2041 68.3088C49.7444 70.7399 49.7444 73.2601 49.2041 75.6912L48.4757 78.9691C48.1262 80.5418 47.5852 82.0658 46.8646 83.5068L46.808 83.6202C45.4738 86.2884 43.4207 88.5307 40.8801 90.0941C38.8552 91.3402 36.5242 92 34.1466 92H28.4828C29.6426 93.7456 31.1101 95.27 32.8166 96.4971L87.5 96.0089V34.2373ZM24.9521 60.2317C24.05 59.7527 23.0936 59.4133 22.1139 59.2148C23.6132 59.0714 25.0767 58.5885 26.387 57.7822L28.7031 56.3569L28.9401 62.3493L24.9521 60.2317ZM29.0304 64.6294L33.9858 61.9982C36.241 60.8007 38.9151 60.6809 41.2683 61.6717L41.3951 61.725C44.3689 62.9772 46.5518 65.5927 47.2517 68.7426C47.7285 70.888 47.7285 73.112 47.2517 75.2574L46.5233 78.5352C46.2093 79.9483 45.7232 81.3176 45.0758 82.6124L45.0191 82.7257C43.8517 85.0606 42.055 87.0227 39.8319 88.3908C38.1222 89.4429 36.1541 90 34.1466 90H23.8534C21.8459 90 19.8778 89.4429 18.1681 88.3908C15.945 87.0227 14.1483 85.0606 12.9809 82.7257L12.9242 82.6124C12.2768 81.3176 11.7907 79.9483 11.4767 78.5352L10.7483 75.2574C10.2715 73.112 10.2715 70.888 10.7483 68.7426C11.4482 65.5927 13.6311 62.9772 16.605 61.725L16.7316 61.6717C19.0849 60.6809 21.759 60.8007 24.0142 61.9982L29.0304 64.6294ZM82.5001 19.5H31.5621C31.104 19.5 30.6598 19.6573 30.3037 19.9455L29.8396 20.3212C26.1866 23.2784 26.2273 28.7406 29.6442 31.6854C30.0945 32.0735 30.687 32.2373 31.2815 32.2373H82.9333C80.7034 29.7683 79.8343 28.1476 80.2802 25.1527C80.395 24.3815 80.6595 23.6412 80.9761 22.9288L82.5001 19.5ZM25.8685 52.3363L25.0951 52.0601C21.5201 50.7833 17.6995 50.3568 13.9355 50.811L15.1068 53.544C15.8187 55.205 17.2404 56.4573 18.978 56.9537C21.1271 57.5677 23.4353 57.2503 25.3388 56.0789L27.5637 54.7097L25.8685 52.3363Z" fill="#7C7D88"/>
</svg>
