<svg width="112" height="112" viewBox="0 0 112 112" fill="none" xmlns="http://www.w3.org/2000/svg">
<rect width="112" height="112" fill="white"/>
<path fill-rule="evenodd" clip-rule="evenodd" d="M64.8374 22.3545C63.2663 20.7821 60.7145 20.7921 59.1559 22.3769L56.287 25.2939C56.103 25.481 55.9999 25.7328 55.9999 25.9952V31.5C55.9999 32.0523 55.5522 32.5 54.9999 32.5H49.4999C48.9476 32.5 48.4999 32.9477 48.4999 33.5V35.0858C48.4999 35.351 48.3946 35.6054 48.207 35.7929L47.9999 36L46.6982 37.0321C46.3002 37.3477 45.7289 37.3148 45.3698 36.9557L29.207 20.7929C29.0195 20.6054 28.7651 20.5 28.4999 20.5H24.9999C24.4476 20.5 23.9999 20.9477 23.9999 21.5V25C23.9999 25.2601 24.1012 25.5099 24.2823 25.6965L40.2559 42.1541C40.5771 42.4851 40.5732 43.0125 40.2471 43.3386V43.3386C40.0888 43.4969 39.9999 43.7115 39.9999 43.9354V45.3036C39.9999 46.1982 38.9152 46.6427 38.2874 46.0053L29.7124 37.2983C29.5245 37.1075 29.2678 37 28.9999 37H21.9999C21.8229 37 21.649 37.047 21.4961 37.1362L15.6975 40.5187L14.9459 40.9572C14.686 41.1087 14.5082 41.3693 14.4618 41.6666L14.3315 42.5L12.0119 57.3456C11.9172 57.9521 12.3861 58.5 12.9999 58.5H16.9999C17.3343 58.5 17.6465 58.3329 17.832 58.0547L19.4731 55.5931C19.9326 54.9037 20.9831 55.0402 21.2513 55.8241L26.1284 70.0804C26.2575 70.4577 26.15 70.8757 25.8549 71.144L15.8273 80.2601C15.4774 80.5781 15.3981 81.0978 15.6372 81.5057L24.1372 96.0057C24.5018 96.6276 25.3847 96.6712 25.8087 96.0882L29.8087 90.5882C30.0823 90.2119 30.0603 89.6967 29.7556 89.3451L24.9803 83.8351C24.547 83.3351 24.71 82.5597 25.3079 82.2764L32.428 78.9038C32.5114 78.8642 32.589 78.8134 32.6584 78.7526L35.8414 75.9675C36.488 75.4017 37.4999 75.8609 37.4999 76.7201V80.5C37.4999 80.5905 37.5122 80.6805 37.5364 80.7677L39.9312 89.389C39.966 89.514 39.976 89.6446 39.9609 89.7735L39.0068 97.8832C38.9368 98.4777 39.4013 99 39.9999 99H46.9999C47.5522 99 47.9999 98.5523 47.9999 98V90C47.9999 89.8866 47.9806 89.7741 47.9429 89.6672L45.5188 82.7988C45.3213 82.2394 45.6515 81.632 46.2284 81.4936L56.7333 78.9724C57.3396 78.8269 57.6664 78.168 57.4152 77.5973L55.6079 73.4897C55.3171 72.8288 55.8012 72.087 56.5232 72.087H59.7761C60.1516 72.087 60.4956 72.2974 60.6665 72.6319L64.5145 80.1605C64.6952 80.5141 64.6495 80.9412 64.3981 81.2486L55.2258 92.4648C55.0797 92.6434 54.9999 92.8671 54.9999 93.0978V97.5C54.9999 98.0523 55.4476 98.5 55.9999 98.5H62.9999C63.4817 98.5 63.895 98.1564 63.9831 97.6827L64.8955 92.7734C64.9243 92.6186 64.9893 92.4727 65.0851 92.3477L72.2935 82.9454C72.3757 82.8382 72.4353 82.7155 72.4688 82.5846L72.9624 80.653C73.1013 80.1095 73.6601 79.7865 74.2005 79.9376L78.2159 81.0599C78.5335 81.1486 78.7869 81.3883 78.8932 81.7004L80.9124 87.6263C80.9589 87.7625 80.9753 87.9073 80.9607 88.0505L80.0051 97.3983C79.9449 97.9878 80.4074 98.5 80.9999 98.5H87.4999C88.0522 98.5 88.4999 98.0523 88.4999 97.5V87.7174C88.4999 87.6467 88.4924 87.5762 88.4775 87.507L86.4775 78.2135C86.4547 78.1072 86.4146 78.0052 86.3588 77.9118L83.0927 72.4345C83.0158 72.3054 82.9689 72.1606 82.9556 72.0109L82.5951 67.9552C82.5644 67.6107 83.0313 67.4761 83.1888 67.7842V67.7842C83.2127 67.8309 83.2479 67.8709 83.2912 67.9006L88.4349 71.4229C89.1374 71.904 90.0813 71.3431 89.9947 70.4961L88.4947 55.8222C88.4633 55.5144 88.2911 55.2385 88.0284 55.075L82.5284 51.6511C82.1372 51.4075 81.6301 51.4629 81.3006 51.7852L76.6094 56.3745C76.3585 56.6199 75.9973 56.7158 75.6576 56.6273L71.2737 55.4836C70.6818 55.3292 70.366 54.6843 70.607 54.1221L73.9191 46.3939C73.9724 46.2695 73.9999 46.1354 73.9999 46V33.5C73.9999 32.9477 73.5522 32.5 72.9999 32.5H68.6122C68.0318 32.5 67.5734 32.0076 67.6147 31.4288L68.0018 26.0095C68.0225 25.7203 67.9166 25.4365 67.7118 25.2314L64.8374 22.3545ZM70.0188 57.2232C69.6106 57.1167 69.1794 57.2779 68.9411 57.6261L62.8252 66.5647C62.4281 67.1451 61.5718 67.1451 61.1746 66.5647L60.7883 66L60.4999 65.5786L58.7506 63.0219C58.4494 62.5816 57.8555 62.4553 57.4012 62.7349L53.0084 65.4382C52.583 65.7 52.416 66.2354 52.6172 66.6926L53.8479 69.4897C54.0076 69.8527 54.3667 70.087 54.7632 70.087H63.651C64.1729 70.087 64.607 69.6856 64.6479 69.1654L64.9338 65.5306C64.9733 65.0276 65.3815 64.6328 65.8855 64.61L66.1032 64.6002C66.6073 64.5774 67.0493 64.9338 67.1341 65.4312L67.9099 69.985C67.9349 70.1315 67.9921 70.2705 68.0776 70.3921L72.9076 77.2649C73.0404 77.4537 73.2343 77.5909 73.4566 77.653L79.7691 79.4174C80.0867 79.5061 80.3401 79.7458 80.4465 80.0579L82.9465 87.3949C82.9929 87.5312 83.0094 87.6759 82.9947 87.8191L82.22 95.3983C82.1597 95.9878 82.6223 96.5 83.2148 96.5H85.4999C86.0522 96.5 86.4999 96.0523 86.4999 95.5V87.9302C86.4999 87.8595 86.4924 87.7889 86.4775 87.7198L84.5915 78.9556C84.5686 78.8492 84.5285 78.7473 84.4727 78.6538L81.141 73.0665C81.0641 72.9374 81.0172 72.7926 81.0039 72.6429L80.0821 62.2727C80.0571 61.9925 79.9154 61.7357 79.6915 61.5654L76.2131 58.9188C76.1079 58.8387 75.9879 58.7803 75.86 58.747L70.0188 57.2232ZM62.0481 30.7191C62.7862 31.3097 62.3686 32.5 61.4234 32.5H58.9999C58.4476 32.5 57.9999 32.0523 57.9999 31.5V30.2749C57.9999 29.5923 58.6686 29.1103 59.3162 29.3262L60.8453 29.8359C60.9572 29.8732 61.0617 29.93 61.1538 30.0037L62.0481 30.7191ZM62.4999 35.5C62.4999 34.9477 62.9476 34.5 63.4999 34.5H66.7741H67.3953H70.9999C71.5522 34.5 71.9999 34.9477 71.9999 35.5V43C71.9999 43.5523 71.5522 44 70.9999 44H63.4999C62.9476 44 62.4999 43.5523 62.4999 43V35.5ZM62.4999 47C62.4999 46.4477 62.9476 46 63.4999 46H70.3954C71.1133 46 71.5974 46.7341 71.3146 47.3939L67.6579 55.9261C67.6323 55.986 67.6008 56.0432 67.5641 56.0969L64.3252 60.8306C63.77 61.642 62.4999 61.2491 62.4999 60.2659V47ZM59.4999 46C60.0522 46 60.4999 46.4477 60.4999 47V58.8044C60.4999 59.7876 59.2298 60.1805 58.6746 59.369L56.4133 56.064C56.384 56.0212 56.3581 55.9761 56.3357 55.9293L52.2884 47.4299C51.9724 46.7663 52.4563 46 53.1913 46H59.4999ZM48.9999 41.8086L48.6237 38.6106C48.6096 38.4908 48.5361 38.3861 48.4282 38.3322V38.3322C48.2904 38.2633 48.1239 38.2903 48.0149 38.3993L42.2928 44.1213C42.1053 44.3089 41.9999 44.5632 41.9999 44.8284V45.114C41.9999 45.8122 42.6973 46.2955 43.3511 46.0503L44.4116 45.6526C44.4904 45.6231 44.5651 45.5838 44.634 45.5355L48.5734 42.7779C48.8407 42.5908 48.9999 42.285 48.9999 41.9587V41.8086ZM49.5092 46.1374C49.4319 45.4804 48.6812 45.1438 48.1392 45.5232L46.9051 46.3871C46.5172 46.6586 46.3729 47.165 46.5594 47.6002L46.8996 48.3939C47.0572 48.7616 47.4187 49 47.8187 49H49.2371C49.9721 49 50.456 48.2337 50.14 47.5701L49.5882 46.4112C49.547 46.3249 49.5204 46.2324 49.5092 46.1374V46.1374ZM60.4999 43C60.4999 43.5523 60.0522 44 59.4999 44H52.1608C51.6537 44 51.2269 43.6205 51.1676 43.1169L50.9999 41.6914L50.4999 37.132V35.5C50.4999 34.9477 50.9476 34.5 51.4999 34.5H59.4999C60.0522 34.5 60.4999 34.9477 60.4999 35.5V43ZM58.2406 26.8595C58.0969 26.8116 57.9999 26.6771 57.9999 26.5256V26.5256C57.9999 26.4531 58.0223 26.3824 58.064 26.3231L58.7771 25.3091C60.4875 22.8768 64.1596 23.0948 65.5703 25.7123L65.8277 26.19C65.9177 26.357 65.9584 26.5463 65.9448 26.7356L65.7737 29.1311C65.7163 29.9347 64.7807 30.344 64.1516 29.8407L62.1246 28.2191C62.0325 28.1454 61.9281 28.0886 61.8162 28.0513L58.2406 26.8595ZM50.2256 53.7997C51.0169 53.8477 51.5467 52.9997 51.1566 52.3095L50.7036 51.508C50.5262 51.1941 50.1935 51 49.833 51H46.4999C46.0999 51 45.7384 50.7616 45.5808 50.3939L44.8331 48.6493C44.6226 48.1582 44.0632 47.9193 43.5628 48.1069L42.6638 48.4441C41.9859 48.6983 41.7944 49.5662 42.3025 50.0821L45.4241 53.2518C45.5974 53.4277 45.8296 53.5333 46.0761 53.5483L50.2256 53.7997ZM54.4582 58.1507C54.2062 57.705 53.6584 57.5216 53.1889 57.7257L44.1793 61.6429C43.6833 61.8585 43.4487 62.4293 43.6495 62.9314L48.0109 73.835C48.1385 74.1538 48.0252 74.5183 47.7396 74.7088L47.4849 74.8786C47.4576 74.8967 47.4404 74.9265 47.4382 74.9592V74.9592C47.4343 75.0173 47.3841 75.0612 47.3261 75.0573L47.2785 75.0541C47.2449 75.0519 47.2115 75.0608 47.1835 75.0795L45.4452 76.2383C45.167 76.4238 44.9999 76.736 44.9999 77.0704V78.4632C44.9999 79.1099 45.6045 79.5865 46.2333 79.4356L53.9384 77.5864C54.5447 77.4409 54.8715 76.782 54.6204 76.2113L50.0846 65.9028C49.8835 65.4456 50.0505 64.9101 50.4758 64.6484L55.3347 61.6583C55.7928 61.3764 55.9458 60.7827 55.6812 60.3145L54.4582 58.1507ZM42.9999 80.2116V75.7085C42.9999 75.5484 42.9615 75.3906 42.8878 75.2484L42.7835 75.0471C42.6096 74.7117 42.2616 74.5028 41.8838 74.5073L40.4881 74.5239C39.9405 74.5303 39.4999 74.9761 39.4999 75.5238V80.2274C39.4999 80.3179 39.5122 80.4079 39.5364 80.495L41.9634 89.2324C41.9982 89.3574 42.0082 89.488 41.9931 89.6169L41.2559 95.8832C41.1859 96.4777 41.6504 97 42.249 97H44.9999C45.5522 97 45.9999 96.5523 45.9999 96V90.3426C45.9999 90.2292 45.9806 90.1167 45.9429 90.0098L43.0569 81.8328C43.0192 81.7259 42.9999 81.6134 42.9999 81.5V81.1183V80.2116ZM41.5424 40.608C41.9311 41.0085 42.5725 41.0133 42.9671 40.6186L43.8786 39.7071C44.2691 39.3166 44.2691 38.6834 43.8786 38.2929L28.3786 22.7929C28.1911 22.6054 27.9367 22.5 27.6715 22.5H26.9999C26.4476 22.5 25.9999 22.9477 25.9999 23.5V24.189C25.9999 24.4491 26.1012 24.6989 26.2823 24.8855L41.5424 40.608ZM44.9053 71.456C45.1787 72.1395 44.6448 72.8741 43.9103 72.8252L41.3072 72.6516C40.7324 72.6133 40.4909 71.8992 40.9244 71.5199V71.5199C41.1931 71.2847 41.2204 70.8762 40.9852 70.6075L40.7525 70.3415C40.3888 69.9259 39.7571 69.8838 39.3414 70.2474L37.9099 71.5L37.4999 71.8587L31.5508 77.0642C31.4814 77.125 31.4038 77.1759 31.3204 77.2154L22.0718 81.5963C21.4739 81.8795 21.3109 82.6549 21.7442 83.1549L27.2034 89.454C27.5081 89.8056 27.5301 90.3208 27.2565 90.6971L25.9886 92.4404C25.5646 93.0234 24.6817 92.9798 24.3172 92.3579L18.1832 81.8941C17.9441 81.4862 18.0234 80.9665 18.3732 80.6485L28.1726 71.74C28.4677 71.4717 28.5752 71.0537 28.4461 70.6763L22.2486 52.5607C22.1173 52.1768 22.231 51.7516 22.5363 51.4845L25.6584 48.7526C26.0741 48.3889 26.1162 47.7571 25.7525 47.3415V47.3415C25.3888 46.9259 24.7571 46.8838 24.3414 47.2474L20.3414 50.7474C20.2751 50.8055 20.2168 50.872 20.1679 50.9453L19.9527 51.2681C19.934 51.2961 19.9067 51.3171 19.8749 51.328L19.8294 51.3436C19.7745 51.3623 19.7453 51.422 19.764 51.4768V51.4768C19.7746 51.5078 19.7702 51.5418 19.7521 51.569L16.7616 56.0547C16.5761 56.3329 16.2639 56.5 15.9296 56.5H15.3367C14.7229 56.5 14.2539 55.9521 14.3487 55.3456L16.2237 43.3456C16.2997 42.8589 16.719 42.5 17.2117 42.5H23.1944C23.4528 42.5 23.7012 42.6001 23.8875 42.7792L36.3068 54.7208C36.4781 54.8855 36.7023 54.9838 36.9394 54.9982L48.1414 55.6771C49.1909 55.7407 49.4439 57.1731 48.4796 57.5923L41.6012 60.5829C41.1053 60.7986 40.8706 61.3693 41.0714 61.8714L44.9053 71.456ZM28.1625 39C28.4304 39 28.6871 39.1075 28.875 39.2983L40.8786 51.4865C41.5218 52.1396 41.0206 53.2419 40.1056 53.1864L37.7951 53.0464C37.558 53.032 37.3337 52.9337 37.1625 52.769L24.693 40.7792C24.5068 40.6001 24.2584 40.5 23.9999 40.5H22.473C21.7075 40.5 21.4339 39.4879 22.0951 39.1022V39.1022C22.2098 39.0353 22.3402 39 22.473 39H28.1625ZM78.9482 58.4867C78.4626 58.1172 78.4182 57.4028 78.8544 56.9761L81.5767 54.3129C81.9062 53.9906 82.4132 53.9353 82.8045 54.1788L86.1386 56.2544C86.4012 56.4179 86.5734 56.6938 86.6049 57.0016L87.5666 66.4094C87.6531 67.2564 86.7092 67.8172 86.0067 67.3362L84.9844 66.6361C84.8468 66.5418 84.7349 66.4147 84.659 66.2661L81.8904 60.8493C81.8221 60.7158 81.7248 60.5993 81.6054 60.5085L78.9482 58.4867ZM66.3856 71.5753C66.4351 71.5753 66.4816 71.5994 66.51 71.64L71.1524 78.2457C71.3204 78.4847 71.3755 78.7852 71.3031 79.0683L70.6324 81.6927C70.599 81.8235 70.5394 81.9463 70.4572 82.0535L63.2063 91.5112C63.1105 91.6361 63.0455 91.782 63.0168 91.9369L62.3206 95.6827C62.2325 96.1564 61.8192 96.5 61.3374 96.5H57.9999C57.4476 96.5 56.9999 96.0523 56.9999 95.5V93.8115C56.9999 93.5807 57.0797 93.3571 57.2258 93.1784L66.774 81.5026C67.0255 81.1952 67.0711 80.7681 66.8904 80.4145L63.2757 73.3424C62.9622 72.7289 63.3484 71.9895 64.031 71.8964L66.3856 71.5753V71.5753Z" fill="#7C7D88"/>
</svg>
