<svg width="112" height="112" viewBox="0 0 112 112" fill="none" xmlns="http://www.w3.org/2000/svg">
<rect width="112" height="112" fill="white"/>
<path fill-rule="evenodd" clip-rule="evenodd" d="M25 43.1675V28.6207C35.2739 26.8608 45.2236 23.538 54.5096 18.7659L56 18L57.4904 18.7659C66.7764 23.538 76.7261 26.8608 87 28.6207V43.1675C87 62.3022 77.6074 80.1945 61.9197 90.9438L56 95L50.0802 90.9438C34.3926 80.1945 25 62.3022 25 43.1675ZM53.6154 24.5652C46.0042 28.1758 38.0009 30.8748 29.7692 32.6075V43.1675C29.7692 60.7076 38.3791 77.1089 52.7595 86.9624L53.6154 87.5489V24.5652ZM58.3846 87.5489L59.2405 86.9624C73.6209 77.1089 82.2308 60.7076 82.2308 43.1675V32.6075C73.9991 30.8748 65.9958 28.1758 58.3846 24.5652V87.5489Z" fill="#7C7D88"/>
</svg>
