<svg width="112" height="112" viewBox="0 0 112 112" fill="none" xmlns="http://www.w3.org/2000/svg">
<rect width="112" height="112" fill="white"/>
<circle cx="56" cy="23" r="10" stroke="#7C7D88" stroke-width="2"/>
<path fill-rule="evenodd" clip-rule="evenodd" d="M69.2235 43.5645L74.0025 71H67.8539L68.19 73H74.0025C75.2443 73 76.1859 71.8802 75.9728 70.6568L71.1938 43.2213C70.2496 37.8008 65.74 33.7168 60.2527 33.3129L56.0008 33L51.7489 33.3129C46.2616 33.7168 41.7519 37.8008 40.8077 43.2213L36.0287 70.6568C35.8156 71.8802 36.7573 73 37.9991 73H45.05L45.3507 71H37.9991L42.778 43.5645C43.5649 39.0474 47.3229 35.6441 51.8957 35.3075L56.0008 35.0054L60.1059 35.3075C64.6786 35.6441 68.4367 39.0474 69.2235 43.5645Z" fill="#7C7D88"/>
<path d="M46.5 49L42.205 94.8133C42.095 95.9865 43.018 97 44.1963 97H67.3037C68.482 97 69.405 95.9865 69.295 94.8133L65 49" stroke="#7C7D88" stroke-width="2" stroke-linecap="round"/>
<line x1="45" y1="61" x2="67" y2="61" stroke="#7C7D88" stroke-width="2"/>
<line x1="56" y1="75" x2="56" y2="96" stroke="#7C7D88" stroke-width="2" stroke-linecap="round"/>
<path d="M77.9232 14.2228L73.9061 16.2119L75.0014 11.3295C75.3032 9.98439 75.789 8.68729 76.445 7.47483L77.0268 6.39949C78.116 4.38651 80.7634 3.85334 82.5469 5.2878C84.3862 6.76712 84.3678 9.57396 82.5093 11.0291L80.5144 12.591C79.7086 13.2219 78.8403 13.7687 77.9232 14.2228Z" stroke="#7C7D88" stroke-width="2"/>
<path d="M79.9396 25.8513L75.5517 24.9348L79.4284 21.7713C80.4965 20.8997 81.6796 20.1795 82.9444 19.631L84.0661 19.1446C86.166 18.2341 88.5775 19.4497 89.0943 21.6794C89.6273 23.9787 87.8793 26.175 85.519 26.1717L82.9854 26.1681C81.962 26.1667 80.9414 26.0605 79.9396 25.8513Z" stroke="#7C7D88" stroke-width="2"/>
</svg>
