<svg width="112" height="112" viewBox="0 0 112 112" fill="none" xmlns="http://www.w3.org/2000/svg">
<rect width="112" height="112" fill="white"/>
<path d="M41.4142 49.4249H42.4142V50.4249H43.4142V49.4249H44.4142V48.4249H43.4142V47.4249H42.4142V48.4249H41.4142V49.4249Z" fill="#7C7D88"/>
<path fill-rule="evenodd" clip-rule="evenodd" d="M42.9142 52.4249C44.8472 52.4249 46.4142 50.8579 46.4142 48.9249C46.4142 46.992 44.8472 45.4249 42.9142 45.4249C40.9812 45.4249 39.4142 46.992 39.4142 48.9249C39.4142 50.8579 40.9812 52.4249 42.9142 52.4249ZM42.9142 51.4249C44.2949 51.4249 45.4142 50.3057 45.4142 48.9249C45.4142 47.5442 44.2949 46.4249 42.9142 46.4249C41.5335 46.4249 40.4142 47.5442 40.4142 48.9249C40.4142 50.3057 41.5335 51.4249 42.9142 51.4249Z" fill="#7C7D88"/>
<path fill-rule="evenodd" clip-rule="evenodd" d="M51.3585 48.6956L51.6212 49.0973L51.1714 49.3537L49.9142 49.925L48.7453 50.8093L48.6764 50.8931C45.0395 55.3093 38.1716 54.9624 34.9981 50.2023L34.9142 49.925L34.959 49.718L35.2411 49.0973C38.3376 42.2851 47.9265 42.0461 51.3585 48.6956ZM36.1515 49.5112C38.8371 43.6029 46.9324 43.2118 50.1562 48.6956L49.2441 49.0973L48.083 50.0406L47.9044 50.2574C44.7526 54.0846 38.8517 53.8593 35.9867 49.8737L36.1515 49.5112Z" fill="#7C7D88"/>
<path d="M50.3832 42.4219C44.819 37.785 36.5848 38.3758 31.7396 43.7594L30.9963 43.0905C36.2011 37.3073 45.0463 36.6727 51.0234 41.6536L51.9084 42.3912C54.4173 44.4819 55.8679 47.579 55.8679 50.8449V59.7583L56.8679 63.4249L58.3679 66.4249H57.3889C55.5374 66.4249 53.8449 65.3789 53.0169 63.7229C52.9227 63.5344 52.9186 63.3135 53.0058 63.1217L54.8679 59.025V50.8449C54.8679 47.8758 53.5491 45.0602 51.2682 43.1594L50.3832 42.4219Z" fill="#7C7D88"/>
<path d="M83.3089 50.7319C83.4784 50.5139 83.4391 50.1998 83.2211 50.0303C83.0032 49.8607 82.689 49.9 82.5195 50.118L82.2252 50.4964C79.0777 54.5431 72.9262 54.4338 69.9246 50.2777C69.7646 50.0562 69.508 49.9249 69.2348 49.9249H67.4142C67.138 49.9249 66.9142 50.1488 66.9142 50.4249C66.9142 50.7011 67.138 50.9249 67.4142 50.9249H69.1589C72.5671 55.5609 79.4733 55.6633 83.0145 51.1103L83.3089 50.7319Z" fill="#7C7D88"/>
<path d="M67.3989 42.4219C72.9631 37.785 81.1973 38.3758 86.0425 43.7594L86.7858 43.0905C81.581 37.3073 72.7358 36.6727 66.7587 41.6536L65.8737 42.3912C63.3648 44.4819 61.9142 47.579 61.9142 50.8449V59.7583L60.9142 63.4249L59.4142 66.4249H60.3932C62.2447 66.4249 63.9372 65.3789 64.7652 63.7229C64.8594 63.5344 64.8635 63.3135 64.7763 63.1217L62.9142 59.025V50.8449C62.9142 47.8758 64.233 45.0602 66.5138 43.1594L67.3989 42.4219Z" fill="#7C7D88"/>
<path fill-rule="evenodd" clip-rule="evenodd" d="M56.9662 12L59.4412 19.425C79.8633 19.4396 96.4142 35.9994 96.4142 56.4249C96.4142 76.8178 79.9163 93.3573 59.5393 93.4247L54.3032 100.406L52.1698 95.6062L45.9142 98.734V91.7865L38.67 95.9261L40.13 89.5995L33.2936 94.4827L34.3632 84.8559L26.6536 83.828L29.1882 78.7588L20.8655 76.6782L24.8938 73.1534L17.9083 71.1576L23.0344 66.5441L16 63.0269L21.6438 58.4092L16.9124 54.2035L22.0455 52.6635L17.0097 46.6205L23.7488 45.0653L20.1971 35.4249H26.9142V27.2964L33.2311 28.7542L31.7738 22.925H36.9142V20.8421L43.5492 21.8629L45.1585 15.9622L48.8091 19.6128L52.4982 13.2886L54.4236 18.1023L56.9662 12ZM56.8621 14.8499L58.3917 19.4388C57.1924 19.4713 56.0074 19.561 54.8391 19.705L56.8621 14.8499ZM54.0312 19.8137C52.4013 20.0513 50.8058 20.3951 49.2521 20.8379L52.3302 15.5613L54.0312 19.8137ZM48.7631 20.981C47.2607 21.4318 45.7985 21.9756 44.3832 22.6055L45.6699 17.8877L48.7631 20.981ZM37.9142 22.0078L43.7323 22.9029C40.2893 24.5163 37.1357 26.6445 34.3704 29.1885L33.0546 23.925H37.9142V22.0078ZM27.9142 28.5535L33.6434 29.8756C29.5713 33.829 26.4057 38.7111 24.4884 44.1801L21.6312 36.4249H27.9142V28.5535ZM25.0074 45.8012C24.3007 48.0927 23.8166 50.4818 23.5804 52.9434L23.5518 53.2557C23.4607 54.3 23.4142 55.357 23.4142 56.4249C23.4142 59.85 23.8925 63.1633 24.7859 66.3018L24.794 66.3058L24.7885 66.3107C27.3595 75.333 33.3617 82.9094 41.2942 87.5391L41.5921 87.711C43.2421 88.653 44.9739 89.4682 46.7741 90.1434L46.9142 90.1956C50.5117 91.5276 54.3801 92.3013 58.4142 92.4113V91.4109C39.5466 90.8816 24.4142 75.4205 24.4142 56.4249C24.4142 37.4294 39.5466 21.9683 58.4142 21.439V20.4386C42.7101 20.8669 29.4812 31.4674 25.0074 45.8012ZM18.8187 47.2294L23.8856 46.0601C23.3377 47.9412 22.9352 49.8842 22.691 51.8761L18.8187 47.2294ZM18.9159 54.6464L22.5231 53.5643C22.4509 54.5084 22.4142 55.4624 22.4142 56.4249C22.4142 56.8778 22.4223 57.3287 22.4384 57.7775L18.9159 54.6464ZM17.8283 62.823L22.5023 58.9989C22.6602 61.2974 23.0281 63.5382 23.5869 65.7023L17.8283 62.823ZM19.9201 70.6923L23.9634 67.0533C24.5211 68.9163 25.2217 70.7176 26.0524 72.4444L19.9201 70.6923ZM26.4058 73.1592C27.2132 74.7487 28.1321 76.2721 29.1522 77.7191L22.9629 76.1717L26.4058 73.1592ZM28.1747 83.0219L30.1508 79.0697C31.4933 80.8021 32.9863 82.4121 34.6101 83.88L28.1747 83.0219ZM34.5348 92.3672L35.4006 84.5746C36.9617 85.9076 38.635 87.113 40.4044 88.1746L34.5348 92.3672ZM40.1583 93.9238L41.3575 88.7274C42.7381 89.5008 44.1732 90.1882 45.6558 90.7824L40.1583 93.9238ZM46.9142 97.1159V91.2602C48.5317 91.8407 50.2013 92.3117 51.9142 92.6644V94.6159L46.9142 97.1159ZM52.9142 94.8188V92.8559C54.6703 93.1671 56.4692 93.3544 58.3015 93.4085L54.5252 98.4436L52.9142 94.8188ZM59.4142 92.4249C79.2964 92.4249 95.4142 76.3072 95.4142 56.4249C95.4142 36.5427 79.2964 20.425 59.4142 20.425V21.425C78.7441 21.425 94.4142 37.095 94.4142 56.4249C94.4142 75.7549 78.7441 91.4249 59.4142 91.4249V92.4249ZM58.4142 22.4394C40.099 22.9684 25.4142 37.9818 25.4142 56.4249C25.4142 74.8681 40.099 89.8815 58.4142 90.4105V82.9843C56.8652 83.1166 55.3603 83.8651 54.3105 85.2298L53.5179 84.6201C54.7678 82.9952 56.5682 82.1155 58.4142 81.9811V79.7741C54.9027 78.4581 51.5479 75.9263 49.2441 72.9642L50.4142 72.425C52.781 71.0725 55.2626 70.5573 57.975 70.8285L58.4142 70.8725V22.4394ZM59.4142 81.9811V79.7741C62.9256 78.4581 66.6103 75.8871 68.9142 72.925L67.6622 72.4908C65.2954 71.1383 62.5658 70.5573 59.8533 70.8285L59.4142 70.8725V22.425C78.1919 22.425 93.4142 37.6473 93.4142 56.4249C93.4142 75.2026 78.1919 90.4249 59.4142 90.4249V82.9843C60.9632 83.1166 62.4681 83.8651 63.5179 85.2298L64.3105 84.6201C63.0605 82.9952 61.2601 82.1155 59.4142 81.9811ZM58.4142 78.7023V76.3422L56.8721 76.0619C55.1044 75.7405 53.3987 75.1557 51.8111 74.3303C53.6816 76.2242 55.9288 77.7151 58.4142 78.7023ZM58.4142 75.3258V71.8774L57.8755 71.8236C55.6521 71.6012 53.4163 71.9988 51.4132 72.9642C53.149 73.999 55.0582 74.7157 57.051 75.078L58.4142 75.3258ZM59.4142 71.8774V75.3258L60.7773 75.078C62.7701 74.7157 64.6793 73.999 66.4152 72.9642C64.412 71.9988 62.1762 71.6012 59.9528 71.8236L59.4142 71.8774ZM59.4142 76.3422V78.7023C61.8995 77.7151 64.1467 76.2242 66.0173 74.3303C64.4296 75.1557 62.724 75.7405 60.9562 76.0619L59.4142 76.3422Z" fill="#7C7D88"/>
</svg>
