<svg width="112" height="112" viewBox="0 0 112 112" fill="none" xmlns="http://www.w3.org/2000/svg">
<rect width="112" height="112" fill="white"/>
<path d="M49.5 46L59 44.5L72.5 48" stroke="#7C7D88" stroke-width="2" stroke-linecap="square"/>
<circle cx="18.5" cy="44.5" r="6.5" stroke="#7C7D88" stroke-width="2"/>
<circle cx="39.5" cy="38.5" r="6.5" stroke="#7C7D88" stroke-width="2"/>
<circle cx="49.5" cy="51.5" r="5.5" stroke="#7C7D88" stroke-width="2"/>
<circle cx="78.5" cy="44.5" r="6.5" stroke="#7C7D88" stroke-width="2"/>
<circle cx="93" cy="40" r="7" stroke="#7C7D88" stroke-width="2"/>
<circle cx="59" cy="36" r="8" stroke="#7C7D88" stroke-width="2"/>
<path d="M11 75H5L7.54484 58.0344C7.83703 56.0865 8.8672 54.3255 10.422 53.1162V53.1162C11.7688 52.0687 13.4263 51.5 15.1325 51.5H18.5H21.6158C23.4916 51.5 25.3206 52.0861 26.847 53.1764L28 54L29.6499 51.3189C31.1564 48.8708 33.5615 47.1096 36.3502 46.4124L40 45.5L49 46" stroke="#7C7D88" stroke-width="2" stroke-linecap="square"/>
<path d="M70.5 47.5V54" stroke="#7C7D88" stroke-width="2" stroke-linecap="square"/>
<path d="M108 74H102L103.5 91H84.5L85.5 73H79.5L82.0035 55.0581C82.3193 52.7949 83.5878 50.7748 85.4892 49.5072L85.7846 49.3103C86.5882 48.7745 87.4822 48.3887 88.4233 48.1715L93.5 47L98.5767 48.1715C99.5178 48.3887 100.412 48.7745 101.215 49.3103L101.573 49.5489C103.438 50.7922 104.696 52.7609 105.041 54.9756L108 74Z" stroke="#7C7D88" stroke-width="2" stroke-linecap="square"/>
<path d="M73.5 62.5L70 90" stroke="#7C7D88" stroke-width="2" stroke-linecap="square"/>
<path d="M88 58L85.5 76" stroke="#7C7D88" stroke-width="2" stroke-linecap="square"/>
<path d="M103 86L99 57.5" stroke="#7C7D88" stroke-width="2" stroke-linecap="square"/>
<path d="M88 68L100 68" stroke="#7C7D88" stroke-width="2" stroke-linecap="square"/>
<path d="M93.5 74V91" stroke="#7C7D88" stroke-width="2" stroke-linecap="square"/>
<path d="M13.5 61L9.5 91H27L23.5 61" stroke="#7C7D88" stroke-width="2" stroke-linecap="square"/>
<path d="M13 69.5H24" stroke="#7C7D88" stroke-width="2" stroke-linecap="square"/>
<path d="M18.5 76.5V90.5" stroke="#7C7D88" stroke-width="2" stroke-linecap="square"/>
<path d="M28 55L32 75H26" stroke="#7C7D88" stroke-width="2" stroke-linecap="square"/>
<path d="M34.5 57.5L31.5 91H69.5H86.5" stroke="#7C7D88" stroke-width="2" stroke-linecap="square"/>
<path d="M43 77.5L38.5 77L40.6525 63.2241C40.8683 61.8432 41.7891 60.6751 43.0815 60.1429L49.5 57.5L56.3086 60.1478C57.6613 60.6738 58.623 61.8914 58.8213 63.3292L62.5 90" stroke="#7C7D88" stroke-width="2" stroke-linecap="square"/>
<path d="M33.5 68.5H39" stroke="#7C7D88" stroke-width="2" stroke-linecap="square"/>
<path d="M45.5 66L42.5 90.5" stroke="#7C7D88" stroke-width="2" stroke-linecap="square"/>
<path d="M45 73H54.5" stroke="#7C7D88" stroke-width="2" stroke-linecap="square"/>
<path d="M54 65.5L57.5 90.5" stroke="#7C7D88" stroke-width="2" stroke-linecap="square"/>
<path d="M50 78V90.5" stroke="#7C7D88" stroke-width="2" stroke-linecap="square"/>
<path d="M56 77.5H60" stroke="#7C7D88" stroke-width="2" stroke-linecap="square"/>
<path d="M76.5 51L68.7549 55.7331C67.9633 56.2169 67.44 57.0396 67.3376 57.9617L65.5 74.5L69 75.5V88.5" stroke="#7C7D88" stroke-width="2" stroke-linecap="square"/>
<path d="M73 70H79.5" stroke="#7C7D88" stroke-width="2" stroke-linecap="square"/>
<path d="M78.5 91V70.5" stroke="#7C7D88" stroke-width="2" stroke-linecap="square"/>
<path d="M64.5 53L66.5 63.5H59.5" stroke="#7C7D88" stroke-width="2" stroke-linecap="square"/>
</svg>
