<svg width="112" height="112" viewBox="0 0 112 112" fill="none" xmlns="http://www.w3.org/2000/svg">
<path fill-rule="evenodd" clip-rule="evenodd" d="M56 43C62.0751 43 67 38.0751 67 32C67 25.9249 62.0751 21 56 21C49.9249 21 45 25.9249 45 32C45 38.0751 49.9249 43 56 43ZM56 39C59.866 39 63 35.866 63 32C63 28.134 59.866 25 56 25C52.134 25 49 28.134 49 32C49 35.866 52.134 39 56 39Z" fill="#7C7D88"/>
<path fill-rule="evenodd" clip-rule="evenodd" d="M96 80C96 86.0751 91.0751 91 85 91C78.9249 91 74 86.0751 74 80C74 73.9249 78.9249 69 85 69C91.0751 69 96 73.9249 96 80ZM92 80C92 83.866 88.866 87 85 87C81.134 87 78 83.866 78 80C78 76.134 81.134 73 85 73C88.866 73 92 76.134 92 80Z" fill="#7C7D88"/>
<path fill-rule="evenodd" clip-rule="evenodd" d="M56 75C62.0751 75 67 70.0751 67 64C67 57.9249 62.0751 53 56 53C49.9249 53 45 57.9249 45 64C45 70.0751 49.9249 75 56 75ZM56 71C59.866 71 63 67.866 63 64C63 60.134 59.866 57 56 57C52.134 57 49 60.134 49 64C49 67.866 52.134 71 56 71Z" fill="#7C7D88"/>
<path fill-rule="evenodd" clip-rule="evenodd" d="M40 80C40 86.0751 35.0751 91 29 91C22.9249 91 18 86.0751 18 80C18 73.9249 22.9249 69 29 69C35.0751 69 40 73.9249 40 80ZM36 80C36 83.866 32.866 87 29 87C25.134 87 22 83.866 22 80C22 76.134 25.134 73 29 73C32.866 73 36 76.134 36 80Z" fill="#7C7D88"/>
<path fill-rule="evenodd" clip-rule="evenodd" d="M71.8102 39.6117C70.3737 42.2433 69.0065 45.0058 68.8619 48.0004C68.6391 52.6188 70.9724 56.9859 74.9355 59.3677L76.6217 60.3811C78.817 61.7005 82.4387 62 85 62C94.9411 62 102 70.0589 102 80C102 89.9411 93.9411 98 84 98C77.8097 98 72.3492 94.8752 69.11 90.1168C67.0798 87.1346 64.8281 84.1239 61.5594 82.597L61.2661 82.46C57.9447 80.9085 54.092 80.9832 50.8332 82.6623C47.9375 84.1544 45.952 86.8874 44.2055 89.6371C41.0128 94.664 35.396 98 29 98C19.0589 98 11 89.9411 11 80C11 70.0589 19.0589 62 29 62C31.4556 62 33.9652 61.6824 36.0559 60.3944L37.9297 59.2399C41.6695 56.9358 43.8452 52.7671 43.5968 48.3815C43.4295 45.4274 42.0252 42.7243 40.5139 40.1806C38.917 37.4926 38 34.3534 38 31C38 21.0589 46.0589 13 56 13C65.9411 13 74 21.0589 74 31C74 34.1195 73.2064 37.0537 71.8102 39.6117ZM68.2992 37.6952C69.3826 35.7103 70 33.4332 70 31C70 23.268 63.732 17 56 17C48.268 17 42 23.268 42 31C42 33.6147 42.713 36.0507 43.9528 38.1375C45.4781 40.7048 47.3632 44.1441 47.5904 48.1553C47.9219 54.0077 45.0185 59.5707 40.0278 62.6455L38.154 63.7999C35.1165 65.6713 31.7075 66 29 66C21.268 66 15 72.268 15 80C15 87.732 21.268 94 29 94C33.9704 94 38.3392 91.4128 40.829 87.4926C42.5865 84.7255 45.0605 81.1371 49.0011 79.1066C53.3609 76.8601 58.5154 76.7601 62.959 78.8359L63.2523 78.9729C67.6303 81.018 70.4187 84.9311 72.4165 87.8659C74.9427 91.5768 79.189 94 84 94C91.732 94 98 87.732 98 80C98 71.9613 92.4372 66 85 66C83.5832 66 81.8141 65.9184 80.0422 65.6352C78.3321 65.3618 76.2963 64.8524 74.5612 63.8096L72.875 62.7962C67.6494 59.6556 64.5727 53.8972 64.8666 47.8076C65.0601 43.7971 66.8744 40.3054 68.2992 37.6952Z" fill="#7C7D88"/>
</svg>
