<svg width="112" height="112" viewBox="0 0 112 112" fill="none" xmlns="http://www.w3.org/2000/svg">
<rect width="112" height="112" fill="white"/>
<circle cx="29.5986" cy="38" r="12.5" stroke="#7C7D88"/>
<path fill-rule="evenodd" clip-rule="evenodd" d="M15 21C16.5627 23.8667 22.5057 26 29.5986 26C36.6915 26 42.6346 23.8667 44.1972 21H42.9983C42.9109 21.1095 42.8131 21.2201 42.7042 21.3316C42.0646 21.987 41.09 22.6229 39.8076 23.1786C37.246 24.2887 33.6373 25 29.5986 25C25.5599 25 21.9512 24.2887 19.3896 23.1786C18.1072 22.6229 17.1327 21.987 16.493 21.3316C16.3841 21.2201 16.2863 21.1095 16.1989 21H15Z" fill="#7C7D88"/>
<path fill-rule="evenodd" clip-rule="evenodd" d="M23 81C19.134 81 16 77.866 16 74C16 70.134 19.134 67 23 67C26.866 67 30 70.134 30 74H31C31 69.5817 27.4183 66 23 66C18.5817 66 15 69.5817 15 74C15 78.4183 18.5817 82 23 82V81Z" fill="#7C7D88"/>
<path fill-rule="evenodd" clip-rule="evenodd" d="M38 81C41.866 81 45 77.866 45 74C45 70.134 41.866 67 38 67C34.134 67 31 70.134 31 74H30C30 69.5817 33.5817 66 38 66C42.4183 66 46 69.5817 46 74C46 78.4183 42.4183 82 38 82V81Z" fill="#7C7D88"/>
<line x1="30.5" y1="73" x2="30.5" y2="94" stroke="#7C7D88"/>
<circle cx="73" cy="48" r="5.5" stroke="#7C7D88"/>
<path d="M78.5 48V24.2127C78.5 23.4121 78.6609 22.614 78.9687 21.875V21.875C80.5857 17.9944 86.1399 18.0399 87.6161 21.9762V21.9762C87.87 22.6532 88 23.3704 88 24.0934V47.1188C88 47.7007 88.1143 48.2793 88.3346 48.8178V48.8178C89.7435 52.2619 94.698 52.0919 95.8263 48.546V48.546C95.9414 48.1842 96 47.8067 96 47.427V47" stroke="#7C7D88" stroke-linecap="square"/>
<path fill-rule="evenodd" clip-rule="evenodd" d="M81.273 68.0045C81.2643 68.028 81.2814 67.9809 81.273 68.0045L81.315 68.0751C81.4337 68.2788 81.5381 68.4981 81.6261 68.7328C81.859 69.3537 81.9782 70.0114 81.9782 70.6745V89.0751H82.9782V70.6745C82.9782 69.8915 82.8374 69.1148 82.5625 68.3817C82.5065 68.2323 82.4452 68.088 82.379 67.9488C83.9275 64.6708 88.7234 64.7941 90.0107 68.2268C90.2435 68.8477 90.3628 69.5054 90.3628 70.1685V93.1939C90.3628 93.3739 90.3726 93.5535 90.392 93.7319L88.8849 96.5251L89.7649 97L90.763 95.1503C92.3826 98.9481 97.9003 98.7489 99.1655 94.7727C99.2962 94.3619 99.3628 93.9333 99.3628 93.5021V92.5751H98.3628V93.5021C98.3628 93.8304 98.3121 94.1567 98.2126 94.4695C97.2287 97.5615 92.8956 97.7236 91.6601 94.7036C91.5561 94.4494 91.4787 94.1852 91.429 93.916L98.5027 80.8064C98.8745 80.1173 99.1193 79.3669 99.2255 78.5911C99.8298 74.1766 94.9451 71.291 91.3628 73.5722V70.1685C91.3628 69.3855 91.2219 68.6089 90.947 67.8757C89.4142 63.7884 83.9418 63.4943 81.7743 66.9716C79.6016 64.2159 75.0571 64.4657 73.2556 67.7054C71.2649 64.0175 65.674 64.2113 63.9854 68.2638C63.9418 68.3685 63.9009 68.4743 63.8628 68.5811H64.9372C66.4208 65.1741 71.3226 65.2566 72.6261 68.7328C72.859 69.3537 72.9782 70.0114 72.9782 70.6745V89.0751H73.9782V70.6745C73.9782 69.9621 73.8617 69.255 73.6336 68.5811L73.6829 68.7328C75.0546 65.5827 79.6029 65.264 81.273 68.0045ZM91.3628 74.8089V91.9329L97.6226 80.3315C97.9375 79.7479 98.1448 79.1125 98.2348 78.4555C98.7383 74.7772 94.4636 72.377 91.5401 74.6708L91.3628 74.8089Z" fill="#7C7D88"/>
</svg>
