<svg width="112" height="112" viewBox="0 0 112 112" fill="none" xmlns="http://www.w3.org/2000/svg">
<rect width="112" height="112" fill="white"/>
<path fill-rule="evenodd" clip-rule="evenodd" d="M63 35H19V79H51V81H19H17V79V35V33H19H63H65V35V44H63V35ZM58 44V42V40H56H26H24V42V72V74H26H51V72H26V42H56V44H58Z" fill="#7C7D88"/>
<rect x="54" y="47" width="40" height="33" stroke="#7C7D88" stroke-width="2"/>
<rect x="58" y="51" width="32" height="19" stroke="#7C7D88" stroke-width="2"/>
<line x1="42" y1="19" x2="42" y2="21" stroke="#7C7D88" stroke-width="2"/>
<line x1="42.3674" y1="20.3391" x2="30.3674" y2="33.3391" stroke="#7C7D88"/>
<line y1="-0.5" x2="17.6918" y2="-0.5" transform="matrix(0.67828 0.734803 0.734803 -0.67828 42 20)" stroke="#7C7D88"/>
<circle cx="74.5" cy="57.5" r="2" stroke="#7C7D88"/>
<path d="M58.5 64.5L64 60L74 63.5V66L83 69.5" stroke="#7C7D88" stroke-linecap="round"/>
<path d="M89 63.5L80.5 60L69.5 66L71 69" stroke="#7C7D88" stroke-linecap="round"/>
<line x1="61.5" y1="57" x2="61.5" y2="58" stroke="#7C7D88"/>
<line x1="88.5" y1="57" x2="88.5" y2="58" stroke="#7C7D88"/>
<line x1="83.5" y1="54" x2="83.5" y2="55" stroke="#7C7D88"/>
<line x1="65.5" y1="55" x2="65.5" y2="56" stroke="#7C7D88"/>
</svg>
