<svg width="112" height="112" viewBox="0 0 112 112" fill="none" xmlns="http://www.w3.org/2000/svg">
<rect width="112" height="112" fill="white"/>
<path fill-rule="evenodd" clip-rule="evenodd" d="M55.5 70C71.2401 70 84 57.2401 84 41.5C84 25.7599 71.2401 13 55.5 13C39.7599 13 27 25.7599 27 41.5C27 57.2401 39.7599 70 55.5 70ZM55.5 74C73.4493 74 88 59.4493 88 41.5C88 23.5507 73.4493 9 55.5 9C37.5507 9 23 23.5507 23 41.5C23 59.4493 37.5507 74 55.5 74Z" fill="#7C7D88"/>
<path fill-rule="evenodd" clip-rule="evenodd" d="M46.5858 22.5858C47.3669 23.3668 47.3669 24.6332 46.5858 25.4142L38.4143 33.5858C37.6332 34.3668 36.3669 34.3668 35.5858 33.5858C34.8048 32.8047 34.8048 31.5384 35.5858 30.7574L43.7574 22.5858C44.5385 21.8047 45.8048 21.8047 46.5858 22.5858Z" fill="#7C7D88"/>
<path fill-rule="evenodd" clip-rule="evenodd" d="M59.6162 22.556C60.3805 23.3535 60.3536 24.6196 59.5561 25.3838L38.444 45.6162C37.6465 46.3805 36.3805 46.3535 35.6162 45.556C34.852 44.7586 34.8789 43.4925 35.6764 42.7283L56.7884 22.4959C57.5859 21.7316 58.852 21.7586 59.6162 22.556Z" fill="#7C7D88"/>
<path fill-rule="evenodd" clip-rule="evenodd" d="M14 41C15.1046 41 15.9947 41.8962 16.0504 42.9994C17.0911 63.6094 34.1315 80 55 80C75.8686 80 92.9089 63.6094 93.9496 42.9994C94.0053 41.8962 94.8954 41 96 41C97.1046 41 98.0048 41.8972 97.9543 43.0006C96.9092 65.8201 78.0777 84 55 84C31.9223 84 13.0908 65.8201 12.0457 43.0006C11.9952 41.8972 12.8954 41 14 41Z" fill="#7C7D88"/>
<path fill-rule="evenodd" clip-rule="evenodd" d="M53 98V82H57V98H53Z" fill="#7C7D88"/>
<path fill-rule="evenodd" clip-rule="evenodd" d="M72 98C72 99.1046 71.1046 100 70 100H40C38.8954 100 38 99.1046 38 98C38 96.8954 38.8954 96 40 96H70C71.1046 96 72 96.8954 72 98Z" fill="#7C7D88"/>
</svg>
