<svg width="112" height="112" viewBox="0 0 112 112" fill="none" xmlns="http://www.w3.org/2000/svg">
<rect width="112" height="112" fill="white"/>
<path fill-rule="evenodd" clip-rule="evenodd" d="M54.3325 59.3405C54.5993 59.1283 54.9559 59.0667 55.2784 59.177L72.5138 65.071C72.8539 65.1873 73.1054 65.4771 73.1726 65.8302L76.7968 84.8615C76.8611 85.1992 76.7475 85.5463 76.4959 85.7805L62.3998 98.9045L62.3029 98.9947C62.1114 99.173 61.839 99.2344 61.5896 99.1557V99.1557L43.0151 93.2901C42.6484 93.1743 42.3807 92.8585 42.3263 92.4779L39.3811 71.8617C39.3309 71.5102 39.4708 71.1585 39.7487 70.9376L54.3325 59.3405ZM61.9167 95.8639C62.0454 96.6521 63.0005 96.9789 63.585 96.4347L75.432 85.4048C75.6809 85.173 75.7949 84.8307 75.7348 84.496L72.8079 68.2129C72.6714 67.4534 71.7626 67.1281 71.1752 67.6285L59.4294 77.6342C59.1629 77.8613 59.0345 78.2111 59.0909 78.5566L61.9167 95.8639ZM40.6789 73.8751C40.5742 73.1422 41.2745 72.5536 41.9785 72.7829L57.4204 77.8112C57.7763 77.9272 58.0378 78.2322 58.0978 78.6017L60.9901 96.3969C61.1096 97.1321 60.4122 97.7352 59.7019 97.5109L43.9161 92.5259C43.5494 92.4101 43.2816 92.0944 43.2273 91.7137L40.6789 73.8751ZM55.2861 60.1803C54.9593 60.0682 54.5978 60.1326 54.33 60.3508L42.2302 70.2075C41.6147 70.7089 41.8007 71.6931 42.5567 71.9352L57.8525 76.8342C58.1753 76.9376 58.5285 76.8704 58.7909 76.6558L70.5511 67.0323C71.1575 66.5361 70.9835 65.5668 70.2424 65.3125L55.2861 60.1803Z" fill="#7C7D88"/>
<path fill-rule="evenodd" clip-rule="evenodd" d="M55.326 15.783C55.6575 15.7035 56.0067 15.7983 56.2525 16.0346L69.3821 28.6604C69.6412 28.9095 69.7466 29.2784 69.6583 29.6268L64.9 48.4067C64.8156 48.74 64.5659 49.0065 64.2389 49.1124L45.917 55.0495L45.7911 55.0903C45.5423 55.171 45.2693 55.1115 45.0766 54.9347V54.9347L30.7213 41.7688C30.4379 41.5089 30.3287 41.1096 30.4403 40.7416L36.4838 20.8123C36.5868 20.4726 36.8623 20.2129 37.2075 20.1301L55.326 15.783ZM46.7642 52.0896C46.5477 52.8584 47.2753 53.5582 48.035 53.312L63.4334 48.3222C63.757 48.2174 64.005 47.9553 64.092 47.6266L68.3209 31.6321C68.5181 30.8861 67.8319 30.2073 67.0881 30.4125L52.2141 34.5168C51.8767 34.6099 51.6124 34.8727 51.5176 35.2097L46.7642 52.0896ZM36.8091 23.1856C37.0239 22.4771 37.9074 22.2396 38.4485 22.7448L50.3186 33.8282C50.5922 34.0836 50.7002 34.4705 50.5985 34.8308L45.6992 52.1811C45.4968 52.8979 44.6098 53.1498 44.0609 52.6463L31.8608 41.457C31.5775 41.1971 31.4682 40.7978 31.5798 40.4298L36.8091 23.1856ZM55.8354 16.9471C55.5867 16.7074 55.2318 16.613 54.8968 16.6976L39.765 20.5172C38.9953 20.7115 38.748 21.6821 39.3309 22.221L51.1231 33.1253C51.372 33.3554 51.7205 33.4438 52.049 33.3601L66.7744 29.6084C67.5337 29.4149 67.7857 28.463 67.2214 27.9193L55.8354 16.9471Z" fill="#7C7D88"/>
<circle cx="38.5" cy="29.5" r="1.5" fill="#7C7D88"/>
<circle cx="41.5" cy="38.5" r="1.5" fill="#7C7D88"/>
<circle cx="46.5" cy="36.5" r="1.5" fill="#7C7D88"/>
<circle cx="44.5" cy="46.5" r="1.5" fill="#7C7D88"/>
<circle cx="59.5" cy="41.5" r="1.5" fill="#7C7D88"/>
<circle cx="62.5" cy="26.5" r="1.5" fill="#7C7D88"/>
<circle cx="54.5" cy="19.5" r="1.5" fill="#7C7D88"/>
<circle cx="44.5" cy="22.5" r="1.5" fill="#7C7D88"/>
<circle cx="51.5" cy="29.5" r="1.5" fill="#7C7D88"/>
<circle cx="56.5" cy="68.5" r="1.5" fill="#7C7D88"/>
<circle cx="46.5" cy="88.5" r="1.5" fill="#7C7D88"/>
<circle cx="55.5" cy="82.5" r="1.5" fill="#7C7D88"/>
<circle cx="47.5" cy="70.5" r="1.5" fill="#7C7D88"/>
<circle cx="65.5" cy="67.5" r="1.5" fill="#7C7D88"/>
<circle cx="71.5" cy="73.5" r="1.5" fill="#7C7D88"/>
<circle cx="62.5" cy="80.5" r="1.5" fill="#7C7D88"/>
<circle cx="72.5" cy="78.5" r="1.5" fill="#7C7D88"/>
<circle cx="63.5" cy="85.5" r="1.5" fill="#7C7D88"/>
<circle cx="73.5" cy="83.5" r="1.5" fill="#7C7D88"/>
<circle cx="64.5" cy="90.5" r="1.5" fill="#7C7D88"/>
<circle cx="35.5" cy="39.5" r="1.5" fill="#7C7D88"/>
</svg>
