<svg width="112" height="112" viewBox="0 0 112 112" fill="none" xmlns="http://www.w3.org/2000/svg">
<rect width="112" height="112" fill="white"/>
<rect x="14.5" y="47.5" width="82" height="17" rx="3.5" stroke="#7C7D88"/>
<path d="M79 47V65" stroke="#7C7D88"/>
<path d="M19.6037 37.6719C19.5639 37.2997 19.3963 37.0099 19.1009 36.8026C18.8082 36.5952 18.4276 36.4915 17.9588 36.4915C17.6293 36.4915 17.3466 36.5412 17.1108 36.6406C16.875 36.7401 16.6946 36.875 16.5696 37.0455C16.4446 37.2159 16.3807 37.4105 16.3778 37.6293C16.3778 37.8111 16.419 37.9687 16.5014 38.1023C16.5866 38.2358 16.7017 38.3494 16.8466 38.4432C16.9915 38.5341 17.152 38.6108 17.3281 38.6733C17.5043 38.7358 17.6818 38.7884 17.8608 38.831L18.679 39.0355C19.0085 39.1122 19.3253 39.2159 19.6293 39.3466C19.9361 39.4773 20.2102 39.642 20.4517 39.8409C20.696 40.0398 20.8892 40.2798 21.0312 40.5611C21.1733 40.8423 21.2443 41.1719 21.2443 41.5497C21.2443 42.0611 21.1136 42.5114 20.8523 42.9006C20.5909 43.2869 20.2131 43.5895 19.7188 43.8082C19.2273 44.0241 18.6321 44.1321 17.9332 44.1321C17.2543 44.1321 16.6648 44.027 16.1648 43.8168C15.6676 43.6065 15.2784 43.2997 14.9972 42.8963C14.7188 42.4929 14.5682 42.0014 14.5455 41.4219H16.1009C16.1236 41.7259 16.2173 41.9787 16.3821 42.1804C16.5469 42.3821 16.7614 42.5327 17.0256 42.6321C17.2926 42.7315 17.5909 42.7812 17.9205 42.7812C18.2642 42.7812 18.5653 42.7301 18.8239 42.6278C19.0852 42.5227 19.2898 42.3778 19.4375 42.1932C19.5852 42.0057 19.6605 41.7869 19.6634 41.5369C19.6605 41.3097 19.5938 41.1222 19.4631 40.9744C19.3324 40.8239 19.1491 40.6989 18.9134 40.5994C18.6804 40.4972 18.4077 40.4062 18.0952 40.3267L17.1023 40.071C16.3835 39.8864 15.8153 39.6065 15.3977 39.2315C14.983 38.8537 14.7756 38.3523 14.7756 37.7273C14.7756 37.2131 14.9148 36.7628 15.1932 36.3764C15.4744 35.9901 15.8565 35.6903 16.3395 35.4773C16.8224 35.2614 17.3693 35.1534 17.9801 35.1534C18.5994 35.1534 19.142 35.2614 19.608 35.4773C20.0767 35.6903 20.4446 35.9872 20.7116 36.3679C20.9787 36.7457 21.1165 37.1804 21.125 37.6719H19.6037ZM25.4833 44.1278C24.8271 44.1278 24.2603 43.9915 23.783 43.7188C23.3086 43.4432 22.9435 43.054 22.6879 42.5511C22.4322 42.0455 22.3043 41.4503 22.3043 40.7656C22.3043 40.0923 22.4322 39.5014 22.6879 38.9929C22.9464 38.4815 23.3072 38.0838 23.7702 37.7997C24.2333 37.5128 24.7773 37.3693 25.4023 37.3693C25.8058 37.3693 26.1864 37.4347 26.5444 37.5653C26.9052 37.6932 27.2234 37.892 27.4989 38.1619C27.7773 38.4318 27.9961 38.7756 28.1552 39.1932C28.3143 39.608 28.3938 40.1023 28.3938 40.6761V41.1491H23.0288V40.1094H26.9151C26.9123 39.8139 26.8484 39.5511 26.7234 39.321C26.5984 39.0881 26.4237 38.9048 26.1992 38.7713C25.9776 38.6378 25.7191 38.571 25.4237 38.571C25.1083 38.571 24.8313 38.6477 24.5927 38.8011C24.354 38.9517 24.168 39.1506 24.0344 39.3977C23.9038 39.642 23.837 39.9105 23.8342 40.2031V41.1108C23.8342 41.4915 23.9038 41.8182 24.043 42.0909C24.1822 42.3608 24.3768 42.5682 24.6268 42.7131C24.8768 42.8551 25.1694 42.9261 25.5046 42.9261C25.729 42.9261 25.9322 42.8949 26.114 42.8324C26.2958 42.767 26.4535 42.6719 26.587 42.5469C26.7205 42.4219 26.8214 42.267 26.8896 42.0824L28.3299 42.2443C28.239 42.625 28.0657 42.9574 27.81 43.2415C27.5572 43.5227 27.2333 43.7415 26.8384 43.8977C26.4435 44.0511 25.9918 44.1278 25.4833 44.1278ZM31.5824 44.1321C31.1676 44.1321 30.794 44.0582 30.4616 43.9105C30.1321 43.7599 29.8707 43.5384 29.6776 43.2457C29.4872 42.9531 29.392 42.5923 29.392 42.1634C29.392 41.794 29.4602 41.4886 29.5966 41.2472C29.733 41.0057 29.919 40.8125 30.1548 40.6676C30.3906 40.5227 30.6563 40.4134 30.9517 40.3395C31.25 40.2628 31.5582 40.2074 31.8764 40.1733C32.2599 40.1335 32.571 40.098 32.8097 40.0668C33.0483 40.0327 33.2216 39.9815 33.3295 39.9134C33.4403 39.8423 33.4957 39.733 33.4957 39.5852V39.5597C33.4957 39.2386 33.4006 38.9901 33.2102 38.8139C33.0199 38.6378 32.7457 38.5497 32.3878 38.5497C32.0099 38.5497 31.7102 38.6321 31.4886 38.7969C31.2699 38.9616 31.1222 39.1562 31.0455 39.3807L29.6051 39.1761C29.7188 38.7784 29.9063 38.446 30.1676 38.179C30.429 37.9091 30.7486 37.7074 31.1264 37.5739C31.5043 37.4375 31.9219 37.3693 32.3793 37.3693C32.6946 37.3693 33.0085 37.4062 33.321 37.4801C33.6335 37.554 33.919 37.6761 34.1776 37.8466C34.4361 38.0142 34.6435 38.2429 34.7997 38.5327C34.9588 38.8224 35.0384 39.1847 35.0384 39.6193V44H33.5554V43.1009H33.5043C33.4105 43.2827 33.2784 43.4531 33.108 43.6122C32.9403 43.7685 32.7287 43.8949 32.473 43.9915C32.2202 44.0852 31.9233 44.1321 31.5824 44.1321ZM31.983 42.9986C32.2926 42.9986 32.5611 42.9375 32.7884 42.8153C33.0156 42.6903 33.1903 42.5256 33.3125 42.321C33.4375 42.1165 33.5 41.8935 33.5 41.652V40.8807C33.4517 40.9205 33.3693 40.9574 33.2528 40.9915C33.1392 41.0256 33.0114 41.0554 32.8693 41.081C32.7273 41.1065 32.5866 41.1293 32.4474 41.1491C32.3082 41.169 32.1875 41.1861 32.0852 41.2003C31.8551 41.2315 31.6491 41.2827 31.4673 41.3537C31.2855 41.4247 31.142 41.5241 31.0369 41.652C30.9318 41.777 30.8793 41.9389 30.8793 42.1378C30.8793 42.4219 30.983 42.6364 31.1903 42.7812C31.3977 42.9261 31.6619 42.9986 31.983 42.9986ZM36.5895 44V37.4545H38.0852V38.5455H38.1534C38.2727 38.1676 38.4773 37.8764 38.767 37.6719C39.0597 37.4645 39.3935 37.3608 39.7685 37.3608C39.8537 37.3608 39.9489 37.3651 40.054 37.3736C40.1619 37.3793 40.2514 37.3892 40.3224 37.4034V38.8224C40.2571 38.7997 40.1534 38.7798 40.0114 38.7628C39.8722 38.7429 39.7372 38.733 39.6065 38.733C39.3253 38.733 39.0724 38.794 38.848 38.9162C38.6264 39.0355 38.4517 39.2017 38.3239 39.4148C38.196 39.6278 38.1321 39.8736 38.1321 40.152V44H36.5895ZM43.9329 44.1278C43.2795 44.1278 42.7184 43.9844 42.2496 43.6974C41.7837 43.4105 41.4244 43.0142 41.1715 42.5085C40.9215 42 40.7965 41.4148 40.7965 40.7528C40.7965 40.0881 40.9244 39.5014 41.18 38.9929C41.4357 38.4815 41.7965 38.0838 42.2624 37.7997C42.7312 37.5128 43.2852 37.3693 43.9244 37.3693C44.4556 37.3693 44.9258 37.4673 45.3349 37.6634C45.7468 37.8565 46.0749 38.1307 46.3192 38.4858C46.5636 38.8381 46.7028 39.25 46.7369 39.7216H45.2624C45.2028 39.4062 45.0607 39.1435 44.8363 38.9332C44.6147 38.7202 44.3178 38.6136 43.9457 38.6136C43.6303 38.6136 43.3533 38.6989 43.1147 38.8693C42.8761 39.0369 42.69 39.2784 42.5565 39.5938C42.4258 39.9091 42.3604 40.2869 42.3604 40.7273C42.3604 41.1733 42.4258 41.5568 42.5565 41.8778C42.6871 42.196 42.8704 42.4418 43.1062 42.6151C43.3448 42.7855 43.6246 42.8707 43.9457 42.8707C44.1729 42.8707 44.3761 42.8281 44.555 42.7429C44.7369 42.6548 44.8888 42.5284 45.011 42.3636C45.1332 42.1989 45.217 41.9986 45.2624 41.7628H46.7369C46.6999 42.2259 46.5636 42.6364 46.3278 42.9943C46.092 43.3494 45.771 43.6278 45.3647 43.8295C44.9585 44.0284 44.4812 44.1278 43.9329 44.1278ZM49.5462 40.1648V44H48.0036V35.2727H49.5121V38.5668H49.5888C49.7422 38.1974 49.9794 37.9062 50.3004 37.6932C50.6243 37.4773 51.0362 37.3693 51.5362 37.3693C51.9908 37.3693 52.3871 37.4645 52.7251 37.6548C53.0632 37.8452 53.3246 38.1236 53.5092 38.4901C53.6967 38.8565 53.7905 39.304 53.7905 39.8324V44H52.2479V40.071C52.2479 39.6307 52.1342 39.2884 51.907 39.044C51.6825 38.7969 51.3672 38.6733 50.9609 38.6733C50.6882 38.6733 50.4439 38.733 50.228 38.8523C50.0149 38.9687 49.8473 39.1378 49.7251 39.3594C49.6058 39.581 49.5462 39.8494 49.5462 40.1648Z" fill="#7C7D88"/>
<circle cx="88.5" cy="55.5" r="3" stroke="#7C7D88"/>
<path d="M86.5 58L84 60.5" stroke="#7C7D88" stroke-linecap="round"/>
</svg>
