<svg width="112" height="112" viewBox="0 0 112 112" fill="none" xmlns="http://www.w3.org/2000/svg">
<rect width="112" height="112" fill="white"/>
<path d="M32.5 23L38.5 25.5M38.5 25.5L49.1911 28.0659C49.9661 28.2519 50.6366 27.5008 50.3643 26.7517L49.2394 23.6583C49.0957 23.2631 48.7201 23 48.2996 23H46.5M38.5 25.5L39.7087 23.4855C39.8894 23.1843 40.2149 23 40.5662 23H46.5M46.5 23V25.5" stroke="#7C7D88" stroke-width="2" stroke-linecap="round" stroke-linejoin="round"/>
<path d="M59.1216 49.161L59.4269 56.1543M59.4269 56.1543L62.8035 64.9805C63.0691 65.6748 63.9725 65.8468 64.4747 65.2987L65.6315 64.0363C65.723 63.9365 65.7932 63.8191 65.838 63.6913L66.221 62.5976C66.4314 61.9971 65.9686 61.374 65.3329 61.4017V61.4017C64.5323 61.4367 64.0892 60.4863 64.6305 59.8955L64.9351 59.5631C65.2845 59.1817 65.2855 58.5969 64.9374 58.2144L63.2388 56.3481C63.0391 56.1286 62.7522 56.0092 62.4557 56.0221L59.4269 56.1543Z" stroke="#7C7D88" stroke-width="2" stroke-linecap="round" stroke-linejoin="round"/>
<path d="M13.5 28H33.1707C33.3896 28 33.6078 28.024 33.8215 28.0714L50.8632 31.8585C53.1318 32.3626 53.9905 35.1435 52.4011 36.8389L48.5 41L39.8879 48.2523C39.3166 48.7334 38.9453 49.4103 38.8466 50.1506L38.2126 54.9052C38.0798 55.9013 38.4545 56.8977 39.2108 57.5595L41.2114 59.3099C41.722 59.7567 42.0661 60.3634 42.1875 61.031L42.6294 63.4615C42.84 64.6198 43.892 65.4314 45.0658 65.3411V65.3411C46.9256 65.198 48.1716 67.214 47.2119 68.8135L45.7448 71.2586C45.2742 72.0429 45.1872 72.9991 45.5083 73.8555L45.9691 75.0842C46.303 75.9747 47.0394 76.6541 47.9539 76.9154L51.834 78.024C52.8649 78.3185 53.6602 79.1408 53.9202 80.181L54.884 84.0359C54.9608 84.3433 54.9885 84.6611 54.9659 84.9772L54.5 91.5M13.5 91.5H101M42 86H50M20 88H22" stroke="#7C7D88" stroke-width="2" stroke-linecap="round" stroke-linejoin="round"/>
<line x1="35" y1="77.5" x2="39" y2="77.5" stroke="#7C7D88" stroke-width="2" stroke-linecap="round"/>
<line x1="15" y1="33.5" x2="27" y2="33.5" stroke="#7C7D88" stroke-width="2" stroke-linecap="round"/>
<line x1="31" y1="41.5" x2="35" y2="41.5" stroke="#7C7D88" stroke-width="2" stroke-linecap="round"/>
<line x1="21" y1="49.5" x2="28" y2="49.5" stroke="#7C7D88" stroke-width="2" stroke-linecap="round"/>
<line x1="18" y1="58.5" x2="24" y2="58.5" stroke="#7C7D88" stroke-width="2" stroke-linecap="round"/>
<line x1="34" y1="63.5" x2="36" y2="63.5" stroke="#7C7D88" stroke-width="2" stroke-linecap="round"/>
<line x1="17" y1="69.5" x2="30" y2="69.5" stroke="#7C7D88" stroke-width="2" stroke-linecap="round"/>
<line x1="21" y1="79.5" x2="25" y2="79.5" stroke="#7C7D88" stroke-width="2" stroke-linecap="round"/>
<path d="M56 28L57.4441 31.8508C57.4811 31.9497 57.5336 32.042 57.5995 32.1244L58.2898 32.9873C58.7972 33.6215 59.8091 33.4183 60.0322 32.6373L60.4699 31.1054C60.4899 31.0355 60.5 30.9631 60.5 30.8903V30.8903C60.5 30.1928 61.3434 29.8434 61.8367 30.3367L62.3168 30.8168C62.4369 30.9369 62.5858 31.0245 62.7492 31.0712L65.6589 31.9025C65.8796 31.9656 66.0718 32.1026 66.2034 32.2906L69.1847 36.5495C69.381 36.83 69.4202 37.1915 69.2885 37.5076L68.0272 40.5347C67.6716 41.3881 66.4478 41.3434 66.1554 40.4663L66 40L62.5 32" stroke="#7C7D88" stroke-width="2" stroke-linecap="round" stroke-linejoin="round"/>
<path d="M68.5 35.5L66 38" stroke="#7C7D88" stroke-width="2" stroke-linecap="round" stroke-linejoin="round"/>
<path d="M11 23L12.2 24.6C12.3889 24.8518 12.6852 25 13 25H16.5M23.5 20H25.0858C25.351 20 25.6054 20.1054 25.7929 20.2929L28.7929 23.2929C29.4229 23.9229 28.9767 25 28.0858 25H16.5M23.5 20L25.5 23M23.5 20H19.177C18.7681 20 18.4004 20.249 18.2486 20.6286L16.5 25" stroke="#7C7D88" stroke-width="2" stroke-linecap="round" stroke-linejoin="round"/>
</svg>
