<svg width="112" height="112" viewBox="0 0 112 112" fill="none" xmlns="http://www.w3.org/2000/svg">
<rect width="112" height="112" fill="white"/>
<path fill-rule="evenodd" clip-rule="evenodd" d="M31 31C31 24.9249 35.9249 20 42 20H74.3716C75.0861 20 75.7464 20.3812 76.1036 21L81.0263 29.5263L75.791 38.5941C75.6246 38.8823 75.3308 39.0738 75 39.1097V39.1097H50.5V55H48.5V37.1097H63.4046L59.8771 31H42V98H48.5V64H50.5V100H31V31ZM40 98V29H59.3301L63.3716 22H42C37.0294 22 33 26.0294 33 31V98H40ZM65.681 22L61.3357 29.5263L65.681 37.0526H74.3716L78.7169 29.5263L74.3716 22L65.681 22Z" fill="#7C7D88"/>
<path d="M48.5 57V62H50.5V57H48.5Z" fill="#7C7D88"/>
</svg>
