<svg width="112" height="112" viewBox="0 0 112 112" fill="none" xmlns="http://www.w3.org/2000/svg">
<rect width="112" height="112" fill="white"/>
<path d="M51.9084 78.396V84.0088" stroke="#7C7D88" stroke-width="2" stroke-linecap="round"/>
<line x1="41.6829" y1="84.7507" x2="62.134" y2="84.7507" stroke="#7C7D88" stroke-width="2" stroke-linecap="round"/>
<path d="M66.8756 29.7519C78.7735 39.6852 82.6608 55.5118 72.7275 67.4096C62.7943 79.3075 46.9677 80.8455 35.0698 70.9123" stroke="#7C7D88" stroke-width="2" stroke-linecap="round"/>
<circle cx="52.2028" cy="52.203" r="19.5802" transform="rotate(59.3003 52.2028 52.203)" stroke="#7C7D88" stroke-width="2"/>
<path d="M68.4999 42L36 62" stroke="#7C7D88" stroke-width="2"/>
<line x1="62.9481" y1="68.5946" x2="42.9552" y2="34.9222" stroke="#7C7D88" stroke-width="2" stroke-linecap="round"/>
<path d="M67 65L66.2941 61.6784C64.1034 51.3695 58.5807 42.0681 50.5784 35.2098L48.0001 33" stroke="#7C7D88" stroke-width="2"/>
<path d="M58 71L57.169 70.3643C47.3408 62.8461 40.7958 51.8228 38.8997 39.5949L38.7394 38.561" stroke="#7C7D88" stroke-width="2"/>
<path d="M42.5004 68.8432L43.6448 67.5204C50.4401 59.6662 59.5995 54.2278 69.7482 52.0216L71.4575 51.65" stroke="#7C7D88" stroke-width="2"/>
<path d="M32.9485 52.7559L34.6577 52.3844C44.8065 50.1781 53.9659 44.7397 60.7611 36.8855L61.9056 35.5627" stroke="#7C7D88" stroke-width="2"/>
</svg>
