<svg width="112" height="112" viewBox="0 0 112 112" fill="none" xmlns="http://www.w3.org/2000/svg">
<rect width="112" height="112" fill="white"/>
<path fill-rule="evenodd" clip-rule="evenodd" d="M35.1679 28.9453C35.4743 28.4858 36.0952 28.3616 36.5547 28.6679L41.0547 31.6679C41.4414 31.9257 41.5995 32.416 41.4363 32.8511L39.7801 37.2678L68.0823 43.7634L71.6188 33H64C63.4477 33 63 32.5523 63 32C63 31.4477 63.4477 31 64 31H72.9766C72.9921 30.9996 73.0075 30.9996 73.023 31H79.5C80.0523 31 80.5 31.4477 80.5 32C80.5 32.5523 80.0523 33 79.5 33H73.724L69.9281 44.5527L74.4029 49.9487C77.6115 47.4728 81.6338 46 86 46C96.4934 46 105 54.5066 105 65C105 75.4934 96.4934 84 86 84C76.5187 84 68.6595 77.0553 67.2316 67.9751L60.5782 68.4969C60.2358 68.5238 59.9037 68.3731 59.6984 68.0978L38.7517 40.0102L35.8678 47.7005C42.4349 50.692 47 57.3129 47 65C47 75.4934 38.4934 84 28 84C17.5066 84 9 75.4934 9 65C9 54.5066 17.5066 46 28 46C30.0989 46 32.1184 46.3403 34.0062 46.9689L37.3304 38.1044L37.8133 36.8164L39.285 32.8919L35.4453 30.332C34.9858 30.0257 34.8616 29.4048 35.1679 28.9453ZM67.4553 45.6715L40.9282 39.5833L60.731 66.137L67.4553 45.6715ZM62.7766 66.3184L69.1908 46.7967L72.8854 51.2519C69.2593 54.712 67 59.5922 67 65C67 65.3304 67.0084 65.6589 67.0251 65.9852L62.7766 66.3184ZM69.2325 67.8182C70.5751 75.8658 77.5712 82 86 82C95.3888 82 103 74.3888 103 65C103 55.6112 95.3888 48 86 48C82.1191 48 78.5419 49.3004 75.6805 51.4893L86.7698 64.8617C87.2872 65.4856 86.8863 66.4336 86.0782 66.4969L69.2325 67.8182ZM74.1656 52.7956L83.9992 64.6539L69.0198 65.8287C69.0067 65.5541 69 65.2778 69 65C69 60.2115 70.9798 55.8854 74.1656 52.7956ZM27.5637 64.1489L33.3032 48.8435C31.6345 48.2961 29.8518 48 28 48C18.6112 48 11 55.6112 11 65C11 74.3888 18.6112 82 28 82C37.3888 82 45 74.3888 45 65C45 58.1705 40.9728 52.2816 35.1636 49.5785L29.4363 64.8511C29.2424 65.3682 28.666 65.6302 28.1489 65.4363C27.6318 65.2424 27.3698 64.666 27.5637 64.1489Z" fill="#7C7D88"/>
</svg>
