<svg width="112" height="112" viewBox="0 0 112 112" fill="none" xmlns="http://www.w3.org/2000/svg">
<rect width="112" height="112" fill="white"/>
<path d="M36 20H75C75.5523 20 76 20.4477 76 21V59.3104L75.1084 61.1105C66.6548 78.1782 41.9631 77.1134 35.0102 59.3813C35.0034 59.3642 35 59.346 35 59.3275V21C35 20.4477 35.4477 20 36 20Z" stroke="#7C7D88" stroke-width="2" stroke-linejoin="round"/>
<path d="M76.5 30H87.3472C87.7153 30 88.021 30.2839 88.0482 30.651V30.651C88.6525 38.8092 85.674 46.826 79.8895 52.6105L76.5 56" stroke="#7C7D88" stroke-width="2" stroke-linecap="round" stroke-linejoin="round"/>
<path d="M34.5 30H23.6528C23.2847 30 22.979 30.2839 22.9518 30.651V30.651C22.3475 38.8092 25.326 46.826 31.1105 52.6105L34.5 56" stroke="#7C7D88" stroke-width="2" stroke-linecap="round" stroke-linejoin="round"/>
<path d="M57.6616 34.2766L59.4353 36.9242C59.9636 37.7126 60.7549 38.2875 61.6679 38.5462L64.734 39.4151C66.1033 39.8031 66.6406 41.4568 65.7609 42.5756L63.7911 45.0807C63.2045 45.8266 62.9022 46.7569 62.9383 47.7052L63.0595 50.8897C63.1136 52.3119 61.7069 53.3339 60.371 52.843L57.3798 51.7437C56.4891 51.4163 55.5109 51.4163 54.6202 51.7437L51.629 52.843C50.2931 53.3339 48.8864 52.3119 48.9405 50.8897L49.0617 47.7052C49.0978 46.7569 48.7955 45.8266 48.2089 45.0807L46.2391 42.5756C45.3594 41.4568 45.8967 39.8031 47.266 39.4151L50.3321 38.5462C51.2451 38.2875 52.0364 37.7126 52.5647 36.9242L54.3384 34.2766C55.1306 33.0943 56.8694 33.0943 57.6616 34.2766Z" stroke="#7C7D88" stroke-width="2"/>
<line x1="52" y1="74" x2="52" y2="95" stroke="#7C7D88" stroke-width="2" stroke-linecap="round"/>
<line x1="59" y1="74" x2="59" y2="95" stroke="#7C7D88" stroke-width="2" stroke-linecap="round"/>
<line x1="42" y1="96" x2="70" y2="96" stroke="#7C7D88" stroke-width="2" stroke-linecap="round"/>
</svg>
