<svg width="112" height="112" viewBox="0 0 112 112" fill="none" xmlns="http://www.w3.org/2000/svg">
<rect width="112" height="112" fill="white"/>
<path fill-rule="evenodd" clip-rule="evenodd" d="M25.8919 28.0982L31.75 35.0214L37.6081 28.0982L38.8444 30.5707L41.3659 31.2011L38.0223 35.5H45.5V40.5H44.5V58.5H19.5V40.5H18.5V35.5H25.4777L22.1341 31.2011L24.6556 30.5707L25.8919 28.0982ZM20.5 40.5V57.5H43.5V40.5H35V57H29V40.5H20.5ZM44.5 39.5H35V36.5H36.8284L37 36.5L37.2445 36.5H44.5V39.5ZM26.6716 36.5H29V39.5H19.5V36.5H26.2555L26.5 36.5L26.6716 36.5ZM26.7445 35.5H30.845L26.1081 29.9018L25.3444 31.4293L23.8659 31.7989L26.7445 35.5ZM32.655 35.5H36.7555L39.6341 31.7989L38.1556 31.4293L37.3919 29.9018L32.655 35.5ZM34 37H30V56H34V37Z" fill="#7C7D88"/>
<path d="M11.5 70L20.3797 62.4522C21.1029 61.8375 22.0211 61.5 22.9703 61.5H44.9862C44.995 61.5 45.0032 61.5039 45.0088 61.5106V61.5106C46.2582 63.0098 45.7274 65.2878 43.944 66.0804L43.0072 66.4968C43.0025 66.4989 42.9973 66.5 42.9921 66.5H29.5" stroke="#7C7D88" stroke-linecap="round"/>
<path d="M20.5 78.5L24.7021 73.831C24.8917 73.6203 25.1619 73.5 25.4454 73.5H42.5773C42.8475 73.5 43.1063 73.3906 43.2946 73.1968L59.9955 56.0047C59.9985 56.0016 60.0008 55.9979 60.0022 55.9939L60.0544 55.8503C60.8716 53.603 58.8146 51.3688 56.5076 51.9979V51.9979C56.5026 51.9993 56.4981 52.0019 56.4945 52.0055L48 60.5" stroke="#7C7D88" stroke-linecap="round"/>
<path fill-rule="evenodd" clip-rule="evenodd" d="M74.018 35.3607C74.6036 32.4327 77.6229 30.6806 80.4556 31.6248L81.3448 31.9212C81.7239 32.0476 81.992 32.3867 82.0273 32.7847L83.8951 53.7968C83.9553 54.4739 84.1844 55.1251 84.5615 55.6908C85.315 56.8211 86.5836 57.5 87.9421 57.5H88.5001V54.5H92.0001V52.5H100V53.5H93.0001V78.5H100V79.5H92.0001V77.5H88.5001V74.5002C88.0822 74.814 87.5629 75 87.0001 75H78.8246C78.5559 75 78.289 74.9567 78.034 74.8717L77.2536 74.6116C74.9381 73.8397 72.9637 72.2852 71.6701 70.2154L71.4381 69.8443C71.1447 69.3749 71.0154 68.8213 71.0705 68.2705L72.4471 54.5051C72.4924 54.0514 72.661 53.6187 72.9346 53.2539L74.0001 52V35.5421C74.0001 35.4812 74.0061 35.4204 74.018 35.3607ZM92.0001 76.5V55.5H89.5001V76.5H92.0001ZM87.9421 58.5H88.5001V72.5C88.5001 73.3284 87.8285 74 87.0001 74H78.8246C78.6634 74 78.5032 73.974 78.3503 73.923L77.5699 73.6629C75.4748 72.9645 73.6885 71.5581 72.5181 69.6854L72.2861 69.3143C72.1101 69.0326 72.0325 68.7005 72.0656 68.37L73.4421 54.6046C73.4693 54.3324 73.5705 54.0728 73.7346 53.8539L74.086 53.3854C74.5936 52.7087 75.2053 52.1167 75.8983 51.6316L76.6399 51.1125C77.634 50.4165 79.0001 51.1278 79.0001 52.3413V52.5089L79.5182 67.0175L80.5176 66.9818L80.0001 52.4911V52.3413C80.0001 50.3188 77.7234 49.1334 76.0664 50.2932L75.0001 51.1753V35.5495C75.4712 33.2158 77.8796 31.8202 80.1394 32.5735L81.0286 32.8699L81.0313 32.8733L82.899 53.8853C82.974 54.7291 83.2595 55.5406 83.7294 56.2455C84.6685 57.654 86.2493 58.5 87.9421 58.5Z" fill="#7C7D88"/>
</svg>
