<svg width="112" height="112" viewBox="0 0 112 112" fill="none" xmlns="http://www.w3.org/2000/svg">
<rect width="112" height="112" fill="white"/>
<path d="M81 33.5C81 34.5898 80.4573 35.7266 79.2662 36.8638C78.0727 38.0034 76.2925 39.0757 74.0103 39.9974C69.4512 41.8386 63.084 43 56 43C48.916 43 42.5488 41.8386 37.9897 39.9974C35.7075 39.0757 33.9273 38.0034 32.7338 36.8638C31.5427 35.7266 31 34.5898 31 33.5C31 32.4102 31.5427 31.2734 32.7338 30.1362C33.9273 28.9966 35.7075 27.9243 37.9897 27.0026C42.5488 25.1614 48.916 24 56 24C63.084 24 69.4512 25.1614 74.0103 27.0026C76.2925 27.9243 78.0727 28.9966 79.2662 30.1362C80.4573 31.2734 81 32.4102 81 33.5Z" stroke="#7C7D88" stroke-width="2"/>
<path d="M75 68C75 68.741 74.6287 69.5481 73.7412 70.3874C72.8516 71.2287 71.5107 72.0324 69.7707 72.7284C66.2965 74.1181 61.4282 75 56 75C50.5718 75 45.7035 74.1181 42.2293 72.7284C40.4893 72.0324 39.1484 71.2287 38.2588 70.3874C37.3713 69.5481 37 68.741 37 68C37 67.259 37.3713 66.4519 38.2588 65.6126C39.1484 64.7713 40.4893 63.9676 42.2293 63.2716C45.7035 61.8819 50.5718 61 56 61C61.4282 61 66.2965 61.8819 69.7707 63.2716C71.5107 63.9676 72.8516 64.7713 73.7412 65.6126C74.6287 66.4519 75 67.259 75 68Z" stroke="#7C7D88" stroke-width="2"/>
<path d="M72 96.5C72 100.09 65.3888 102 56 102C46.6112 102 40 100.09 40 96.5" stroke="#7C7D88" stroke-width="2"/>
<line x1="30.9899" y1="33.8586" x2="39.9899" y2="96.8586" stroke="#7C7D88" stroke-width="2"/>
<line y1="-1" x2="63.6396" y2="-1" transform="matrix(-0.141421 0.989949 0.989949 0.141421 82 34)" stroke="#7C7D88" stroke-width="2"/>
</svg>
