<svg width="112" height="112" viewBox="0 0 112 112" fill="none" xmlns="http://www.w3.org/2000/svg">
<rect width="112" height="112" fill="white"/>
<circle cx="23.5926" cy="31.5408" r="6.54076" stroke="#7C7D88" stroke-width="2"/>
<path fill-rule="evenodd" clip-rule="evenodd" d="M32.5396 48.6255L35.1858 63.817H31.613L31.9492 65.817H35.1858C36.4276 65.817 37.3692 64.6972 37.1561 63.4738L34.5099 48.2823C33.5678 42.8738 29.0682 38.799 23.5932 38.396C18.1181 38.799 13.6185 42.8738 12.6764 48.2823L10.0302 63.4738C9.8171 64.6972 10.7587 65.817 12.0005 65.817H16.0861L16.3869 63.817H12.0005L14.6467 48.6255C15.423 44.1689 19.0992 40.7994 23.5932 40.4025C28.0871 40.7994 31.7633 44.1689 32.5396 48.6255Z" fill="#7C7D88"/>
<path d="M17.0801 49.3644L14.2002 80.0829C14.0903 81.256 15.0132 82.2696 16.1915 82.2696H30.6509C31.8292 82.2696 32.7521 81.256 32.6421 80.0829L29.7623 49.3644" stroke="#7C7D88" stroke-width="2" stroke-linecap="round"/>
<line x1="23.5577" y1="67.3798" x2="23.5577" y2="81.1468" stroke="#7C7D88" stroke-width="2" stroke-linecap="round"/>
<circle cx="55.6858" cy="37.5408" r="6.54076" stroke="#7C7D88" stroke-width="2"/>
<path fill-rule="evenodd" clip-rule="evenodd" d="M64.6327 54.6255L67.2789 69.817H63.7062L64.0423 71.817H67.2789C68.5207 71.817 69.4623 70.6972 69.2492 69.4738L66.603 54.2823C65.6609 48.8738 61.1614 44.799 55.6863 44.396C50.2112 44.799 45.7116 48.8738 44.7695 54.2823L42.1233 69.4738C41.9102 70.6972 42.8519 71.817 44.0937 71.817H48.1793L48.48 69.817H44.0937L46.7399 54.6255C47.5162 50.1689 51.1923 46.7994 55.6863 46.4025C60.1803 46.7994 63.8564 50.1689 64.6327 54.6255Z" fill="#7C7D88"/>
<path d="M49.1732 55.3644L46.2934 86.0829C46.1834 87.256 47.1063 88.2696 48.2846 88.2696H62.744C63.9223 88.2696 64.8453 87.256 64.7353 86.0829L61.8554 55.3644" stroke="#7C7D88" stroke-width="2" stroke-linecap="round"/>
<line x1="55.6509" y1="73.3798" x2="55.6509" y2="87.1468" stroke="#7C7D88" stroke-width="2" stroke-linecap="round"/>
<circle cx="87.6858" cy="31.5408" r="6.54076" stroke="#7C7D88" stroke-width="2"/>
<path fill-rule="evenodd" clip-rule="evenodd" d="M96.6327 48.6255L99.2789 63.817H95.7062L96.0423 65.817H99.2789C100.521 65.817 101.462 64.6972 101.249 63.4738L98.603 48.2823C97.6609 42.8738 93.1614 38.799 87.6863 38.396C82.2112 38.799 77.7116 42.8738 76.7695 48.2823L74.1233 63.4738C73.9102 64.6972 74.8519 65.817 76.0937 65.817H80.1793L80.48 63.817H76.0937L78.7399 48.6255C79.5162 44.1689 83.1923 40.7994 87.6863 40.4025C92.1803 40.7994 95.8564 44.1689 96.6327 48.6255Z" fill="#7C7D88"/>
<path d="M81.1732 49.3644L78.2934 80.0829C78.1834 81.256 79.1063 82.2696 80.2846 82.2696H94.744C95.9223 82.2696 96.8453 81.256 96.7353 80.0829L93.8554 49.3644" stroke="#7C7D88" stroke-width="2" stroke-linecap="round"/>
<line x1="87.6509" y1="67.3798" x2="87.6509" y2="81.1468" stroke="#7C7D88" stroke-width="2" stroke-linecap="round"/>
<path d="M23.5931 51.575L24.4212 54.0485C24.5577 54.4562 24.9395 54.731 25.3694 54.731H28.0165L25.9009 56.2228C25.5399 56.4774 25.3887 56.9387 25.5289 57.3575L26.343 59.7893L24.1694 58.2566C23.8239 58.0129 23.3624 58.0129 23.0168 58.2566L20.8433 59.7893L21.6573 57.3575C21.7976 56.9387 21.6464 56.4774 21.2854 56.2228L19.1698 54.731H21.8168C22.2468 54.731 22.6286 54.4562 22.7651 54.0485L23.5931 51.575Z" stroke="#7C7D88"/>
<path d="M55.6863 57.575L56.5143 60.0485C56.6508 60.4562 57.0326 60.731 57.4626 60.731H60.1096L57.9941 62.2228C57.6331 62.4774 57.4818 62.9387 57.6221 63.3575L58.4362 65.7893L56.2626 64.2566C55.917 64.0129 55.4555 64.0129 55.11 64.2566L52.9364 65.7893L53.7505 63.3575C53.8907 62.9387 53.7395 62.4774 53.3785 62.2228L51.2629 60.731H53.91C54.3399 60.731 54.7218 60.4562 54.8583 60.0485L55.6863 57.575Z" stroke="#7C7D88"/>
<path d="M87.6863 51.575L88.5143 54.0485C88.6508 54.4562 89.0326 54.731 89.4626 54.731H92.1096L89.9941 56.2228C89.6331 56.4774 89.4818 56.9387 89.6221 57.3575L90.4362 59.7893L88.2626 58.2566C87.917 58.0129 87.4555 58.0129 87.11 58.2566L84.9364 59.7893L85.7505 57.3575C85.8907 56.9387 85.7395 56.4774 85.3785 56.2228L83.2629 54.731H85.91C86.3399 54.731 86.7218 54.4562 86.8583 54.0485L87.6863 51.575Z" stroke="#7C7D88"/>
</svg>
