<svg width="112" height="112" viewBox="0 0 112 112" fill="none" xmlns="http://www.w3.org/2000/svg">
<rect width="112" height="112" fill="white"/>
<path d="M47 68H40V66H47V68Z" fill="#7C7D88"/>
<path d="M67 68H74V66H67V68Z" fill="#7C7D88"/>
<path fill-rule="evenodd" clip-rule="evenodd" d="M74 26C74 33.3263 69.623 39.6304 63.3413 42.4398C73.7384 43.1261 82 51.7806 82 62.396V103H30L30.6786 62.2848C30.8519 51.886 38.9473 43.4217 49.2017 42.672C42.6307 39.9898 38 33.5357 38 26C38 16.0589 46.0589 8 56 8C65.9411 8 74 16.0589 74 26ZM56 42C64.8366 42 72 34.8366 72 26C72 17.1634 64.8366 10 56 10C47.1634 10 40 17.1634 40 26C40 34.8366 47.1634 42 56 42ZM61.6471 44.3995L50.3229 44.6215C47.1562 44.6836 44.1913 45.5615 41.6291 47.0536L57.0349 66.4772L72.0941 47.4906C69.122 45.4738 65.5175 44.3236 61.6471 44.3995ZM56 68.4011L55.7863 68.1214L39.9532 48.1591C35.6119 51.3833 32.775 56.5161 32.6783 62.3181L32.0336 101H56V68.4011ZM58 101V68.5L58.2835 68.1214L73.6846 48.7037C77.5465 52.0023 80 56.908 80 62.396V101H58Z" fill="#7C7D88"/>
</svg>
