<svg width="112" height="112" viewBox="0 0 112 112" fill="none" xmlns="http://www.w3.org/2000/svg">
<rect width="112" height="112" fill="white"/>
<path fill-rule="evenodd" clip-rule="evenodd" d="M66.702 57.2688L69.9764 76.0666H65.6419L65.978 78.0666H69.9764C71.2182 78.0666 72.1598 76.9468 71.9467 75.7234L68.6723 56.9256C67.7281 51.5051 63.2185 47.4211 57.7312 47.0173L56.4885 46.9258L55.2457 47.0173C49.7584 47.4211 45.2488 51.5051 44.3046 56.9256L41.0302 75.7234C40.8171 76.9468 41.7587 78.0666 43.0005 78.0666H47.963L48.2638 76.0666H43.0005L46.2749 57.2688C47.0618 52.7517 50.8198 49.3484 55.3926 49.0119L56.4885 48.9312L57.5844 49.0119C62.1571 49.3484 65.9151 52.7517 66.702 57.2688Z" fill="#7C7D88"/>
<path d="M49.092 59.3822L45.7936 94.5645C45.6836 95.7376 46.6066 96.7512 47.7849 96.7512H64.8017C65.98 96.7512 66.9029 95.7376 66.793 94.5645L63.4946 59.3822" stroke="#7C7D88" stroke-width="2" stroke-linecap="round"/>
<line x1="47.9243" y1="68.5029" x2="65.0518" y2="68.5029" stroke="#7C7D88" stroke-width="2"/>
<line x1="56.7097" y1="79.8452" x2="56.7097" y2="95.7512" stroke="#7C7D88" stroke-width="2" stroke-linecap="round"/>
<path d="M56.2338 16.7859L62.7285 33.0145C58.7681 34.8319 54.2069 34.8285 50.2488 33.0042L56.2338 16.7859Z" stroke="#7C7D88" stroke-width="2"/>
<path fill-rule="evenodd" clip-rule="evenodd" d="M49.2455 34.5683C48.4086 35.8912 47.9241 37.4593 47.9241 39.1406C47.9241 43.8702 51.7582 47.7043 56.4878 47.7043C61.2174 47.7043 65.0515 43.8702 65.0515 39.1406C65.0515 37.4596 64.5672 35.8918 63.7305 34.569L61.6605 35.0995C62.532 36.2136 63.0515 37.6164 63.0515 39.1406C63.0515 42.7656 60.1129 45.7043 56.4878 45.7043C52.8628 45.7043 49.9241 42.7656 49.9241 39.1406C49.9241 37.6329 50.4324 36.2439 51.2871 35.1357L49.2455 34.5683Z" fill="#7C7D88"/>
</svg>
