<svg width="112" height="112" viewBox="0 0 112 112" fill="none" xmlns="http://www.w3.org/2000/svg">
<g clip-path="url(#clip0_20_31)">
<rect width="112" height="112" fill="white"/>
<path d="M56 20.8428L60.6891 31.1838C61.2712 32.4675 62.486 33.3501 63.8868 33.507L75.1706 34.7711L66.7848 42.4262C65.7438 43.3765 65.2798 44.8046 65.5634 46.1853L67.8481 57.3074L57.9763 51.6976C56.7508 51.0012 55.2492 51.0012 54.0237 51.6976L44.1519 57.3074L46.4366 46.1853C46.7202 44.8046 46.2562 43.3765 45.2152 42.4262L36.8294 34.7711L48.1132 33.507C49.514 33.3501 50.7288 32.4675 51.3109 31.1838L56 20.8428Z" stroke="#7C7D88" stroke-width="4"/>
<path d="M33.2163 16.3037C36.2456 15.4217 38.8733 13.5126 40.6482 10.9041C43.1064 7.29135 47.6976 5.7996 51.8098 7.27747C54.7789 8.34454 58.027 8.34454 60.9961 7.27747C65.1083 5.7996 69.6995 7.29135 72.1576 10.9041C73.9325 13.5126 76.5603 15.4217 79.5896 16.3037C83.7851 17.5251 86.6226 21.4306 86.4878 25.7982C86.3905 28.9518 87.3942 32.0409 89.3265 34.535C92.0028 37.9892 92.0028 42.8167 89.3265 46.2709C87.3942 48.765 86.3905 51.8541 86.4878 55.0077C86.6226 59.3753 83.7851 63.2808 79.5896 64.5022C76.5603 65.3842 73.9325 67.2933 72.1577 69.9018C69.6995 73.5146 65.1083 75.0063 60.9961 73.5284C58.027 72.4614 54.7789 72.4614 51.8098 73.5284C47.6976 75.0063 43.1064 73.5146 40.6482 69.9018C38.8733 67.2933 36.2456 65.3842 33.2163 64.5022C29.0208 63.2808 26.1833 59.3753 26.3181 55.0077C26.4154 51.8541 25.4117 48.765 23.4794 46.2709C20.8031 42.8167 20.8031 37.9892 23.4794 34.535C25.4117 32.0409 26.4154 28.9518 26.3181 25.7982C26.1833 21.4306 29.0208 17.5251 33.2163 16.3037Z" stroke="#7C7D88" stroke-width="4"/>
<path fill-rule="evenodd" clip-rule="evenodd" d="M59.3037 89.1496L64.0075 100.792C64.5883 102.229 66.5131 102.488 67.4527 101.255L72.5855 94.5178C73.0388 93.9229 73.7862 93.6306 74.5229 93.7602L82.3037 95.1289C83.8504 95.401 85.0929 93.866 84.5046 92.4099L75.0464 69L72.2027 72.6396L79.4449 90.5646L75.2159 89.8207C73.0059 89.4319 70.7637 90.3088 69.4038 92.0937L66.4001 96.036L62.1473 85.51L59.3037 89.1496Z" fill="#7C7D88"/>
<path fill-rule="evenodd" clip-rule="evenodd" d="M52.3206 79.2671L52.0772 79.7891L51.3501 81.3482L45.9842 92.8556L45.6645 93.5411L43.643 97.8763L42.4515 94.7758C42.2098 94.1471 41.8727 93.5807 41.4623 93.0879C40.0087 91.3426 37.636 90.5208 35.3334 91.1231C35.3116 91.1288 35.2898 91.1347 35.268 91.1406L30.275 92.5061L32.4914 87.7531L37.6921 76.6L39.0489 73.6905L39.4236 72.8868L35.4236 72L26.6498 90.8157L24.8249 94.7291C24.1049 96.2732 25.5217 97.9529 27.1651 97.5035L31.3302 96.3644L36.3232 94.9989C37.3141 94.728 38.3492 95.2518 38.7177 96.2107L39.9092 99.3112L41.5985 103.707C42.2315 105.354 44.5322 105.434 45.278 103.835L47.2682 99.5668L56.0772 80.6759L56.6658 79.4135L57.8087 76.9626L54.0588 76.1313L52.3206 79.2671Z" fill="#7C7D88"/>
</g>
<defs>
<clipPath id="clip0_20_31">
<rect width="112" height="112" fill="white"/>
</clipPath>
</defs>
</svg>
