<svg width="112" height="112" viewBox="0 0 112 112" fill="none" xmlns="http://www.w3.org/2000/svg">
<rect width="112" height="112" fill="white"/>
<path d="M50 26L28 98M61.8947 26L84 98" stroke="#7C7D88" stroke-width="2"/>
<mask id="path-2-inside-1_45_1079" fill="white">
<path fill-rule="evenodd" clip-rule="evenodd" d="M47 91.3191C35.3896 92.1678 27 94.6143 27 97.5C27 101.09 39.9837 104 56 104C72.0163 104 85 101.09 85 97.5C85 94.6979 77.0891 92.3098 66 91.3968V93.4037C69.8401 93.7259 73.2652 94.227 76.0687 94.8554C78.6179 95.4268 80.5443 96.0798 81.7846 96.7371C82.366 97.0452 82.7121 97.3105 82.8974 97.5C82.7121 97.6895 82.366 97.9548 81.7846 98.2629C80.5443 98.9201 78.6179 99.5732 76.0687 100.145C71.0025 101.28 63.9062 102 56 102C48.0938 102 40.9975 101.28 35.9313 100.145C33.3821 99.5732 31.4557 98.9201 30.2154 98.2629C29.634 97.9548 29.2879 97.6895 29.1026 97.5C29.2879 97.3105 29.634 97.0452 30.2154 96.7371C31.4557 96.0798 33.3821 95.4268 35.9313 94.8554C38.9759 94.173 42.7538 93.6407 47 93.3245V91.3191ZM83.0291 97.3383C83.0292 97.3383 83.0285 97.3399 83.0267 97.343C83.0281 97.3399 83.029 97.3383 83.0291 97.3383ZM28.9709 97.3383C28.971 97.3383 28.9719 97.3399 28.9733 97.343C28.9715 97.3399 28.9708 97.3383 28.9709 97.3383ZM28.9709 97.6617C28.9708 97.6617 28.9715 97.6601 28.9733 97.657C28.9719 97.6601 28.971 97.6617 28.9709 97.6617ZM83.0267 97.657C83.0285 97.6601 83.0292 97.6617 83.0291 97.6617C83.029 97.6617 83.0281 97.6601 83.0267 97.657Z"/>
</mask>
<path d="M47 91.3191H49V89.1675L46.8542 89.3244L47 91.3191ZM66 91.3968L66.1641 89.4035L64 89.2253V91.3968H66ZM66 93.4037H64V95.2429L65.8328 95.3967L66 93.4037ZM76.0687 94.8554L75.6312 96.807L75.6312 96.807L76.0687 94.8554ZM81.7846 96.7371L82.721 94.9699L82.721 94.9699L81.7846 96.7371ZM82.8974 97.5L84.3275 98.8982L85.6944 97.5L84.3275 96.1018L82.8974 97.5ZM81.7846 98.2629L82.721 100.03L82.721 100.03L81.7846 98.2629ZM76.0687 100.145L76.5061 102.096L76.5061 102.096L76.0687 100.145ZM35.9313 100.145L35.4939 102.096L35.4939 102.096L35.9313 100.145ZM30.2154 98.2629L29.279 100.03L29.279 100.03L30.2154 98.2629ZM29.1026 97.5L27.6725 96.1018L26.3056 97.5L27.6725 98.8982L29.1026 97.5ZM30.2154 96.7371L29.279 94.9699L29.279 94.9699L30.2154 96.7371ZM35.9313 94.8554L35.4939 92.9038L35.4939 92.9038L35.9313 94.8554ZM47 93.3245L47.1485 95.319L49 95.1812V93.3245H47ZM83.0267 97.343L81.204 96.5198L84.7693 98.3244L83.0267 97.343ZM28.9733 97.343L27.2308 98.3246L30.796 96.5197L28.9733 97.343ZM28.9733 97.657L30.796 98.4803L27.2308 96.6753L28.9733 97.657ZM83.0267 97.657L84.7694 96.6757L81.2038 98.4798L83.0267 97.657ZM46.8542 89.3244C40.9679 89.7547 35.8073 90.5947 32.0646 91.7321C30.2072 92.2965 28.5826 92.9684 27.3792 93.7746C26.257 94.5263 25 95.7426 25 97.5H29C29 97.8146 28.7917 97.6429 29.6054 97.0978C30.3378 96.6072 31.5363 96.0733 33.2276 95.5593C36.5823 94.5398 41.4217 93.7322 47.1458 93.3138L46.8542 89.3244ZM25 97.5C25 98.5949 25.5039 99.4923 26.1121 100.158C26.7102 100.813 27.497 101.349 28.3425 101.797C30.0371 102.695 32.3578 103.443 35.0565 104.048C40.4863 105.265 47.8899 106 56 106V102C48.0938 102 40.9975 101.28 35.9313 100.145C33.3821 99.5732 31.4557 98.9201 30.2154 98.2629C29.5935 97.9333 29.2408 97.6527 29.0662 97.4615C28.9018 97.2814 29 97.3025 29 97.5H25ZM56 106C64.1101 106 71.5137 105.265 76.9435 104.048C79.6422 103.443 81.9629 102.695 83.6575 101.797C84.503 101.349 85.2898 100.813 85.8879 100.158C86.4961 99.4923 87 98.5949 87 97.5H83C83 97.3025 83.0982 97.2814 82.9338 97.4615C82.7592 97.6527 82.4065 97.9333 81.7846 98.2629C80.5443 98.9201 78.6179 99.5732 76.0687 100.145C71.0025 101.28 63.9062 102 56 102V106ZM87 97.5C87 95.7912 85.809 94.5944 84.7276 93.8472C83.5768 93.0521 82.0266 92.39 80.2602 91.8327C76.7004 90.7094 71.788 89.8666 66.1641 89.4035L65.8359 93.39C71.301 93.84 75.8887 94.6477 79.0566 95.6473C80.654 96.1513 81.7746 96.6688 82.4537 97.138C83.2022 97.6552 83 97.8077 83 97.5H87ZM64 91.3968V93.4037H68V91.3968H64ZM76.5061 92.9038C73.5931 92.2509 70.0745 91.7386 66.1672 91.4107L65.8328 95.3967C69.6056 95.7133 72.9373 96.2032 75.6312 96.807L76.5061 92.9038ZM82.721 94.9699C81.2534 94.1922 79.1298 93.4919 76.5061 92.9038L75.6312 96.807C78.106 97.3617 79.8351 97.9675 80.8481 98.5043L82.721 94.9699ZM84.3275 96.1018C83.9495 95.7152 83.4121 95.3361 82.721 94.9699L80.8481 98.5043C81.3199 98.7544 81.4747 98.9058 81.4673 98.8982L84.3275 96.1018ZM82.721 100.03C83.4121 99.6639 83.9495 99.2848 84.3275 98.8982L81.4673 96.1018C81.4747 96.0942 81.3199 96.2456 80.8481 96.4957L82.721 100.03ZM76.5061 102.096C79.1298 101.508 81.2534 100.808 82.721 100.03L80.8481 96.4957C79.8351 97.0325 78.106 97.6383 75.6312 98.193L76.5061 102.096ZM56 104C64.0081 104 71.2581 103.272 76.5061 102.096L75.6312 98.193C70.7469 99.2878 63.8042 100 56 100V104ZM35.4939 102.096C40.7419 103.272 47.9919 104 56 104V100C48.1958 100 41.2531 99.2878 36.3687 98.193L35.4939 102.096ZM29.279 100.03C30.7466 100.808 32.8702 101.508 35.4939 102.096L36.3687 98.193C33.894 97.6383 32.1649 97.0325 31.1519 96.4957L29.279 100.03ZM27.6725 98.8982C28.0505 99.2848 28.5879 99.6639 29.279 100.03L31.1519 96.4957C30.6801 96.2456 30.5253 96.0942 30.5327 96.1018L27.6725 98.8982ZM29.279 94.9699C28.5879 95.3361 28.0505 95.7152 27.6725 96.1018L30.5327 98.8982C30.5253 98.9058 30.6801 98.7544 31.1519 98.5043L29.279 94.9699ZM35.4939 92.9038C32.8702 93.4919 30.7466 94.1922 29.279 94.9699L31.1519 98.5043C32.1649 97.9675 33.894 97.3617 36.3687 96.807L35.4939 92.9038ZM46.8515 91.33C42.5345 91.6515 38.6564 92.195 35.4939 92.9038L36.3687 96.807C39.2954 96.151 42.9731 95.6299 47.1485 95.319L46.8515 91.33ZM49 93.3245V91.3191H45V93.3245H49ZM83.2055 99.3305C82.8521 99.3618 82.4031 99.304 81.9735 99.037C81.5573 98.7784 81.3274 98.4279 81.2083 98.1657C81.0039 97.7159 81.0275 97.3182 81.0317 97.2366C81.0442 96.9902 81.1021 96.8024 81.1091 96.7782C81.1411 96.6685 81.176 96.5859 81.1827 96.5698C81.2063 96.5129 81.2275 96.4698 81.2351 96.4543C81.2552 96.4136 81.2728 96.3815 81.284 96.3616L84.7693 98.3244C84.7823 98.3013 84.8012 98.2669 84.8221 98.2246C84.8301 98.2083 84.8515 98.1646 84.8753 98.1074C84.8821 98.0911 84.917 98.0083 84.949 97.8985C84.9561 97.8742 85.014 97.6864 85.0265 97.4401C85.0307 97.3584 85.0543 96.9607 84.8499 96.5109C84.7308 96.2487 84.5009 95.8982 84.0847 95.6396C83.6551 95.3726 83.206 95.3148 82.8527 95.3461L83.2055 99.3305ZM84.8494 98.1663C84.8384 98.1906 84.8225 98.2244 84.8017 98.2644C84.7929 98.2812 84.7733 98.3183 84.7459 98.3642C84.7354 98.3818 84.7028 98.4361 84.6556 98.5021C84.6363 98.529 84.5791 98.6083 84.494 98.6999C84.454 98.7429 84.3643 98.8363 84.2334 98.935C84.1663 98.9857 84.0576 99.0612 83.9125 99.1326C83.7753 99.2001 83.5302 99.3017 83.2055 99.3305L82.8527 95.3461C82.2701 95.3977 81.8926 95.6903 81.8247 95.7416C81.6938 95.8403 81.6041 95.9337 81.5641 95.9767C81.479 96.0683 81.4217 96.1477 81.4024 96.1747C81.3552 96.2407 81.3225 96.2952 81.3118 96.313C81.2842 96.3593 81.2643 96.397 81.2551 96.4146C81.2334 96.4561 81.2164 96.4923 81.204 96.5198L84.8494 98.1663ZM28.8355 99.3337C28.5035 99.3112 28.2514 99.211 28.1094 99.1432C27.9597 99.0718 27.8477 98.9953 27.7785 98.944C27.6439 98.844 27.5517 98.7488 27.5109 98.7052C27.424 98.6123 27.3656 98.5316 27.3461 98.5045C27.2982 98.4377 27.2652 98.3827 27.2546 98.365C27.2269 98.3187 27.2072 98.2813 27.1984 98.2646C27.1775 98.2245 27.1616 98.1906 27.1506 98.1663L30.796 96.5197C30.7836 96.4923 30.7665 96.456 30.7448 96.4144C30.7356 96.3968 30.7156 96.3588 30.6876 96.3121C30.677 96.2943 30.6438 96.2391 30.5959 96.1723C30.5763 96.1451 30.5179 96.0643 30.4309 95.9714C30.3901 95.9278 30.298 95.8326 30.1633 95.7326C30.0929 95.6803 29.7036 95.3834 29.1064 95.3429L28.8355 99.3337ZM30.7159 96.3614C30.727 96.3812 30.7446 96.4132 30.7647 96.4539C30.7723 96.4694 30.7935 96.5127 30.8173 96.5697C30.824 96.5859 30.8589 96.6686 30.8909 96.7784C30.8982 96.8034 30.9555 96.9897 30.9682 97.2343C30.9725 97.3173 30.9955 97.7059 30.7996 98.1481C30.6862 98.4042 30.4662 98.7511 30.0627 99.014C29.6433 99.2872 29.1969 99.3582 28.8355 99.3337L29.1064 95.3429C28.745 95.3183 28.2985 95.3893 27.8792 95.6626C27.4757 95.9254 27.2556 96.2723 27.1422 96.5284C26.9464 96.9707 26.9693 97.3593 26.9736 97.4423C26.9863 97.6869 27.0436 97.8733 27.0509 97.8983C27.0829 98.0082 27.1179 98.0911 27.1247 98.1075C27.1486 98.1649 27.1701 98.2087 27.1781 98.225C27.199 98.2673 27.2178 98.3017 27.2308 98.3246L30.7159 96.3614ZM28.8253 95.667C29.1849 95.6408 29.6323 95.7086 30.0544 95.9806C30.4611 96.2427 30.6834 96.5907 30.798 96.8483C30.9957 97.2923 30.9725 97.683 30.9682 97.7656C30.9555 98.0105 30.8981 98.197 30.8909 98.2218C30.8589 98.3315 30.824 98.4142 30.8173 98.4304C30.7935 98.4873 30.7724 98.5305 30.7647 98.546C30.7446 98.5867 30.727 98.6188 30.7158 98.6386L27.2308 96.6753C27.2178 96.6983 27.199 96.7328 27.1781 96.7751C27.1701 96.7913 27.1486 96.8351 27.1247 96.8924C27.1179 96.9088 27.083 96.9917 27.051 97.1014C27.0437 97.1263 26.9863 97.3129 26.9736 97.5578C26.9693 97.6404 26.9461 98.0311 27.1438 98.4751C27.2584 98.7327 27.4807 99.0807 27.8874 99.3428C28.3095 99.6148 28.7569 99.6827 29.1165 99.6564L28.8253 95.667ZM27.1506 96.8336C27.1616 96.8094 27.1775 96.7755 27.1984 96.7354C27.2072 96.7187 27.2269 96.6814 27.2545 96.6352C27.265 96.6175 27.2979 96.5627 27.3456 96.4962C27.3651 96.4691 27.4231 96.3887 27.5097 96.2962C27.5502 96.2527 27.6417 96.158 27.7755 96.0583C27.8441 96.0071 27.9553 95.9309 28.1039 95.8594C28.2446 95.7917 28.495 95.6911 28.8253 95.667L29.1165 99.6564C29.7103 99.613 30.0966 99.3171 30.1664 99.2651C30.3001 99.1654 30.3916 99.0707 30.4322 99.0272C30.5188 98.9346 30.5769 98.8542 30.5963 98.8271C30.6441 98.7604 30.6771 98.7055 30.6878 98.6876C30.7156 98.641 30.7357 98.6031 30.7448 98.5856C30.7665 98.544 30.7836 98.5077 30.796 98.4803L27.1506 96.8336ZM81.284 98.6383C81.2731 98.6191 81.2558 98.5875 81.2359 98.5472C81.2284 98.532 81.2071 98.4888 81.1833 98.4317C81.1765 98.4155 81.1414 98.3324 81.1092 98.2221C81.1017 98.1964 81.0446 98.0105 81.0318 97.7663C81.0274 97.6813 81.0054 97.2996 81.1953 96.8634C81.3047 96.6122 81.5167 96.2705 81.9075 96.0058C82.3154 95.7295 82.7563 95.6467 83.1227 95.6639L82.9354 99.6595C83.3018 99.6767 83.7428 99.5939 84.1507 99.3176C84.5415 99.0529 84.7535 98.7112 84.8629 98.46C85.0528 98.0238 85.0308 97.6421 85.0264 97.5571C85.0136 97.3129 84.9565 97.1269 84.9489 97.1011C84.9167 96.9908 84.8816 96.9075 84.8747 96.8911C84.8507 96.8336 84.8292 96.7898 84.8213 96.7738C84.8006 96.732 84.782 96.6981 84.7694 96.6757L81.284 98.6383ZM83.1227 95.6639C83.4599 95.6797 83.7178 95.7771 83.8648 95.8447C84.0191 95.9157 84.1347 95.9928 84.2061 96.0447C84.345 96.1459 84.4399 96.2428 84.4818 96.2871C84.5712 96.3816 84.6311 96.4639 84.6509 96.4914C84.6998 96.5592 84.7335 96.6152 84.7442 96.633C84.7724 96.68 84.7924 96.7179 84.8013 96.7348C84.8224 96.7754 84.8385 96.8097 84.8496 96.8341L81.2038 98.4798C81.2163 98.5074 81.2335 98.5441 81.2555 98.5862C81.2648 98.6039 81.2851 98.6424 81.3135 98.6898C81.3243 98.7078 81.3581 98.7639 81.4071 98.8319C81.427 98.8594 81.4869 98.9418 81.5763 99.0363C81.6182 99.0806 81.7131 99.1775 81.8521 99.2787C81.9265 99.3328 82.3265 99.631 82.9354 99.6595L83.1227 95.6639Z" fill="#7C7D88" mask="url(#path-2-inside-1_45_1079)"/>
<path d="M51.4782 54.3412C51.4782 57.395 53.6784 59.6824 56.1723 59.6824C58.6663 59.6824 60.8665 57.395 60.8665 54.3412C60.8665 51.2874 58.6663 49 56.1723 49C53.6784 49 51.4782 51.2874 51.4782 54.3412Z" stroke="#7C7D88" stroke-width="2"/>
<path fill-rule="evenodd" clip-rule="evenodd" d="M50.024 67.9634L47.9591 81.1647H50.1639L49.8621 83.1647H47.9591C46.7313 83.1647 45.7934 82.0687 45.9832 80.8556L48.048 67.6543C48.6878 63.5641 52.0456 60.4441 56.1717 60.1059C60.2979 60.4441 63.6556 63.564 64.2954 67.6543L66.3603 80.8556C66.55 82.0687 65.6121 83.1647 64.3843 83.1647H61.8404L61.5704 81.1647H64.3843L62.3194 67.9634C61.8309 64.8399 59.3022 62.4448 56.1717 62.1145C53.0413 62.4448 50.5126 64.8399 50.024 67.9634Z" fill="#7C7D88"/>
<path d="M60.7392 69.3294L62.8233 94.8371C62.9185 96.0021 61.9987 97 60.8299 97H51.354C50.1852 97 49.2654 96.0021 49.3606 94.8371L51.4447 69.3294" stroke="#7C7D88" stroke-width="2" stroke-linecap="round"/>
<line y1="-1" x2="11.0529" y2="-1" transform="matrix(-1 0 0 1 61.4927 76.8235)" stroke="#7C7D88" stroke-width="2"/>
<line x1="1" y1="-1" x2="12.2588" y2="-1" transform="matrix(0 1 1 0 57 83.6364)" stroke="#7C7D88" stroke-width="2" stroke-linecap="round"/>
<path d="M62 25.7273C62 25.9261 61.9402 26.048 61.7947 26.1742C61.6103 26.3341 61.2709 26.5055 60.7069 26.6467C59.5757 26.9299 57.9428 27 56 27C54.0572 27 52.4243 26.9299 51.2931 26.6467C50.7291 26.5055 50.3897 26.3341 50.2053 26.1742C50.0598 26.048 50 25.9261 50 25.7273C50 25.396 50.2167 24.9502 51.3722 24.5573C52.4842 24.1791 54.1049 24 56 24C57.8951 24 59.5158 24.1791 60.6278 24.5573C61.7833 24.9502 62 25.396 62 25.7273Z" stroke="#7C7D88" stroke-width="2"/>
<path d="M66 25.5C66 26.2194 65.8299 26.8154 65.5104 27.318C65.1883 27.8248 64.6787 28.2925 63.9165 28.6944C62.3636 29.5131 59.8724 30 56.2558 30C52.6436 30 50.0087 29.5147 48.3141 28.6815C46.6754 27.8758 46 26.8042 46 25.5C46 24.1958 46.6754 23.1242 48.3141 22.3185C50.0087 21.4853 52.6436 21 56.2558 21C59.8724 21 62.3636 21.4869 63.9165 22.3056C64.6787 22.7075 65.1883 23.1752 65.5104 23.682C65.8299 24.1846 66 24.7806 66 25.5Z" stroke="#7C7D88" stroke-width="2"/>
<path d="M65 24L64.0886 14.0389C63.9791 12.8416 63.2604 11.7853 62.187 11.2438L61.969 11.1338C58.072 9.16796 53.4641 9.21181 49.6053 11.2515V11.2515C48.5885 11.789 47.9162 12.8081 47.8223 13.9544L47 24" stroke="#7C7D88" stroke-width="2"/>
</svg>
