<svg width="112" height="112" viewBox="0 0 112 112" fill="none" xmlns="http://www.w3.org/2000/svg">
<rect width="112" height="112" fill="white"/>
<path d="M19.4237 40.6504L40.6504 19.4237L70.6694 19.4237L91.8961 40.6504L91.8961 70.6694L70.6694 91.8961L40.6504 91.8961L19.4237 70.6694L19.4237 40.6504Z" stroke="#7C7D88" stroke-width="2"/>
<path d="M38.3395 52.4531C38.2732 51.8329 37.9938 51.3499 37.5014 51.0043C37.0137 50.6586 36.3793 50.4858 35.598 50.4858C35.0488 50.4858 34.5777 50.5687 34.1847 50.7344C33.7917 50.9001 33.491 51.125 33.2827 51.4091C33.0743 51.6932 32.9678 52.0175 32.9631 52.3821C32.9631 52.6851 33.0317 52.9479 33.169 53.1705C33.3111 53.393 33.5028 53.5824 33.7443 53.7386C33.9858 53.8902 34.2533 54.018 34.5469 54.1222C34.8404 54.2263 35.1364 54.3139 35.4347 54.3849L36.7983 54.7259C37.3475 54.8537 37.8755 55.0265 38.3821 55.2443C38.8935 55.4621 39.3504 55.7367 39.7528 56.0682C40.16 56.3996 40.482 56.7997 40.7188 57.2685C40.9555 57.7372 41.0739 58.2865 41.0739 58.9162C41.0739 59.7685 40.8561 60.5189 40.4205 61.1676C39.9848 61.8116 39.3551 62.3158 38.5312 62.6804C37.7121 63.0402 36.7202 63.2202 35.5554 63.2202C34.4238 63.2202 33.4413 63.045 32.608 62.6946C31.7794 62.3442 31.1307 61.8329 30.6619 61.1605C30.1979 60.4882 29.947 59.669 29.9091 58.7031H32.5014C32.5393 59.2098 32.6955 59.6312 32.9702 59.9673C33.2448 60.3035 33.6023 60.5545 34.0426 60.7202C34.4877 60.8859 34.9848 60.9688 35.5341 60.9688C36.107 60.9688 36.6089 60.8835 37.0398 60.7131C37.4754 60.5379 37.8163 60.2964 38.0625 59.9886C38.3087 59.6761 38.4342 59.3116 38.4389 58.8949C38.4342 58.5161 38.3229 58.2036 38.1051 57.9574C37.8873 57.7064 37.5819 57.4981 37.1889 57.3324C36.8007 57.1619 36.3461 57.0104 35.8253 56.8778L34.1705 56.4517C32.9725 56.1439 32.0256 55.6776 31.3295 55.0526C30.6383 54.4228 30.2926 53.5871 30.2926 52.5455C30.2926 51.6884 30.5246 50.938 30.9886 50.294C31.4574 49.6501 32.0942 49.1506 32.8991 48.7955C33.7041 48.4356 34.6155 48.2557 35.6335 48.2557C36.6657 48.2557 37.5701 48.4356 38.3466 48.7955C39.1278 49.1506 39.741 49.6454 40.1861 50.2798C40.6312 50.9096 40.8608 51.634 40.875 52.4531H38.3395ZM42.7837 50.6634V48.4545H54.3888V50.6634H49.8931V63H47.2795V50.6634H42.7837ZM68.9787 55.7273C68.9787 57.2945 68.6851 58.6368 68.098 59.7543C67.5156 60.867 66.7202 61.7192 65.7116 62.3111C64.7079 62.9029 63.5691 63.1989 62.2955 63.1989C61.0218 63.1989 59.8807 62.9029 58.8722 62.3111C57.8684 61.7145 57.0729 60.8598 56.4858 59.7472C55.9034 58.6297 55.6122 57.2898 55.6122 55.7273C55.6122 54.16 55.9034 52.8201 56.4858 51.7074C57.0729 50.59 57.8684 49.7353 58.8722 49.1435C59.8807 48.5516 61.0218 48.2557 62.2955 48.2557C63.5691 48.2557 64.7079 48.5516 65.7116 49.1435C66.7202 49.7353 67.5156 50.59 68.098 51.7074C68.6851 52.8201 68.9787 54.16 68.9787 55.7273ZM66.3295 55.7273C66.3295 54.6241 66.1567 53.6937 65.8111 52.9361C65.4702 52.1738 64.9967 51.5985 64.3906 51.2102C63.7846 50.8172 63.0862 50.6207 62.2955 50.6207C61.5047 50.6207 60.8063 50.8172 60.2003 51.2102C59.5942 51.5985 59.1184 52.1738 58.7727 52.9361C58.4318 53.6937 58.2614 54.6241 58.2614 55.7273C58.2614 56.8305 58.4318 57.7633 58.7727 58.5256C59.1184 59.2831 59.5942 59.8584 60.2003 60.2514C60.8063 60.6397 61.5047 60.8338 62.2955 60.8338C63.0862 60.8338 63.7846 60.6397 64.3906 60.2514C64.9967 59.8584 65.4702 59.2831 65.8111 58.5256C66.1567 57.7633 66.3295 56.8305 66.3295 55.7273ZM71.4698 63V48.4545H76.9244C78.0418 48.4545 78.9793 48.6629 79.7369 49.0795C80.4992 49.4962 81.0745 50.0691 81.4627 50.7983C81.8557 51.5227 82.0522 52.3466 82.0522 53.2699C82.0522 54.2027 81.8557 55.0312 81.4627 55.7557C81.0697 56.4801 80.4897 57.0507 79.7227 57.4673C78.9556 57.8793 78.011 58.0852 76.8888 58.0852H73.2738V55.919H76.5337C77.1871 55.919 77.7222 55.8054 78.1388 55.5781C78.5555 55.3509 78.8633 55.0384 79.0621 54.6406C79.2657 54.2429 79.3675 53.786 79.3675 53.2699C79.3675 52.7538 79.2657 52.2992 79.0621 51.9062C78.8633 51.5133 78.5531 51.2079 78.1317 50.9901C77.7151 50.7675 77.1777 50.6562 76.5195 50.6562H74.1048V63H71.4698Z" fill="#7C7D88"/>
</svg>
