<svg width="112" height="112" viewBox="0 0 112 112" fill="none" xmlns="http://www.w3.org/2000/svg">
<rect width="112" height="112" fill="white"/>
<path d="M51.2 49.1843L54.9102 54.8113C55.5139 55.7268 55.2677 56.9577 54.3584 57.5706L53.6815 58.0268C52.759 58.6487 51.5064 58.3981 50.894 57.4693L48.1341 53.2837C47.2442 53.6442 46.3437 53.9668 45.4348 54.2514L46.7956 59.274C47.0833 60.3359 46.4593 61.4308 45.3991 61.7245L44.6246 61.939C43.5558 62.235 42.4503 61.6049 42.1603 60.5345L40.7613 55.3707C39.8445 55.5249 38.9233 55.6424 38 55.7232V62C38 63.1046 37.1046 64 36 64H35.2C34.0954 64 33.2 63.1046 33.2 62V55.8142C31.9416 55.752 30.6861 55.622 29.4391 55.4245L27.726 61.7478C27.436 62.8182 26.3304 63.4483 25.2617 63.1523L24.4872 62.9378C23.4269 62.6441 22.8029 61.5492 23.0906 60.4873L24.7536 54.3495C23.7708 54.052 22.7981 53.7106 21.8384 53.3253L19.106 57.4693C18.4936 58.3981 17.241 58.6487 16.3185 58.0268L15.6416 57.5706C14.7323 56.9577 14.4861 55.7268 15.0898 54.8113L18.8 49.1843L18.9941 48.8328C19.5316 47.8595 20.7576 47.518 21.7598 47.9997C30.1312 52.0233 39.8978 52.0188 48.306 47.9045L48.3425 47.8867C49.3407 47.3982 50.5457 47.8172 51.0255 48.8197L51.2 49.1843Z" fill="#7C7D88"/>
<path d="M96.2 49.1843L99.9102 54.8113C100.514 55.7268 100.268 56.9577 99.3584 57.5706L98.6815 58.0268C97.759 58.6487 96.5064 58.3981 95.894 57.4693L93.1341 53.2837C92.2442 53.6442 91.3437 53.9668 90.4348 54.2514L91.7956 59.274C92.0833 60.3359 91.4593 61.4308 90.3991 61.7245L89.6246 61.939C88.5558 62.235 87.4503 61.6049 87.1603 60.5345L85.7613 55.3707C84.8445 55.5249 83.9233 55.6424 83 55.7232V62C83 63.1046 82.1046 64 81 64H80.2C79.0954 64 78.2 63.1046 78.2 62V55.8142C76.9416 55.752 75.6861 55.622 74.4391 55.4245L72.726 61.7478C72.436 62.8182 71.3304 63.4483 70.2617 63.1523L69.4872 62.9378C68.4269 62.6441 67.8029 61.5492 68.0906 60.4873L69.7536 54.3495C68.7708 54.052 67.7981 53.7106 66.8385 53.3253L64.106 57.4693C63.4936 58.3981 62.241 58.6487 61.3185 58.0268L60.6416 57.5706C59.7323 56.9577 59.4861 55.7268 60.0898 54.8113L63.8 49.1843L63.9941 48.8328C64.5316 47.8595 65.7576 47.518 66.7598 47.9997C75.1312 52.0233 84.8978 52.0188 93.306 47.9045L93.3425 47.8867C94.3407 47.3982 95.5457 47.8172 96.0255 48.8197L96.2 49.1843Z" fill="#7C7D88"/>
</svg>
