<svg width="281" height="112" viewBox="0 0 281 112" fill="none" xmlns="http://www.w3.org/2000/svg">
<path d="M251.563 32.5H232.454C232.165 32.5 231.891 32.6245 231.701 32.8415L228.686 36.2876C228.564 36.4265 228.484 36.5963 228.453 36.7783L224.5 60L222.577 86.9288C222.535 87.5076 222.994 88 223.574 88H255.417C256.001 88 256.46 87.5021 256.414 86.9203L254.5 63L252.561 33.4346C252.527 32.9088 252.09 32.5 251.563 32.5Z" stroke="#7C7D88" stroke-width="4"/>
<path d="M92.5 36V87.5C92.5 88.0523 92.9477 88.5 93.5 88.5H126.9C127.49 88.5 127.952 87.9923 127.896 87.4052L123 36V32.5M123 32.5L99.2918 33.4483C98.638 33.4745 98.1356 32.8761 98.2746 32.2367L100.394 22.4868C100.461 22.1802 100.667 21.9227 100.952 21.7912L106.801 19.092C106.932 19.0314 107.075 19 107.22 19H150.167C150.383 19 150.594 19.0702 150.767 19.2L152.5 20.5M123 32.5L137.75 31.75M152.5 20.5V29V31M152.5 20.5L197.588 19.0297C198.105 19.0129 198.549 19.3924 198.613 19.9052L200 31M152.5 31L137.75 31.75M152.5 31H161.5M137.75 31.75L136.523 87.478C136.51 88.0387 136.961 88.5 137.522 88.5H168.365C168.967 88.5 169.433 87.9713 169.357 87.3737L162.516 33.6266C162.505 33.5425 162.484 33.4602 162.453 33.3815L161.5 31M161.5 31L183.5 32.5M200 31L183.5 32.5M200 31L207.777 32.3724C208.207 32.4483 208.538 32.7947 208.595 33.2279L211.5 55.5V87.5C211.5 88.0523 211.052 88.5 210.5 88.5H183.518C182.959 88.5 182.508 88.0413 182.518 87.4821L183.5 32.5" stroke="#7C7D88" stroke-width="4"/>
<path d="M63 34V27.5C63 24.1863 65.6863 21.5 69 21.5H92.5C95.8137 21.5 98.5 24.1863 98.5 27.5V28C98.5 31.3137 95.8137 34 92.5 34H79H65.5H64.5" stroke="#7C7D88" stroke-width="4"/>
<path d="M38.5 37H28.5C27.3954 37 26.5 37.8954 26.5 39V52.4246C26.5 53.1359 26.3735 53.8415 26.1265 54.5085L22.0247 65.5832C21.6803 66.5132 21.5717 67.5141 21.7088 68.4963L24.3797 87.6382C24.4487 88.1323 24.8713 88.5 25.3702 88.5H43.5C44.0523 88.5 44.5 88.0523 44.5 87.5V43C44.5 39.6863 41.8137 37 38.5 37Z" stroke="#7C7D88" stroke-width="4"/>
<path d="M52.1157 87.3958L56.9369 41.3748C57.257 38.3199 59.8326 36 62.9043 36H76.5C79.8137 36 82.5 38.6863 82.5 42V87.5C82.5 88.0523 82.0523 88.5 81.5 88.5H53.1102C52.5167 88.5 52.0538 87.9861 52.1157 87.3958Z" stroke="#7C7D88" stroke-width="4"/>
</svg>
