<svg width="112" height="112" viewBox="0 0 112 112" fill="none" xmlns="http://www.w3.org/2000/svg">
<rect width="112" height="112" fill="white"/>
<path fill-rule="evenodd" clip-rule="evenodd" d="M74.553 24C74.553 27.7867 72.4483 31.0818 69.3449 32.7793C69.3709 32.7914 69.3968 32.8039 69.4225 32.8167L73.78 34.9955C73.9994 35.1052 74.2045 35.2413 74.3907 35.401L77.4715 38.0417C77.7025 38.2396 77.9019 38.4715 78.0631 38.7294L80.097 41.9836C80.395 42.4604 80.553 43.0113 80.553 43.5736V60C80.553 61.1094 79.9508 62.0781 79.0555 62.5972L78.7558 65.0952C78.5472 66.8327 77.2334 68.233 75.5126 68.5517L73.553 68.9146V98H55.553V47.9696L50.3792 53.5414C49.8116 54.1527 49.0151 54.5 48.1809 54.5H46.4472C45.5937 54.5 44.7806 54.1365 44.2115 53.5004L37.2907 45.7654C36.414 44.7855 36.2775 43.3489 36.9539 42.2215L37.4939 41.3214C37.6936 40.9887 37.956 40.6978 38.2664 40.4649L38.5279 40.2689L38.1508 36.1206L35.6167 36.4373C35.0092 36.5133 34.4331 36.2135 34.1367 35.7082L32.4474 36.5528C31.9535 36.7998 31.3528 36.5996 31.1058 36.1056C30.8588 35.6116 31.059 35.0109 31.553 34.7639L33.6268 33.727C33.6291 33.2173 33.892 32.7326 34.3407 32.4564L39.9919 28.9788C40.2784 28.8025 40.5961 28.7351 40.9014 28.7609C41.5815 27.1391 43.1842 26 45.053 26C47.5383 26 49.553 28.0147 49.553 30.5C49.553 32.9853 47.5383 35 45.053 35C44.3588 35 43.7013 34.8428 43.1142 34.5621C42.9249 34.8152 42.6542 35.0111 42.3256 35.105L40.1239 35.7341L40.4607 39.4395C41.0824 39.4021 41.7147 39.558 42.2631 39.9106L46.7885 42.8197C47.1725 43.0666 47.6751 43.022 48.0097 42.7113L53.5758 37.5428C53.8696 37.27 54.2151 37.0588 54.5919 36.9218L58.8702 35.3661C59.1378 35.2688 59.3512 35.062 59.4569 34.7977L59.6216 34.3858C59.8183 33.8941 60.1357 33.4755 60.5316 33.1585C57.0112 31.6105 54.553 28.0923 54.553 24C54.553 18.4772 59.0302 14 64.553 14C70.0759 14 74.553 18.4772 74.553 24ZM64.553 32C68.9713 32 72.553 28.4183 72.553 24C72.553 19.5817 68.9713 16 64.553 16C60.1347 16 56.553 19.5817 56.553 24C56.553 28.4183 60.1347 32 64.553 32ZM40.6623 31.4901C40.7289 31.7868 40.8248 32.0724 40.9468 32.3437L41.274 33.3254L38.8524 34.0173L35.8082 34.3978L35.7008 33.9679L40.5031 31.0126L40.6623 31.4901ZM42.8065 31.5982C43.2131 32.4284 44.0663 33 45.053 33C46.4337 33 47.553 31.8807 47.553 30.5C47.553 29.1193 46.4337 28 45.053 28C43.6723 28 42.553 29.1193 42.553 30.5C42.553 30.6607 42.5682 30.8179 42.5971 30.9701L42.8065 31.5982ZM73.553 63H76.9928L76.77 64.8569C76.6657 65.7257 76.0088 66.4258 75.1484 66.5851L73.553 66.8806V63ZM77.553 61H73.553V45C73.553 44.4477 73.1053 44 72.553 44C72.0007 44 71.553 44.4477 71.553 45V96H65.553V70H63.553V96H57.553V45C57.553 44.4477 57.0523 44 56.5 44L48.9137 52.1805C48.7244 52.3842 48.4589 52.5 48.1809 52.5H46.4472C46.1627 52.5 45.8917 52.3788 45.702 52.1668L38.7812 44.4318C38.4889 44.1051 38.4434 43.6263 38.6689 43.2505L39.2089 42.3504C39.2755 42.2395 39.3629 42.1426 39.4664 42.0649L40.0409 41.6341C40.3752 41.3834 40.8301 41.367 41.1816 41.5929L45.7069 44.5021C46.8592 45.2428 48.3668 45.109 49.3706 44.1769L54.9367 39.0084C55.0346 38.9174 55.1498 38.8471 55.2754 38.8014L59.5537 37.2456C60.3564 36.9537 60.9966 36.3335 61.3139 35.5404L61.4786 35.1286C61.6305 34.749 61.9982 34.5 62.4071 34.5H68.0809C68.2361 34.5 68.3892 34.5361 68.5281 34.6056L72.8856 36.7843C72.9587 36.8209 73.0271 36.8663 73.0891 36.9195L76.1699 39.5602C76.2469 39.6261 76.3134 39.7034 76.3671 39.7894L78.401 43.0436C78.5003 43.2025 78.553 43.3862 78.553 43.5736V60C78.553 60.5523 78.1053 61 77.553 61Z" fill="#7C7D88"/>
</svg>
