<svg width="112" height="112" viewBox="0 0 112 112" fill="none" xmlns="http://www.w3.org/2000/svg">
<rect width="112" height="112" fill="white"/>
<line x1="26" y1="29" x2="86" y2="29" stroke="#7C7D88" stroke-width="2"/>
<path d="M39.8612 87L31.1612 29H81.3292L72.1459 87H39.8612Z" stroke="#7C7D88" stroke-width="2"/>
<path d="M50.6825 21H62.7639C63.1427 21 63.489 21.214 63.6584 21.5528L67.382 29H45.6913L49.8063 21.5181C49.9821 21.1985 50.3179 21 50.6825 21Z" stroke="#7C7D88" stroke-width="2"/>
<path fill-rule="evenodd" clip-rule="evenodd" d="M53.5532 47.0362L46 49L39 57.5L46.5618 55.7208L46.5 55.5L47.321 54.5148L41.6562 55.8477L46.5657 49.8862L52.454 48.3552L53.5532 47.0362ZM63.0705 44.5617L62.0843 45.8513L68.5625 44.167L63.9078 50.612L57.2449 52.1798L57 52.5L57.2194 53.2131L64.5 51.5L71 42.5L63.0705 44.5617ZM47.4081 58.7433L39.8855 60.5133L40.1145 61.4867L47.678 59.7071L47.4081 58.7433ZM58.4385 57.1752L58.1438 56.2172L65.2039 54.556L71.5947 45.7073L72.4053 46.2927L65.7961 55.444L58.4385 57.1752ZM48.5207 62.7168L40.8855 64.5133L41.1145 65.4867L48.7906 63.6806L48.5207 62.7168ZM59.6537 61.1245L59.359 60.1666L66.2039 58.556L72.5947 49.7073L73.4053 50.2927L66.7961 59.444L59.6537 61.1245ZM49.6333 66.6903L41.8855 68.5133L42.1145 69.4867L49.9031 67.6541L49.6333 66.6903ZM60.8689 65.0739L60.5741 64.116L67.2039 62.556L73.5947 53.7073L74.4053 54.2927L67.7961 63.444L60.8689 65.0739Z" fill="#7C7D88"/>
<path d="M47 55.5L54.5 46.5L64 44L57.5 52.5L61.5 65.5L50.5 68L47 55.5Z" stroke="#7C7D88" stroke-linecap="square"/>
<path d="M55.0214 63.7978L52.047 53.3021L52.7194 53.1115L55.6938 63.6073L55.0214 63.7978ZM54.9378 56.1103C54.7981 55.7631 54.5578 55.53 54.217 55.4111C53.879 55.2913 53.4844 55.2953 53.0334 55.4231C52.7164 55.513 52.458 55.6379 52.2582 55.7979C52.0585 55.9578 51.9217 56.1368 51.8479 56.3349C51.7741 56.533 51.7657 56.7376 51.8226 56.9489C51.8722 57.1238 51.9548 57.2643 52.0705 57.3703C52.1889 57.4755 52.3305 57.5535 52.4955 57.6042C52.6597 57.6521 52.835 57.6822 53.0215 57.6943C53.208 57.7064 53.3932 57.7085 53.577 57.7007L54.42 57.6744C54.7579 57.6584 55.091 57.6718 55.4191 57.7146C55.7499 57.7567 56.0586 57.8405 56.3451 57.966C56.6344 58.0907 56.8857 58.269 57.0991 58.5008C57.3124 58.7327 57.4706 59.0304 57.5736 59.3939C57.713 59.8859 57.7101 60.3548 57.5647 60.8005C57.4186 61.2435 57.1376 61.6376 56.7216 61.9828C56.3077 62.3246 55.7645 62.5907 55.0921 62.7813C54.4388 62.9664 53.843 63.026 53.3046 62.96C52.769 62.8933 52.3109 62.7043 51.9303 62.3928C51.5525 62.0806 51.2736 61.6488 51.0937 61.0974L52.5902 60.6733C52.6949 60.9596 52.8541 61.1773 53.0676 61.3264C53.2811 61.4756 53.5285 61.5619 53.8098 61.5856C54.0939 61.6084 54.3944 61.5749 54.7115 61.4851C55.0422 61.3913 55.318 61.26 55.5388 61.0912C55.7616 60.9188 55.9189 60.7236 56.0107 60.5057C56.1017 60.285 56.1145 60.054 56.0491 59.8127C55.9844 59.5948 55.869 59.4326 55.703 59.3261C55.5362 59.2169 55.3258 59.1466 55.0719 59.1152C54.8199 59.0803 54.5327 59.0672 54.2103 59.0759L53.1853 59.1006C52.4435 59.1189 51.8205 59.0046 51.3165 58.7577C50.8144 58.5072 50.4782 58.0814 50.3077 57.48C50.1675 56.9853 50.1787 56.5141 50.3412 56.0665C50.5065 55.6181 50.7924 55.2256 51.1989 54.8889C51.6047 54.5495 52.1015 54.2965 52.6891 54.13C53.285 53.9611 53.8364 53.917 54.3436 53.9977C54.8527 54.0749 55.2876 54.2602 55.6483 54.5537C56.0082 54.8444 56.2593 55.225 56.4015 55.6955L54.9378 56.1103Z" fill="#7C7D88"/>
</svg>
