<svg width="112" height="112" viewBox="0 0 112 112" fill="none" xmlns="http://www.w3.org/2000/svg">
<rect width="112" height="112" fill="white"/>
<path d="M12.3182 91.5169L35.0198 50.3703C35.2855 49.8888 35.8901 49.7122 36.3732 49.9749L63.7766 64.8785C63.9232 64.9582 64.0874 65 64.2543 65H85.9458C86.2905 65 86.611 65.1776 86.7938 65.47L103.044 91.47C103.46 92.136 102.981 93 102.196 93H13.1938C12.4326 93 11.9505 92.1834 12.3182 91.5169Z" stroke="#7C7D88" stroke-width="2" stroke-linecap="round"/>
<path d="M22.5 73.5L31.6662 81.3568C32.4292 82.0107 33.5588 81.997 34.3057 81.3248L41.5896 74.7694C42.3803 74.0578 43.5896 74.0896 44.3417 74.8417L50.6904 81.1904C51.4294 81.9294 52.6127 81.9748 53.4062 81.2947L61.053 74.7403C61.8632 74.0458 63.0759 74.1098 63.8086 74.8856L69.6593 81.0805C70.4049 81.8699 71.6442 81.9202 72.4513 81.1938L79.5042 74.8462C80.3288 74.1041 81.5999 74.1749 82.337 75.0041L87.2122 80.4887C88.1028 81.4907 89.7077 81.3499 90.4103 80.2082L93 76" stroke="#7C7D88" stroke-width="2" stroke-linecap="round"/>
<circle cx="76.8302" cy="24.0497" r="5.04973" stroke="#7C7D88" stroke-width="2"/>
<path fill-rule="evenodd" clip-rule="evenodd" d="M83.6185 37.8241L85.6607 49.5485H83.1983L83.5344 51.5485H85.6607C86.9026 51.5485 87.8442 50.4287 87.6311 49.2053L85.5888 37.4809C84.833 33.1419 81.2231 29.8728 76.8306 29.5495C72.4382 29.8728 68.8283 33.1419 68.0725 37.4809L66.0302 49.2053C65.8171 50.4287 66.7587 51.5485 68.0005 51.5485H70.808L71.1087 49.5485H68.0005L70.0428 37.8241C70.6328 34.437 73.4193 31.8733 76.8306 31.5563C80.242 31.8733 83.0285 34.437 83.6185 37.8241Z" fill="#7C7D88"/>
<path d="M71.6055 38.3491L69.3356 62.5612C69.2256 63.7344 70.1486 64.7479 71.3269 64.7479H82.0587C83.237 64.7479 84.1599 63.7344 84.0499 62.5612L81.78 38.3491" stroke="#7C7D88" stroke-width="2" stroke-linecap="round"/>
<line x1="70.7805" y1="44.4987" x2="82.88" y2="44.4987" stroke="#7C7D88" stroke-width="2"/>
<line x1="77" y1="53" x2="77" y2="63.6494" stroke="#7C7D88" stroke-width="2" stroke-linecap="round"/>
</svg>
