<svg width="112" height="112" viewBox="0 0 112 112" fill="none" xmlns="http://www.w3.org/2000/svg">
<rect width="112" height="112" fill="white"/>
<path d="M58 54C58 53.4477 57.5523 53 57 53C56.4477 53 56 53.4477 56 54V56.684L57.8516 58.2612C58.272 58.6194 58.9031 58.5689 59.2613 58.1485C59.6194 57.728 59.5689 57.0969 59.1485 56.7388L58 55.7604V54Z" fill="#7C7D88"/>
<path fill-rule="evenodd" clip-rule="evenodd" d="M57 62C60.3137 62 63 59.3137 63 56C63 52.6863 60.3137 50 57 50C53.6863 50 51 52.6863 51 56C51 59.3137 53.6863 62 57 62ZM57 60C59.2092 60 61 58.2091 61 56C61 53.7909 59.2092 52 57 52C54.7909 52 53 53.7909 53 56C53 58.2091 54.7909 60 57 60Z" fill="#7C7D88"/>
<path fill-rule="evenodd" clip-rule="evenodd" d="M67 56C67 61.5229 62.5229 66 57 66C51.4772 66 47 61.5229 47 56C47 50.4772 51.4772 46 57 46C62.5229 46 67 50.4772 67 56ZM65 56C65 60.4183 61.4183 64 57 64C52.5817 64 49 60.4183 49 56C49 51.5817 52.5817 48 57 48C61.4183 48 65 51.5817 65 56Z" fill="#7C7D88"/>
<path fill-rule="evenodd" clip-rule="evenodd" d="M88.844 55.7652C74.1395 32.6236 40.1714 32.8615 25.1541 55.745C39.3868 78.321 71.9535 79.5834 87.5101 57.8985L88.844 55.7652ZM85.885 56.7326C71.3417 77.0052 41.0968 76.3617 27.3641 55.7657C41.6761 35.1082 72.6149 34.9276 86.6169 55.7124L85.885 56.7326Z" fill="#7C7D88"/>
</svg>
