<svg width="112" height="112" viewBox="0 0 112 112" fill="none" xmlns="http://www.w3.org/2000/svg">
<rect width="112" height="112" fill="white"/>
<path d="M72.8622 61.9505C73.2786 61.5878 73.3222 60.9561 72.9595 60.5396C72.5967 60.1232 71.9651 60.0796 71.5486 60.4423L53.1139 76.4984L42.6822 67.2258C42.2695 66.8589 41.6374 66.8961 41.2705 67.3088C40.9036 67.7216 40.9407 68.3537 41.3535 68.7206L53.1004 79.1623L72.8622 61.9505Z" fill="#7C7D88"/>
<path fill-rule="evenodd" clip-rule="evenodd" d="M35.6403 26.5342L58.0357 23L58.0357 25.6964H75.5903C76.9544 25.6964 78.1468 26.6167 78.4924 27.9363L85.1429 51.3393V90C85.1429 91.1046 84.2474 92 83.1429 92H28C26.8954 92 26 91.1046 26 90V51.3393L34.0506 27.8895C34.2837 27.1749 34.8978 26.6513 35.6403 26.5342ZM35.952 28.5097L56.0357 25.3404V48.2011L28.8307 50.3424L35.952 28.5097ZM41.6537 51.3393L57.0357 50.1285V51.3393H41.6537ZM83.1429 51.3393H59.0357V27.6964H75.5903C76.045 27.6964 76.4424 28.0032 76.5576 28.4431L83.1429 51.3393ZM28 53.3393H83.1429V90H28V53.3393Z" fill="#7C7D88"/>
</svg>
