<svg width="112" height="112" viewBox="0 0 112 112" fill="none" xmlns="http://www.w3.org/2000/svg">
<rect width="112" height="112" fill="white"/>
<path d="M65.3249 62.8333L64.426 62.7481L64.2498 63.6337C63.5336 67.2345 60.2297 70 56.2143 70C53.0185 70 50.2664 68.2453 48.9195 65.7089L48.4935 64.9067L47.6542 65.2538C45.7758 66.0305 43.7044 66.4615 41.5252 66.4615C32.9156 66.4615 26 59.7456 26 51.5385C26 43.3313 32.9156 36.6154 41.5252 36.6154C43.8833 36.6154 46.1152 37.1201 48.1131 38.0215L49.0459 38.4423L49.4451 37.5001C52.2972 30.7687 59.1745 26 67.2311 26C77.8689 26 86.4286 34.3002 86.4286 44.4615C86.4286 54.6229 77.8689 62.9231 67.2311 62.9231C66.5876 62.9231 65.9517 62.8927 65.3249 62.8333Z" stroke="#7C7D88" stroke-width="2"/>
<circle cx="47.9999" cy="77.5714" r="5.57143" stroke="#7C7D88" stroke-width="2"/>
<circle cx="36.5001" cy="89.0714" r="3.92857" stroke="#7C7D88" stroke-width="2"/>
<path d="M48.5057 56.2557C47.5284 56.2519 46.6875 56.0114 45.983 55.5341C45.2822 55.0568 44.7424 54.3655 44.3636 53.4602C43.9886 52.5549 43.803 51.4659 43.8068 50.1932C43.8068 48.9242 43.9943 47.8428 44.3693 46.9489C44.7481 46.0549 45.2879 45.375 45.9886 44.9091C46.6932 44.4394 47.5322 44.2045 48.5057 44.2045C49.4792 44.2045 50.3163 44.4394 51.017 44.9091C51.7216 45.3788 52.2633 46.0606 52.642 46.9545C53.0208 47.8447 53.2083 48.9242 53.2045 50.1932C53.2045 51.4697 53.0152 52.5606 52.6364 53.4659C52.2614 54.3712 51.7235 55.0625 51.0227 55.5398C50.322 56.017 49.483 56.2557 48.5057 56.2557ZM48.5057 54.2159C49.1723 54.2159 49.7045 53.8807 50.1023 53.2102C50.5 52.5398 50.697 51.5341 50.6932 50.1932C50.6932 49.3106 50.6023 48.5758 50.4205 47.9886C50.2424 47.4015 49.9886 46.9602 49.6591 46.6648C49.3333 46.3693 48.9489 46.2216 48.5057 46.2216C47.8428 46.2216 47.3125 46.553 46.9148 47.2159C46.517 47.8788 46.3163 48.8712 46.3125 50.1932C46.3125 51.0871 46.4015 51.8333 46.5795 52.4318C46.7614 53.0265 47.017 53.4735 47.3466 53.7727C47.6761 54.0682 48.0625 54.2159 48.5057 54.2159ZM61.3281 53.8182V53.2045C61.3281 52.7386 61.4266 52.3106 61.6236 51.9205C61.8243 51.5265 62.1141 51.2121 62.4929 50.9773C62.8755 50.7386 63.3414 50.6193 63.8906 50.6193C64.4474 50.6193 64.9152 50.7367 65.294 50.9716C65.6766 51.2064 65.9645 51.5208 66.1577 51.9148C66.3546 52.3049 66.4531 52.7348 66.4531 53.2045V53.8182C66.4531 54.2841 66.3546 54.714 66.1577 55.108C65.9607 55.4981 65.6709 55.8106 65.2884 56.0455C64.9058 56.2841 64.4399 56.4034 63.8906 56.4034C63.3338 56.4034 62.866 56.2841 62.4872 56.0455C62.1084 55.8106 61.8205 55.4981 61.6236 55.108C61.4266 54.714 61.3281 54.2841 61.3281 53.8182ZM62.9815 53.2045V53.8182C62.9815 54.0871 63.0459 54.3409 63.1747 54.5795C63.3073 54.8182 63.5459 54.9375 63.8906 54.9375C64.2353 54.9375 64.4702 54.8201 64.5952 54.5852C64.724 54.3504 64.7884 54.0947 64.7884 53.8182V53.2045C64.7884 52.928 64.7277 52.6705 64.6065 52.4318C64.4853 52.1932 64.2467 52.0739 63.8906 52.0739C63.5497 52.0739 63.313 52.1932 63.1804 52.4318C63.0478 52.6705 62.9815 52.928 62.9815 53.2045ZM55.3565 47.1591V46.5455C55.3565 46.0758 55.4569 45.6458 55.6577 45.2557C55.8584 44.8617 56.1482 44.5473 56.527 44.3125C56.9096 44.0777 57.3717 43.9602 57.9134 43.9602C58.474 43.9602 58.9437 44.0777 59.3224 44.3125C59.7012 44.5473 59.9891 44.8617 60.1861 45.2557C60.383 45.6458 60.4815 46.0758 60.4815 46.5455V47.1591C60.4815 47.6288 60.3812 48.0587 60.1804 48.4489C59.9834 48.839 59.6937 49.1515 59.3111 49.3864C58.9323 49.6174 58.4664 49.733 57.9134 49.733C57.3603 49.733 56.8925 49.6155 56.5099 49.3807C56.1312 49.142 55.8433 48.8295 55.6463 48.4432C55.4531 48.053 55.3565 47.625 55.3565 47.1591ZM57.0213 46.5455V47.1591C57.0213 47.4356 57.0857 47.6913 57.2145 47.9261C57.3471 48.161 57.58 48.2784 57.9134 48.2784C58.2618 48.2784 58.4986 48.161 58.6236 47.9261C58.7524 47.6913 58.8168 47.4356 58.8168 47.1591V46.5455C58.8168 46.2689 58.7562 46.0114 58.6349 45.7727C58.5137 45.5341 58.2732 45.4148 57.9134 45.4148C57.5762 45.4148 57.3433 45.536 57.2145 45.7784C57.0857 46.0208 57.0213 46.2765 57.0213 46.5455ZM56.1065 56L64.1065 44.3636H65.5952L57.5952 56H56.1065Z" fill="#7C7D88"/>
</svg>
