<?xml version="1.0" standalone="no"?><!DOCTYPE svg PUBLIC "-//W3C//DTD SVG 1.1//EN" "http://www.w3.org/Graphics/SVG/1.1/DTD/svg11.dtd"><svg t="1662475945045" class="icon" viewBox="0 0 1024 1024" version="1.1" xmlns="http://www.w3.org/2000/svg" p-id="2572" xmlns:xlink="http://www.w3.org/1999/xlink" width="81" height="81"><path d="M663.893333 411.306667m-213.333333 0a213.333333 213.333333 0 1 0 426.666667 0 213.333333 213.333333 0 1 0-426.666667 0Z" fill="#333333" opacity=".3" p-id="2573" data-spm-anchor-id="a313x.7781069.0.i0"></path><path d="M399.36 989.866667c-10.24 0-20.48-6.826667-23.893333-18.773334-20.48-66.56-51.2-117.76-92.16-148.48-27.306667-22.186667-64.853333-25.6-100.693334-30.72-44.373333-5.12-90.453333-11.946667-117.76-49.493333-39.253333-54.613333-1.706667-134.826667 29.013334-197.973333 8.533333-15.36 15.36-29.013333 20.48-40.96 5.12-11.946667-5.12-23.893333-42.666667-44.373334-18.773333-10.24-34.133333-18.773333-37.546667-35.84-1.706667-8.533333 0-17.066667 5.12-23.893333 8.533333-10.24 29.013333-27.306667 168.96-98.986667C245.76 122.88 365.226667 34.133333 566.613333 34.133333 875.52 34.133333 989.866667 295.253333 989.866667 459.093333c0 174.08-141.653333 337.92-327.68 380.586667 1.706667 11.946667 13.653333 42.666667 71.68 107.52 10.24 10.24 8.533333 27.306667-1.706667 35.84-10.24 10.24-27.306667 8.533333-35.84-1.706667-76.8-85.333333-100.693333-139.946667-75.093333-177.493333 3.413333-5.12 10.24-10.24 17.066666-10.24C822.613333 757.76 938.666667 592.213333 938.666667 459.093333 938.666667 314.026667 837.973333 85.333333 566.613333 85.333333 387.413333 85.333333 286.72 162.133333 257.706667 320.853333c-1.706667 8.533333-6.826667 15.36-13.653334 18.773334-80.213333 40.96-122.88 64.853333-143.36 76.8 29.013333 17.066667 81.92 49.493333 59.733334 104.106666-5.12 13.653333-13.653333 29.013333-20.48 46.08C117.76 616.106667 85.333333 682.666667 107.52 713.386667c13.653333 18.773333 46.08 23.893333 81.92 27.306666 40.96 5.12 88.746667 11.946667 126.293333 40.96 47.786667 39.253333 85.333333 97.28 109.226667 174.08 3.413333 13.653333-3.413333 27.306667-17.066667 32.426667-3.413333 1.706667-5.12 1.706667-8.533333 1.706667z" fill="#333333" p-id="2574"></path><path d="M583.68 593.92c-25.6 0-40.96-10.24-49.493333-20.48-17.066667-18.773333-23.893333-47.786667-18.773334-88.746667-49.493333-8.533333-85.333333-25.6-109.226666-49.493333-30.72-30.72-37.546667-78.506667-20.48-145.066667v-1.706666c11.946667-39.253333 44.373333-64.853333 97.28-75.093334 40.96-8.533333 58.026667-1.706667 73.386666 13.653334 3.413333 3.413333 5.12 5.12 15.36 5.12 56.32 0 119.466667 15.36 124.586667 58.026666 5.12 1.706667 15.36 5.12 35.84 5.12 11.946667 0 23.893333 6.826667 35.84 18.773334 25.6 29.013333 47.786667 85.333333 40.96 150.186666-3.413333 29.013333-15.36 51.2-35.84 64.853334-22.186667 13.653333-51.2 18.773333-87.04 10.24-13.653333 23.893333-40.96 46.08-92.16 51.2-3.413333 3.413333-6.826667 3.413333-10.24 3.413333z m-148.48-290.133333c-8.533333 32.426667-13.653333 75.093333 6.826667 95.573333 18.773333 18.773333 54.613333 32.426667 105.813333 37.546667 6.826667 1.706667 13.653333 5.12 17.066667 10.24s5.12 11.946667 5.12 18.773333c-8.533333 52.906667 0 68.266667 3.413333 71.68 3.413333 3.413333 8.533333 3.413333 17.066667 3.413333 44.373333-5.12 54.613333-22.186667 58.026666-35.84 1.706667-6.826667 6.826667-11.946667 11.946667-15.36s13.653333-3.413333 18.773333-1.706666c30.72 8.533333 54.613333 8.533333 66.56 1.706666 3.413333-1.706667 10.24-6.826667 13.653334-29.013333 6.826667-58.026667-18.773333-102.4-30.72-112.64-68.266667-1.706667-81.92-29.013333-81.92-47.786667-6.826667-6.826667-35.84-15.36-73.386667-15.36-29.013333 0-40.96-10.24-51.2-18.773333 0 0-1.706667-1.706667-3.413333-1.706667 0 0-5.12-1.706667-25.6 1.706667-49.493333 8.533333-56.32 30.72-58.026667 37.546667z" fill="#333333" p-id="2575"></path><path d="M525.653333 732.16h-5.12c-13.653333-3.413333-22.186667-17.066667-20.48-30.72 5.12-27.306667 23.893333-52.906667 47.786667-81.92 6.826667-10.24 15.36-20.48 23.893333-30.72 15.36-22.186667 51.2-47.786667 75.093334-63.146667 11.946667-6.826667 27.306667-3.413333 35.84 8.533334 6.826667 11.946667 3.413333 27.306667-8.533334 35.84-22.186667 13.653333-49.493333 35.84-59.733333 49.493333-8.533333 11.946667-17.066667 22.186667-23.893333 32.426667-20.48 25.6-34.133333 46.08-37.546667 61.44-5.12 10.24-15.36 18.773333-27.306667 18.773333z" fill="#333333" p-id="2576"></path></svg>