<svg width="81" height="81" viewBox="0 0 81 81" fill="none" xmlns="http://www.w3.org/2000/svg">
<path opacity="0.3" d="M35.6399 32.535C35.6399 37.0105 37.4178 41.3028 40.5825 44.4674C43.7471 47.6321 48.0394 49.41 52.5149 49.41C56.9904 49.41 61.2826 47.6321 64.4473 44.4674C67.612 41.3028 69.3899 37.0105 69.3899 32.535C69.3899 28.0595 67.612 23.7673 64.4473 20.6026C61.2826 17.4379 56.9904 15.66 52.5149 15.66C48.0394 15.66 43.7471 17.4379 40.5825 20.6026C37.4178 23.7673 35.6399 28.0595 35.6399 32.535V32.535Z" fill="#333333"/>
<path d="M31.59 78.3C30.78 78.3 29.97 77.76 29.7 76.815C28.08 71.55 25.65 67.5 22.41 65.07C20.25 63.315 17.28 63.045 14.445 62.64C10.935 62.235 7.29004 61.695 5.13004 58.725C2.02504 54.405 4.99504 48.06 7.42504 43.065C8.10004 41.85 8.64004 40.77 9.04504 39.825C9.45004 38.88 8.64004 37.935 5.67004 36.315C4.18504 35.505 2.97004 34.83 2.70004 33.48C2.56504 32.805 2.70004 32.13 3.10504 31.59C3.78004 30.78 5.40004 29.43 16.47 23.76C19.44 9.72001 28.89 2.70001 44.82 2.70001C69.255 2.70001 78.3 23.355 78.3 36.315C78.3 50.085 67.095 63.045 52.38 66.42C52.515 67.365 53.46 69.795 58.05 74.925C58.86 75.735 58.725 77.085 57.915 77.76C57.105 78.57 55.755 78.435 55.08 77.625C49.005 70.875 47.115 66.555 49.14 63.585C49.41 63.18 49.95 62.775 50.49 62.775C65.07 59.94 74.25 46.845 74.25 36.315C74.25 24.84 66.285 6.75001 44.82 6.75001C30.645 6.75001 22.68 12.825 20.385 25.38C20.25 26.055 19.845 26.595 19.305 26.865C12.96 30.105 9.58504 31.995 7.96504 32.94C10.26 34.29 14.445 36.855 12.69 41.175C12.285 42.255 11.61 43.47 11.07 44.82C9.31504 48.735 6.75004 54 8.50504 56.43C9.58504 57.915 12.15 58.32 14.985 58.59C18.225 58.995 22.005 59.535 24.975 61.83C28.755 64.935 31.725 69.525 33.615 75.6C33.885 76.68 33.345 77.76 32.265 78.165C31.995 78.3 31.86 78.3 31.59 78.3Z" fill="#333333"/>
<path d="M46.1701 46.98C44.1451 46.98 42.9301 46.17 42.2551 45.36C40.9051 43.875 40.3651 41.58 40.7701 38.34C36.8551 37.665 34.0201 36.315 32.1301 34.425C29.7001 31.995 29.1601 28.215 30.5101 22.95V22.815C31.4551 19.71 34.0201 17.685 38.2051 16.875C41.4451 16.2 42.7951 16.74 44.0101 17.955C44.2801 18.225 44.4151 18.36 45.2251 18.36C49.6801 18.36 54.6751 19.575 55.0801 22.95C55.4851 23.085 56.2951 23.355 57.9151 23.355C58.8601 23.355 59.8051 23.895 60.7501 24.84C62.7751 27.135 64.5301 31.59 63.9901 36.72C63.7201 39.015 62.7751 40.77 61.1551 41.85C59.4001 42.93 57.1051 43.335 54.2701 42.66C53.1901 44.55 51.0301 46.305 46.9801 46.71C46.7101 46.98 46.4401 46.98 46.1701 46.98V46.98ZM34.4251 24.03C33.7501 26.595 33.3451 29.97 34.9651 31.59C36.4501 33.075 39.2851 34.155 43.3351 34.56C43.8751 34.695 44.4151 34.965 44.6851 35.37C44.9551 35.775 45.0901 36.315 45.0901 36.855C44.4151 41.04 45.0901 42.255 45.3601 42.525C45.6301 42.795 46.0351 42.795 46.7101 42.795C50.2201 42.39 51.0301 41.04 51.3001 39.96C51.4351 39.42 51.8401 39.015 52.2451 38.745C52.6501 38.475 53.3251 38.475 53.7301 38.61C56.1601 39.285 58.0501 39.285 58.9951 38.745C59.2651 38.61 59.8051 38.205 60.0751 36.45C60.6151 31.86 58.5901 28.35 57.6451 27.54C52.2451 27.405 51.1651 25.245 51.1651 23.76C50.6251 23.22 48.3301 22.545 45.3601 22.545C43.0651 22.545 42.1201 21.735 41.3101 21.06C41.3101 21.06 41.1751 20.925 41.0401 20.925C41.0401 20.925 40.6351 20.79 39.0151 21.06C35.1001 21.735 34.5601 23.49 34.4251 24.03V24.03Z" fill="#333333"/>
<path d="M41.58 57.915H41.175C40.095 57.645 39.42 56.565 39.555 55.485C39.96 53.325 41.445 51.3 43.335 49.005C43.875 48.195 44.55 47.385 45.225 46.575C46.44 44.82 49.275 42.795 51.165 41.58C52.11 41.04 53.325 41.31 54 42.255C54.54 43.2 54.27 44.415 53.325 45.09C51.57 46.17 49.41 47.925 48.6 49.005C47.925 49.95 47.25 50.76 46.71 51.57C45.09 53.595 44.01 55.215 43.74 56.43C43.335 57.24 42.525 57.915 41.58 57.915V57.915Z" fill="#333333"/>
</svg>
