<?xml version="1.0" standalone="no"?><!DOCTYPE svg PUBLIC "-//W3C//DTD SVG 1.1//EN" "http://www.w3.org/Graphics/SVG/1.1/DTD/svg11.dtd"><svg t="1662476399430" class="icon" viewBox="0 0 1024 1024" version="1.1" xmlns="http://www.w3.org/2000/svg" p-id="2922" xmlns:xlink="http://www.w3.org/1999/xlink" width="81" height="81"><path d="M832 406.4h-182.4L476.8 576l-28.8-28.8 169.6-169.6V192l192-192 41.6 169.6L1024 214.4l-192 192z m-22.4-192l-22.4-128-128 105.6v169.6h128l150.4-128-128-19.2zM470.4 640c38.4 0 70.4-25.6 80-60.8l44.8-44.8c0 6.4 3.2 12.8 3.2 19.2 0 70.4-57.6 128-128 128s-128-57.6-128-128 57.6-128 128-128c6.4 0 12.8 0 19.2 3.2l-44.8 44.8c-35.2 9.6-60.8 41.6-60.8 80 0 48 38.4 86.4 86.4 86.4z m-217.6-80c0 115.2 92.8 211.2 211.2 211.2 115.2 0 211.2-92.8 211.2-211.2 0-28.8-6.4-57.6-19.2-83.2h44.8c9.6 25.6 16 54.4 16 83.2 0 140.8-112 252.8-252.8 252.8s-252.8-112-252.8-252.8 112-252.8 252.8-252.8c28.8 0 57.6 6.4 83.2 16v44.8c-25.6-12.8-54.4-19.2-83.2-19.2-115.2 0-211.2 96-211.2 211.2z m-211.2 0c0 233.6 188.8 422.4 422.4 422.4 233.6 0 422.4-188.8 422.4-422.4 0-28.8-3.2-57.6-9.6-83.2h41.6c6.4 28.8 9.6 54.4 9.6 83.2 0 256-208 464-464 464S0 816 0 560 208 96 464 96c28.8 0 57.6 3.2 83.2 9.6v41.6c-28.8-6.4-54.4-9.6-83.2-9.6-233.6 0-422.4 188.8-422.4 422.4z" fill="#666666" p-id="2923"></path></svg>