<svg width="81" height="81" viewBox="0 0 81 81" fill="none" xmlns="http://www.w3.org/2000/svg">
<g clip-path="url(#clip0_36_169)">
<path d="M65.8125 32.1469H51.3844L37.7156 45.5625L35.4375 43.2844L48.8531 29.8687V15.1875L64.0406 0L67.3313 13.4156L81 16.9594L65.8125 32.1469ZM64.0406 16.9594L62.2687 6.83437L52.1437 15.1875V28.6031H62.2687L74.1656 18.4781L64.0406 16.9594ZM37.2094 50.625C40.2469 50.625 42.7781 48.6 43.5375 45.8156L47.0812 42.2719C47.0812 42.7781 47.3344 43.2844 47.3344 43.7906C47.3344 49.3594 42.7781 53.9156 37.2094 53.9156C31.6406 53.9156 27.0844 49.3594 27.0844 43.7906C27.0844 38.2219 31.6406 33.6656 37.2094 33.6656C37.7156 33.6656 38.2219 33.6656 38.7281 33.9188L35.1844 37.4625C32.4 38.2219 30.375 40.7531 30.375 43.7906C30.375 47.5875 33.4125 50.625 37.2094 50.625ZM19.9969 44.2969C19.9969 53.4094 27.3375 61.0031 36.7031 61.0031C45.8156 61.0031 53.4094 53.6625 53.4094 44.2969C53.4094 42.0187 52.9031 39.7406 51.8906 37.7156H55.4344C56.1938 39.7406 56.7 42.0187 56.7 44.2969C56.7 55.4344 47.8406 64.2937 36.7031 64.2937C25.5656 64.2937 16.7062 55.4344 16.7062 44.2969C16.7062 33.1594 25.5656 24.3 36.7031 24.3C38.9813 24.3 41.2594 24.8063 43.2844 25.5656V29.1094C41.2594 28.0969 38.9813 27.5906 36.7031 27.5906C27.5906 27.5906 19.9969 35.1844 19.9969 44.2969ZM3.29062 44.2969C3.29062 62.775 18.225 77.7094 36.7031 77.7094C55.1812 77.7094 70.1156 62.775 70.1156 44.2969C70.1156 42.0187 69.8625 39.7406 69.3562 37.7156H72.6469C73.1531 39.9938 73.4062 42.0187 73.4062 44.2969C73.4062 64.5469 56.9531 81 36.7031 81C16.4531 81 0 64.5469 0 44.2969C0 24.0469 16.4531 7.59375 36.7031 7.59375C38.9813 7.59375 41.2594 7.84687 43.2844 8.35312V11.6438C41.0062 11.1375 38.9813 10.8844 36.7031 10.8844C18.225 10.8844 3.29062 25.8188 3.29062 44.2969Z" fill="#333333"/>
<path opacity="0.3" d="M37 35.875C37 40.3505 38.7779 44.6427 41.9426 47.8074C45.1072 50.9721 49.3995 52.75 53.875 52.75C58.3505 52.75 62.6427 50.9721 65.8074 47.8074C68.9721 44.6427 70.75 40.3505 70.75 35.875C70.75 31.3995 68.9721 27.1072 65.8074 23.9426C62.6427 20.7779 58.3505 19 53.875 19C49.3995 19 45.1072 20.7779 41.9426 23.9426C38.7779 27.1072 37 31.3995 37 35.875V35.875Z" fill="#333333"/>
</g>
<defs>
<clipPath id="clip0_36_169">
<rect width="81" height="81" fill="white"/>
</clipPath>
</defs>
</svg>
