<svg width="81" height="81" viewBox="0 0 81 81" fill="none" xmlns="http://www.w3.org/2000/svg">
<g clip-path="url(#clip0_63_2)">
<path d="M40.125 8.0625C46.4664 8.0625 52.6653 9.94293 57.938 13.466C63.2106 16.9891 67.3202 21.9966 69.7469 27.8552C72.1736 33.7139 72.8086 40.1606 71.5714 46.3801C70.3343 52.5996 67.2807 58.3126 62.7966 62.7966C58.3126 67.2806 52.5996 70.3343 46.3801 71.5714C40.1606 72.8086 33.7139 72.1736 27.8552 69.7469C21.9966 67.3202 16.9891 63.2106 13.466 57.938C9.94295 52.6653 8.06252 46.4664 8.06252 40.125C8.07145 31.6242 11.4523 23.4742 17.4633 17.4633C23.4742 11.4523 31.6243 8.07143 40.125 8.0625ZM40.125 3C32.7824 3 25.6046 5.17734 19.4995 9.25669C13.3943 13.336 8.63589 19.1342 5.82599 25.9179C3.01609 32.7016 2.28089 40.1662 3.71336 47.3677C5.14584 54.5693 8.68165 61.1843 13.8737 66.3763C19.0657 71.5684 25.6807 75.1042 32.8823 76.5367C40.0838 77.9691 47.5484 77.2339 54.3321 74.424C61.1158 71.6141 66.914 66.8557 70.9933 60.7505C75.0727 54.6454 77.25 47.4676 77.25 40.125C77.25 30.2788 73.3386 20.8359 66.3764 13.8737C59.4141 6.91137 49.9712 3 40.125 3Z" fill="#909EAA"/>
<line x1="27.5" y1="24.5" x2="54.5" y2="24.5" stroke="#909EAA" stroke-width="5" stroke-linecap="round"/>
<line x1="27.5" y1="56.5" x2="54.5" y2="56.5" stroke="#909EAA" stroke-width="5" stroke-linecap="round"/>
<line x1="27.5" y1="40.5" x2="54.5" y2="40.5" stroke="#909EAA" stroke-width="5" stroke-linecap="round"/>
</g>
<defs>
<clipPath id="clip0_63_2">
<rect width="81" height="81" fill="white"/>
</clipPath>
</defs>
</svg>
