<svg width="81" height="81" viewBox="0 0 81 81" fill="none" xmlns="http://www.w3.org/2000/svg">
<g clip-path="url(#clip0_47_1184)">
<path d="M48.7731 40.5L32.7714 56.4258C32.4166 56.7793 32.1747 57.2301 32.0762 57.7211C31.9778 58.2122 32.0272 58.7214 32.2183 59.1843C32.4093 59.6473 32.7334 60.0432 33.1495 60.3219C33.5656 60.6006 34.0551 60.7495 34.5559 60.75C35.2249 60.7494 35.8665 60.484 36.3404 60.0117L52.3717 44.069L52.4476 43.9889C53.375 43.0596 53.8959 41.8003 53.8959 40.4873C53.8959 39.1744 53.375 37.9151 52.4476 36.9858L52.3717 36.9056L36.3404 20.963C35.8624 20.5 35.2213 20.2438 34.5559 20.25C34.0551 20.2504 33.5656 20.3994 33.1495 20.6781C32.7334 20.9568 32.4093 21.3527 32.2183 21.8156C32.0272 22.2786 31.9778 22.7878 32.0762 23.2788C32.1747 23.7699 32.4166 24.2207 32.7714 24.5742L48.7731 40.5Z" fill="#6B747C"/>
<path d="M40.5 8.4375C46.8414 8.4375 53.0403 10.3179 58.313 13.841C63.5856 17.3641 67.6952 22.3716 70.1219 28.2302C72.5486 34.0889 73.1836 40.5356 71.9464 46.7551C70.7093 52.9746 67.6557 58.6876 63.1716 63.1716C58.6876 67.6556 52.9746 70.7093 46.7551 71.9464C40.5356 73.1836 34.0889 72.5486 28.2302 70.1219C22.3716 67.6952 17.3641 63.5856 13.841 58.313C10.3179 53.0403 8.43752 46.8414 8.43752 40.5C8.44645 31.9992 11.8273 23.8492 17.8383 17.8383C23.8492 11.8273 31.9993 8.44643 40.5 8.4375ZM40.5 3.375C33.1574 3.375 25.9796 5.55234 19.8745 9.63169C13.7693 13.711 9.01089 19.5092 6.20099 26.2929C3.39109 33.0766 2.65589 40.5412 4.08836 47.7427C5.52084 54.9443 9.05665 61.5593 14.2487 66.7513C19.4407 71.9434 26.0557 75.4792 33.2573 76.9117C40.4588 78.3441 47.9234 77.6089 54.7071 74.799C61.4908 71.9891 67.289 67.2307 71.3683 61.1255C75.4477 55.0204 77.625 47.8426 77.625 40.5C77.625 30.6538 73.7136 21.2109 66.7514 14.2487C59.7891 7.28637 50.3462 3.375 40.5 3.375Z" fill="#6B747C"/>
</g>
<defs>
<clipPath id="clip0_47_1184">
<rect width="81" height="81" fill="white"/>
</clipPath>
</defs>
</svg>
