<svg width="81" height="81" viewBox="0 0 81 81" fill="none" xmlns="http://www.w3.org/2000/svg">
<g clip-path="url(#clip0_47_1188)">
<path d="M32.227 40.5L48.2287 56.4257C48.5835 56.7793 48.8254 57.2301 48.9238 57.7211C49.0223 58.2122 48.9728 58.7214 48.7818 59.1843C48.5907 59.6473 48.2667 60.0431 47.8505 60.3218C47.4344 60.6005 46.945 60.7495 46.4442 60.75C45.7751 60.7494 45.1335 60.4839 44.6596 60.0117L28.6284 44.069C28.1564 43.5987 27.782 43.0398 27.5264 42.4245C27.2709 41.8091 27.1394 41.1494 27.1394 40.4831C27.1394 39.8168 27.2709 39.157 27.5264 38.5417C27.782 37.9263 28.1564 37.3675 28.6284 36.8971L44.6596 20.9545C45.139 20.4946 45.7799 20.2415 46.4442 20.25C46.945 20.2504 47.4344 20.3994 47.8505 20.6781C48.2667 20.9568 48.5907 21.3527 48.7818 21.8156C48.9728 22.2785 49.0223 22.7878 48.9238 23.2788C48.8254 23.7699 48.5835 24.2207 48.2287 24.5742L32.227 40.5Z" fill="#6B747C"/>
<path d="M40.5 8.4375C46.8414 8.4375 53.0403 10.3179 58.313 13.841C63.5856 17.3641 67.6952 22.3716 70.1219 28.2302C72.5486 34.0889 73.1836 40.5356 71.9464 46.7551C70.7093 52.9746 67.6557 58.6876 63.1716 63.1716C58.6876 67.6556 52.9746 70.7093 46.7551 71.9464C40.5356 73.1836 34.0889 72.5486 28.2302 70.1219C22.3716 67.6952 17.3641 63.5856 13.841 58.313C10.3179 53.0403 8.43752 46.8414 8.43752 40.5C8.44645 31.9992 11.8273 23.8492 17.8383 17.8383C23.8492 11.8273 31.9993 8.44643 40.5 8.4375M40.5 3.375C33.1574 3.375 25.9796 5.55234 19.8745 9.63169C13.7693 13.711 9.01089 19.5092 6.20099 26.2929C3.39109 33.0766 2.65589 40.5412 4.08836 47.7427C5.52084 54.9443 9.05665 61.5593 14.2487 66.7513C19.4407 71.9434 26.0557 75.4792 33.2573 76.9117C40.4588 78.3441 47.9234 77.6089 54.7071 74.799C61.4908 71.9891 67.289 67.2307 71.3683 61.1255C75.4477 55.0204 77.625 47.8426 77.625 40.5C77.625 30.6538 73.7136 21.2109 66.7514 14.2487C59.7891 7.28637 50.3462 3.375 40.5 3.375V3.375Z" fill="#6B747C"/>
</g>
<defs>
<clipPath id="clip0_47_1188">
<rect width="81" height="81" fill="white"/>
</clipPath>
</defs>
</svg>
