<?xml version="1.0" standalone="no"?><!DOCTYPE svg PUBLIC "-//W3C//DTD SVG 1.1//EN" "http://www.w3.org/Graphics/SVG/1.1/DTD/svg11.dtd"><svg t="1662483037686" class="icon" viewBox="0 0 1024 1024" version="1.1" xmlns="http://www.w3.org/2000/svg" p-id="4026" xmlns:xlink="http://www.w3.org/1999/xlink" width="81" height="81"><path d="M532.48 45.511111C277.617778 45.511111 68.266667 254.862222 68.266667 509.724444s209.351111 464.213333 464.213333 464.213334 464.213333-209.351111 464.213333-464.213334S787.342222 45.511111 532.48 45.511111z m0 892.017778C295.822222 937.528889 104.675556 746.382222 104.675556 509.724444S295.822222 81.92 532.48 81.92 960.284444 273.066667 960.284444 509.724444s-191.146667 427.804444-427.804444 427.804445z" p-id="4027"></path><path d="M748.657778 380.017778h-273.066667c-9.102222 0-15.928889-6.826667-15.928889-15.928889 0-9.102222 6.826667-15.928889 15.928889-15.928889H750.933333c9.102222 0 15.928889 6.826667 15.928889 15.928889-2.275556 9.102222-9.102222 15.928889-18.204444 15.928889zM425.528889 316.302222c-4.551111-4.551111-13.653333-4.551111-18.204445 0l-59.164444 59.164445-29.582222-29.582223c-4.551111-4.551111-13.653333-4.551111-18.204445 0-4.551111 4.551111-4.551111 13.653333 0 18.204445l36.408889 36.408889c2.275556 2.275556 2.275556 2.275556 4.551111 2.275555 4.551111 2.275556 9.102222 0 13.653334-2.275555l68.266666-68.266667c6.826667-4.551111 6.826667-11.377778 2.275556-15.928889zM753.208889 530.204444H477.866667c-9.102222 0-15.928889-6.826667-15.928889-15.928888 0-9.102222 6.826667-15.928889 15.928889-15.928889h275.342222c9.102222 0 15.928889 6.826667 15.928889 15.928889-2.275556 9.102222-9.102222 15.928889-15.928889 15.928888zM427.804444 466.488889c-4.551111-4.551111-13.653333-4.551111-18.204444 0l-59.164444 59.164444-29.582223-29.582222c-4.551111-4.551111-13.653333-4.551111-18.204444 0-4.551111 4.551111-4.551111 13.653333 0 18.204445l36.408889 36.408888c2.275556 2.275556 2.275556 2.275556 4.551111 2.275556 4.551111 2.275556 9.102222 0 13.653333-2.275556l68.266667-68.266666c6.826667-4.551111 6.826667-11.377778 2.275555-15.928889zM753.208889 682.666667H477.866667c-9.102222 0-15.928889-6.826667-15.928889-15.928889 0-9.102222 6.826667-15.928889 15.928889-15.928889h275.342222c9.102222 0 15.928889 6.826667 15.928889 15.928889-2.275556 9.102222-9.102222 15.928889-15.928889 15.928889zM427.804444 618.951111c-4.551111-4.551111-13.653333-4.551111-18.204444 0l-59.164444 59.164445-29.582223-29.582223c-4.551111-4.551111-13.653333-4.551111-18.204444 0-4.551111 4.551111-4.551111 13.653333 0 18.204445L341.333333 705.422222c2.275556 2.275556 2.275556 2.275556 4.551111 2.275556 4.551111 2.275556 9.102222 0 13.653334-2.275556l68.266666-68.266666c4.551111-6.826667 4.551111-13.653333 0-18.204445z" p-id="4028"></path></svg>