<svg width="81" height="81" viewBox="0 0 81 81" fill="none" xmlns="http://www.w3.org/2000/svg">
<g clip-path="url(#clip0_63_15)">
<path d="M42.125 11.0625C48.4664 11.0625 54.6653 12.9429 59.938 16.466C65.2106 19.9891 69.3202 24.9966 71.7469 30.8552C74.1736 36.7139 74.8086 43.1606 73.5714 49.3801C72.3343 55.5996 69.2807 61.3126 64.7966 65.7966C60.3126 70.2806 54.5996 73.3343 48.3801 74.5714C42.1606 75.8086 35.7139 75.1736 29.8552 72.7469C23.9966 70.3202 18.9891 66.2106 15.466 60.938C11.9429 55.6653 10.0625 49.4664 10.0625 43.125C10.0715 34.6242 13.4523 26.4742 19.4633 20.4633C25.4742 14.4523 33.6243 11.0714 42.125 11.0625ZM42.125 6C34.7824 6 27.6046 8.17734 21.4995 12.2567C15.3943 16.336 10.6359 22.1342 7.82599 28.9179C5.01609 35.7016 4.28089 43.1662 5.71336 50.3677C7.14584 57.5693 10.6817 64.1843 15.8737 69.3763C21.0657 74.5684 27.6807 78.1042 34.8823 79.5367C42.0838 80.9691 49.5484 80.2339 56.3321 77.424C63.1158 74.6141 68.914 69.8557 72.9933 63.7505C77.0727 57.6454 79.25 50.4676 79.25 43.125C79.25 33.2788 75.3386 23.8359 68.3764 16.8737C61.4141 9.91137 51.9712 6 42.125 6Z" fill="#909EAA"/>
<path d="M18 33H34.6573C35.4694 33 36.2009 33.4911 36.5084 34.2427L44.4916 53.7573C44.7991 54.5089 45.5306 55 46.3427 55H60.5" stroke="#909EAA" stroke-width="5" stroke-linecap="round"/>
<path d="M67.3283 54.5769C67.6396 54.773 67.6396 55.227 67.3283 55.4231L60.5165 59.7134C60.1835 59.9231 59.75 59.6838 59.75 59.2903L59.75 50.7097C59.75 50.3162 60.1835 50.0769 60.5165 50.2866L67.3283 54.5769Z" fill="#909EAA"/>
<path d="M18 53H34.6401C35.4608 53 36.1982 52.4986 36.5 51.7353L44 32.7647C44.3018 32.0014 45.0392 31.5 45.8599 31.5H60" stroke="#909EAA" stroke-width="5" stroke-linecap="round"/>
<path d="M67.3283 31.4231C67.6396 31.227 67.6396 30.773 67.3283 30.5769L60.5165 26.2866C60.1835 26.0769 59.75 26.3162 59.75 26.7097L59.75 35.2903C59.75 35.6838 60.1835 35.9231 60.5165 35.7134L67.3283 31.4231Z" fill="#909EAA"/>
</g>
<defs>
<clipPath id="clip0_63_15">
<rect width="81" height="81" fill="white"/>
</clipPath>
</defs>
</svg>
