<svg width="1024" height="1024" viewBox="0 0 1024 1024" fill="none" xmlns="http://www.w3.org/2000/svg">
<circle cx="512.5" cy="511.5" r="417.5" stroke="#800080" stroke-width="40"/>
<rect x="247" y="411" width="530" height="318" rx="48" fill="#800080"/>
<path d="M375.63 523.76H387.084C387.527 519.001 387.748 514.077 387.748 508.986C387.748 503.895 387.582 498.749 387.25 493.548C392.23 493.88 398.372 494.765 405.676 496.204C413.091 497.643 417.13 498.583 417.794 499.026C418.569 499.469 418.956 500.188 418.956 501.184C418.956 502.18 418.181 502.955 416.632 503.508C413.423 504.615 410.656 506.164 408.332 508.156C406.119 510.148 401.36 515.349 394.056 523.76H435.39C438.378 518.227 440.149 515.017 440.702 514.132C441.255 513.247 441.919 512.804 442.694 512.804C444.133 512.804 447.674 514.796 453.318 518.78C458.962 522.764 462.614 525.309 464.274 526.416C465.934 527.412 466.764 528.408 466.764 529.404C466.764 531.064 464.44 532.669 459.792 534.218V623.194C459.792 628.395 459.847 631.992 459.958 633.984L460.124 639.628C460.124 640.624 459.571 641.509 458.464 642.284C457.357 643.169 454.867 644.11 450.994 645.106C447.121 646.213 444.133 646.766 442.03 646.766C440.038 646.766 438.876 646.6 438.544 646.268C438.323 645.936 438.212 645.161 438.212 643.944V626.514H374.136V641.454C374.136 642.45 373.97 643.114 373.638 643.446C373.306 643.889 372.199 644.442 370.318 645.106C368.437 645.77 365.781 646.323 362.35 646.766C359.03 647.209 356.208 647.43 353.884 647.43C352.888 647.43 352.39 646.987 352.39 646.102L352.722 638.3C352.943 632.877 353.054 627.953 353.054 623.526V533.72C353.054 526.859 352.943 520.993 352.722 516.124C361.465 518.78 369.101 521.325 375.63 523.76ZM374.136 554.968H438.212V529.238H377.124C376.46 530.345 375.464 531.175 374.136 531.728V554.968ZM438.212 560.446H374.136V587.172H438.212V560.446ZM438.212 621.036V592.65H374.136V621.036H438.212ZM619.152 544.012H591.098C588.885 545.34 586.616 547.277 584.292 549.822C581.968 552.257 578.703 555.411 574.498 559.284C579.367 559.616 581.802 560.612 581.802 562.272C581.802 563.268 580.474 564.375 577.818 565.592V640.126C577.818 641.122 577.486 641.952 576.822 642.616C576.269 643.28 574.664 643.999 572.008 644.774C569.352 645.659 566.696 646.102 564.04 646.102C561.384 646.102 559.835 645.936 559.392 645.604C558.949 645.272 558.728 644.497 558.728 643.28L559.226 628.008C559.337 623.36 559.392 618.989 559.392 614.894V571.07C555.187 573.947 550.871 576.659 546.444 579.204C542.017 581.749 539.417 583.188 538.642 583.52C537.867 583.852 537.203 584.018 536.65 584.018C536.207 584.018 535.986 583.741 535.986 583.188C535.986 582.524 536.484 581.749 537.48 580.864C546.887 572.232 554.467 563.766 560.222 555.466C565.977 547.055 571.787 536.542 577.652 523.926C585.731 528.574 592.537 533.443 598.07 538.534H619.152V521.768H601.722C599.509 521.768 597.517 522.377 595.746 523.594L591.43 515.792C594.086 516.124 596.853 516.29 599.73 516.29H619.152V511.642C619.152 504.117 618.986 497.698 618.654 492.386C622.859 492.497 627.397 492.829 632.266 493.382C637.246 493.935 640.345 494.544 641.562 495.208C642.779 495.872 643.388 496.591 643.388 497.366C643.388 498.915 641.783 500.133 638.574 501.018V516.29H650.692C653.569 510.978 655.174 507.99 655.506 507.326C655.949 506.662 656.557 506.33 657.332 506.33C658.549 506.33 662.423 508.377 668.952 512.472C675.481 516.567 678.746 519.278 678.746 520.606C678.746 521.934 676.975 523.262 673.434 524.59V538.534H674.098C677.197 532.779 679.299 529.902 680.406 529.902C681.623 529.902 684.335 531.728 688.54 535.38C692.856 538.921 695.014 541.245 695.014 542.352C695.014 543.459 693.907 544.012 691.694 544.012H673.434V556.296L673.6 565.26C673.6 566.477 673.268 567.418 672.604 568.082C671.94 568.746 670.169 569.465 667.292 570.24C664.525 570.904 661.869 571.236 659.324 571.236C656.779 571.236 655.174 571.015 654.51 570.572C653.846 570.129 653.514 569.355 653.514 568.248V567.252H638.574V585.844H654.676C655.672 583.963 657 581.86 658.66 579.536C660.32 577.212 661.427 575.829 661.98 575.386C662.533 574.943 663.087 574.722 663.64 574.722C664.968 574.722 668.288 576.935 673.6 581.362C679.023 585.678 681.734 588.445 681.734 589.662C681.734 590.879 680.572 591.488 678.248 591.488H638.574V608.752H662.478C663.585 606.317 664.747 604.049 665.964 601.946C667.292 599.733 668.288 598.239 668.952 597.464C669.616 596.689 670.335 596.302 671.11 596.302C671.885 596.302 673.545 597.132 676.09 598.792C678.635 600.452 681.402 602.389 684.39 604.602C687.378 606.815 689.37 608.475 690.366 609.582C691.362 610.689 691.86 611.629 691.86 612.404C691.86 613.621 690.698 614.23 688.374 614.23H638.574V620.704L638.74 641.122C638.74 642.782 638.408 643.999 637.744 644.774C637.08 645.549 635.42 646.323 632.764 647.098C630.108 647.983 627.452 648.426 624.796 648.426C622.14 648.426 620.48 648.094 619.816 647.43C619.263 646.877 618.986 645.936 618.986 644.608L619.152 622.364V614.23H589.438C587.225 614.23 585.233 614.839 583.462 616.056L579.146 608.254C581.802 608.586 584.569 608.752 587.446 608.752H619.152V591.488H595.58C593.367 591.488 591.375 592.097 589.604 593.314L585.288 585.346C587.944 585.678 590.711 585.844 593.588 585.844H619.152V567.252H601.058C598.845 567.252 596.853 567.861 595.082 569.078L590.766 561.276C593.422 561.608 596.189 561.774 599.066 561.774H619.152V544.012ZM638.574 538.534H653.514V521.768H638.574V538.534ZM653.514 544.012H638.574V561.774H653.514V544.012ZM574.83 492.884C583.019 497.421 588.608 500.741 591.596 502.844C594.695 504.836 596.521 506.164 597.074 506.828C597.627 507.381 597.904 507.99 597.904 508.654C597.904 509.761 596.797 510.314 594.584 510.314C591.153 510.314 586.007 513.191 579.146 518.946C572.285 524.701 564.427 529.902 555.574 534.55C546.831 539.198 541.851 541.522 540.634 541.522C540.302 541.522 540.136 541.467 540.136 541.356C540.136 540.913 540.8 540.083 542.128 538.866C551.424 530.234 558.175 522.653 562.38 516.124C566.696 509.595 570.846 501.848 574.83 492.884Z" fill="white"/>
<rect x="315" y="358" width="1" height="1" fill="#D9D9D9"/>
<path fill-rule="evenodd" clip-rule="evenodd" d="M444 294C419.147 294 399 314.147 399 339V394H439V339C439 336.239 441.239 334 444 334H580.986C583.748 334 585.986 336.239 585.986 339V394H625.986V339C625.986 314.147 605.839 294 580.986 294H444Z" fill="#800080"/>
</svg>
