<svg width="81" height="81" viewBox="0 0 81 81" fill="none" xmlns="http://www.w3.org/2000/svg">
<path d="M40.5 3C41.9634 3 43.2439 4.28049 43.2439 5.7439C43.2439 7.20732 41.9634 8.4878 40.5 8.4878C22.7561 8.4878 8.4878 22.7561 8.4878 40.5C8.4878 58.2439 22.7561 72.5122 40.5 72.5122C58.2439 72.5122 72.5122 58.2439 72.5122 40.5C72.5122 39.0366 73.7927 37.7561 75.2561 37.7561C76.7195 37.7561 78 39.0366 78 40.5C78 61.1707 61.1707 78 40.5 78C19.8293 78 3 61.1707 3 40.5C3 19.8293 19.8293 3 40.5 3ZM63.1829 19.4634L60.439 16.7195C59.3415 15.622 59.5244 13.9756 60.439 12.878C61.5366 11.7805 63.1829 11.9634 64.2805 12.878L70.1341 18.9146C71.7805 20.7439 71.7805 23.4878 70.1341 25.3171L64.4634 31.3537C63.3659 32.4512 61.7195 32.4512 60.622 31.3537C59.5244 30.2561 59.5244 28.6098 60.622 27.5122L63 24.9512L58.4268 25.1341C49.0976 25.3171 41.5976 33.1829 41.5976 42.5122V45.9878C41.5976 47.4512 40.3171 48.7317 38.8537 48.7317C37.3902 48.7317 36.1098 47.4512 36.1098 45.9878V42.5122C36.1098 30.0732 45.9878 20.0122 58.2439 19.6463L63.1829 19.4634V19.4634Z" fill="#800080"/>
</svg>
