<svg width="81" height="81" viewBox="0 0 81 81" fill="none" xmlns="http://www.w3.org/2000/svg">
<g clip-path="url(#clip0_109_10)">
<path d="M41 15.5409C37.6958 15.533 34.4247 16.1989 31.3866 17.498C31.1195 17.6089 30.877 17.7717 30.6732 17.9769C30.4694 18.1822 30.3084 18.4258 30.1993 18.6937C30.0903 18.9616 30.0355 19.2485 30.0381 19.5377C30.0406 19.8269 30.1005 20.1128 30.2143 20.3787C30.3281 20.6446 30.4935 20.8854 30.7009 21.0869C30.9083 21.2885 31.1537 21.447 31.4227 21.5531C31.6918 21.6593 31.9792 21.711 32.2684 21.7053C32.5576 21.6996 32.8428 21.6367 33.1075 21.52C36.163 20.222 39.4923 19.7005 42.7984 20.0022C46.1045 20.3039 49.2844 21.4194 52.0545 23.249C54.8246 25.0787 57.0987 27.5657 58.6737 30.4881C60.2488 33.4105 61.0759 36.6773 61.0812 39.9971C61.0812 40.5773 61.3117 41.1337 61.7219 41.5439C62.1322 41.9542 62.6886 42.1846 63.2687 42.1846C63.8489 42.1846 64.4053 41.9542 64.8155 41.5439C65.2258 41.1337 65.4562 40.5773 65.4562 39.9971C65.4621 26.5105 54.4896 15.538 41 15.538V15.5409ZM21.3708 29.2375C20.8378 29.0098 20.2362 29.0028 19.698 29.2183C19.1599 29.4338 18.7293 29.854 18.5008 30.3867C17.1991 33.4242 16.5312 36.6954 16.5379 40C16.5379 40.5802 16.7684 41.1366 17.1786 41.5468C17.5888 41.9571 18.1452 42.1875 18.7254 42.1875C19.3056 42.1875 19.862 41.9571 20.2722 41.5468C20.6824 41.1366 20.9129 40.5802 20.9129 40C20.9129 37.2584 21.4554 34.6042 22.52 32.1134C22.6336 31.8493 22.694 31.5655 22.6978 31.2781C22.7015 30.9906 22.6484 30.7053 22.5417 30.4384C22.4349 30.1715 22.2766 29.9283 22.0756 29.7227C21.8747 29.5172 21.6352 29.3533 21.3708 29.2405V29.2375Z" fill="black"/>
<path d="M41 5C21.7004 5 6 20.7004 6 40C6 59.2967 21.7004 75 41 75C60.2967 75 76 59.2967 76 40C76 20.7004 60.2967 5 41 5ZM41 70.625C24.1125 70.625 10.375 56.8875 10.375 40C10.375 23.1125 24.1125 9.375 41 9.375C57.8875 9.375 71.625 23.1125 71.625 40C71.625 56.8875 57.8875 70.625 41 70.625Z" fill="black"/>
<path opacity="0.3" d="M41 56.875C41 61.3505 42.7779 65.6427 45.9426 68.8074C49.1072 71.9721 53.3995 73.75 57.875 73.75C62.3505 73.75 66.6427 71.9721 69.8074 68.8074C72.9721 65.6427 74.75 61.3505 74.75 56.875C74.75 52.3995 72.9721 48.1072 69.8074 44.9426C66.6427 41.7779 62.3505 40 57.875 40C53.3995 40 49.1072 41.7779 45.9426 44.9426C42.7779 48.1072 41 52.3995 41 56.875V56.875Z" fill="#333333"/>
</g>
<defs>
<clipPath id="clip0_109_10">
<rect width="70" height="70" fill="white" transform="translate(6 5)"/>
</clipPath>
</defs>
</svg>
