<svg width="81" height="81" viewBox="0 0 81 81" fill="none" xmlns="http://www.w3.org/2000/svg">
<path d="M50.8515 59.4822L48.6962 60.3293L49.8479 62.3383L51.665 65.508C52.8115 67.508 51.3676 70 49.0623 70H30.7646C28.4593 70 27.0154 67.508 28.1619 65.508L30.2034 61.9468L31.3164 60.0054L29.2627 59.1166C19.1125 54.7237 12 44.5595 12 32.7173C12 16.8438 24.7732 4 40.5 4C56.2267 4 69 16.8438 69 32.7173C69 44.9015 61.4706 55.3091 50.8515 59.4822Z" stroke="black" stroke-width="4"/>
<line x1="27" y1="77" x2="53" y2="77" stroke="black" stroke-width="4" stroke-linecap="round"/>
<path d="M33 15L39.2037 16.2947C48.8669 18.3113 55.6134 27.0766 55.0897 36.934L54.8205 42" stroke="black" stroke-width="4" stroke-linecap="round"/>
<path opacity="0.3" d="M43 29.875C43 34.3505 44.7779 38.6427 47.9426 41.8074C51.1072 44.9721 55.3995 46.75 59.875 46.75C64.3505 46.75 68.6427 44.9721 71.8074 41.8074C74.9721 38.6427 76.75 34.3505 76.75 29.875C76.75 25.3995 74.9721 21.1072 71.8074 17.9426C68.6427 14.7779 64.3505 13 59.875 13C55.3995 13 51.1072 14.7779 47.9426 17.9426C44.7779 21.1072 43 25.3995 43 29.875V29.875Z" fill="#333333"/>
</svg>
