<svg width="60" height="60" viewBox="0 0 60 60" fill="none" xmlns="http://www.w3.org/2000/svg">
<g clip-path="url(#clip0_103_20)">
<path d="M51.6 31.7772V45.594C51.6006 47.186 50.9689 48.7132 49.8437 49.8395C48.7185 50.9658 47.192 51.599 45.6 51.6H14.4C12.8087 51.6 11.2826 50.9679 10.1574 49.8426C9.03214 48.7174 8.4 47.1913 8.4 45.6V14.4C8.4 11.0844 11.0808 8.4 14.394 8.4H23.8776C24.1959 8.4 24.5011 8.27357 24.7261 8.04853C24.9512 7.82348 25.0776 7.51826 25.0776 7.2C25.0776 6.88174 24.9512 6.57652 24.7261 6.35147C24.5011 6.12643 24.1959 6 23.8776 6L14.394 6C13.2912 6 12.1992 6.21732 11.1804 6.63953C10.1616 7.06174 9.23596 7.68058 8.45643 8.46067C7.67689 9.24076 7.05872 10.1668 6.63723 11.1859C6.21575 12.205 5.99921 13.2972 6 14.4V45.6C6 47.8278 6.885 49.9644 8.46031 51.5397C10.0356 53.115 12.1722 54 14.4 54H45.6C50.238 54 54 50.2368 54 45.594V31.7772C54 31.4589 53.8736 31.1537 53.6485 30.9287C53.4235 30.7036 53.1183 30.5772 52.8 30.5772C52.4817 30.5772 52.1765 30.7036 51.9515 30.9287C51.7264 31.1537 51.6 31.4589 51.6 31.7772Z" fill="black"/>
<path d="M51 12C34.4316 12 21 25.4316 21 42C21 42.3183 21.1264 42.6235 21.3515 42.8485C21.5765 43.0736 21.8817 43.2 22.2 43.2C22.5183 43.2 22.8235 43.0736 23.0485 42.8485C23.2736 42.6235 23.4 42.3183 23.4 42C23.4 26.7564 35.7564 14.4 51 14.4C51.3183 14.4 51.6235 14.2736 51.8485 14.0485C52.0736 13.8235 52.2 13.5183 52.2 13.2C52.2 12.8817 52.0736 12.5765 51.8485 12.3515C51.6235 12.1264 51.3183 12 51 12Z" fill="black"/>
<path d="M39.7548 8.91363L51.7548 13.7136C52.0475 13.8192 52.3697 13.8069 52.6536 13.6794C52.9374 13.5519 53.1606 13.3191 53.2761 13.0302C53.3916 12.7413 53.3903 12.4188 53.2726 12.1308C53.155 11.8428 52.93 11.6118 52.6452 11.4864L40.6452 6.68643C40.3525 6.5809 40.0303 6.59318 39.7465 6.72068C39.4626 6.84818 39.2395 7.08093 39.124 7.36983C39.0085 7.65874 39.0097 7.98121 39.1274 8.26923C39.2451 8.55725 39.47 8.78829 39.7548 8.91363Z" fill="black"/>
<path d="M43.9128 22.3344L53.0364 13.4604C53.1512 13.351 53.2432 13.2199 53.3071 13.0747C53.3709 12.9295 53.4054 12.7731 53.4084 12.6146C53.4115 12.456 53.3831 12.2984 53.3248 12.1509C53.2666 12.0033 53.1797 11.8688 53.0691 11.7551C52.9585 11.6414 52.8265 11.5507 52.6807 11.4883C52.5349 11.4259 52.3782 11.393 52.2196 11.3916C52.061 11.3901 51.9037 11.4202 51.7567 11.4799C51.6098 11.5396 51.4762 11.6279 51.3636 11.7396L42.24 20.6136C42.1251 20.723 42.0331 20.8541 41.9693 20.9992C41.9054 21.1444 41.8709 21.3008 41.8679 21.4594C41.8649 21.618 41.8933 21.7756 41.9515 21.9231C42.0098 22.0706 42.0967 22.2052 42.2072 22.3189C42.3178 22.4326 42.4498 22.5233 42.5956 22.5857C42.7414 22.6481 42.8982 22.6809 43.0568 22.6824C43.2154 22.6838 43.3727 22.6538 43.5196 22.5941C43.6665 22.5344 43.8002 22.4461 43.9128 22.3344Z" fill="black"/>
</g>
<defs>
<clipPath id="clip0_103_20">
<rect width="48" height="48" fill="black" transform="translate(6 6)"/>
</clipPath>
</defs>
</svg>
